<?xml version="1.0" encoding="UTF-8"?>
<svg version="1.1" xmlns="http://www.w3.org/2000/svg" width="875" height="283">
<path d="M0 0 C288.75 0 577.5 0 875 0 C875 93.39 875 186.78 875 283 C586.25 283 297.5 283 0 283 C0 189.61 0 96.22 0 0 Z " fill="#F2F0E4" transform="translate(0,0)"/>
<path d="M0 0 C23.4196875 -0.12375 23.4196875 -0.12375 47.3125 -0.25 C52.20360596 -0.28641602 57.09471191 -0.32283203 62.1340332 -0.36035156 C68.20544434 -0.37841797 68.20544434 -0.37841797 71.06681824 -0.3817749 C73.02352054 -0.387832 74.98020996 -0.40171801 76.93681335 -0.42230225 C95.49290315 -0.60739668 113.15043981 0.44911976 129 11 C129.69351563 11.46148437 130.38703125 11.92296875 131.1015625 12.3984375 C139.1528725 18.5344579 144.96556558 29.19881301 147 39 C148.65323076 52.8027899 146.7256289 66.18820601 138.25 77.5625 C134.86917733 81.432737 131.2009034 84.23823196 126.78515625 86.84375 C124.84573217 87.88554038 124.84573217 87.88554038 124 90 C124.73476563 90.27457031 125.46953125 90.54914063 126.2265625 90.83203125 C138.97674961 96.20147624 146.39860779 105.66179824 152 118 C156.77471485 130.31707415 154.71945874 145.27212563 149.82568359 157.20166016 C143.90347139 170.10024534 132.90485627 178.01316764 120 183 C118.87464844 183.44472656 118.87464844 183.44472656 117.7265625 183.8984375 C104.24811774 188.81296068 90.29452547 188.26673911 76.171875 188.1953125 C74.21826288 188.19236634 72.26464918 188.19032943 70.31103516 188.18920898 C63.12399912 188.17878809 55.93699704 188.15086568 48.75 188.125 C24.61875 188.063125 24.61875 188.063125 0 188 C0 125.96 0 63.92 0 0 Z " fill="#2D4560" transform="translate(228,48)"/>
<path d="M0 0 C114.32369942 0 114.32369942 0 133.25390625 17.02734375 C138.59572258 22.6327032 142.02721891 28.88755179 145 36 C145.34160156 36.804375 145.68320312 37.60875 146.03515625 38.4375 C150.86172716 52.44578022 149.38133765 71.29999852 143.8515625 84.8046875 C137.95866274 96.82892806 128.30865486 106.66468953 116 112 C112.03607811 113.25652256 108.08690516 114.23914 104 115 C109.79602138 123.49535049 115.76228779 131.82091593 122 140 C122.58201172 140.76376953 123.16402344 141.52753906 123.76367188 142.31445312 C126.47637039 145.87401623 129.1893374 149.43337189 131.90429688 152.99121094 C136.64517264 159.20776775 141.35349755 165.4474448 146.02758789 171.71435547 C149.23519262 176.00796431 152.51482823 180.23495481 155.890625 184.3984375 C157 186 157 186 157 188 C152.05677746 188.32415203 147.11985386 188.55839196 142.16845703 188.71411133 C140.48962633 188.77905362 138.81151878 188.86746064 137.13525391 188.98071289 C123.63966302 189.868898 123.63966302 189.868898 119.28930664 186.78881836 C115.79023116 183.31338148 113.44961619 179.24773871 111 175 C109.46243159 172.75533378 107.85791684 170.57081684 106.25 168.375 C105.41587032 167.19978356 104.58236157 166.02412563 103.75 164.84765625 C100.63268209 160.46622009 97.44360878 156.13850042 94.25 151.8125 C93.66605469 151.02149902 93.08210938 150.23049805 92.48046875 149.41552734 C91.27633804 147.78542556 90.07190661 146.15554588 88.8671875 144.52587891 C85.65890386 140.18580274 82.45400535 135.84323503 79.25 131.5 C78.35522949 130.28920776 78.35522949 130.28920776 77.44238281 129.05395508 C76.88905273 128.3039624 76.33572266 127.55396973 75.765625 126.78125 C75.27868164 126.12189453 74.79173828 125.46253906 74.29003906 124.78320312 C73.15577103 123.21532014 72.07343031 121.61014546 71 120 C69.15274772 119.5267707 69.15274772 119.5267707 67.00927734 119.56762695 C66.17710693 119.54768677 65.34493652 119.52774658 64.48754883 119.50720215 C63.61251709 119.50095825 62.73748535 119.49471436 61.8359375 119.48828125 C60.62997925 119.46332581 60.62997925 119.46332581 59.3996582 119.43786621 C56.39170587 119.37996108 53.38330268 119.34778834 50.375 119.3125 C43.65125 119.209375 36.9275 119.10625 30 119 C30 141.77 30 164.54 30 188 C20.1 188 10.2 188 0 188 C0 125.96 0 63.92 0 0 Z " fill="#2B4461" transform="translate(411,48)"/>
<path d="M0 0 C1.39120471 0.00015906 2.78241534 0.00585033 4.17358398 0.01586914 C5.27016579 0.01799156 5.27016579 0.01799156 6.38890076 0.02015686 C8.73253406 0.02577131 11.07607313 0.03832617 13.41967773 0.05102539 C15.00496282 0.05603853 16.59024939 0.06060176 18.17553711 0.06469727 C22.06945383 0.07574542 25.96329979 0.09301967 29.85717773 0.11352539 C36.8900398 15.76566435 43.8943704 31.4300934 50.85717773 47.11352539 C56.96016089 60.85896988 63.09538773 74.58946384 69.2537384 88.31021118 C78.8706858 109.73997005 88.46503229 131.18003655 97.98608398 152.65258789 C99.77940484 156.69491462 101.58144163 160.73316469 103.39250183 164.76756287 C104.52607726 167.29340457 105.65697193 169.82044246 106.78768921 172.3475647 C107.58991076 174.13749893 108.39598786 175.92570358 109.20214844 177.71386719 C109.68127686 178.78548096 110.16040527 179.85709473 110.65405273 180.96118164 C111.08041016 181.91001221 111.50676758 182.85884277 111.94604492 183.83642578 C112.85717773 186.11352539 112.85717773 186.11352539 112.85717773 188.11352539 C101.96717773 188.11352539 91.07717773 188.11352539 79.85717773 188.11352539 C75.89482777 179.5284338 71.99921079 170.96472698 68.27758789 162.27978516 C67.46558982 160.38736607 66.64776494 158.49752722 65.82983398 156.60766602 C65.05833008 154.81039062 65.05833008 154.81039062 64.27124023 152.97680664 C63.80669434 151.8969751 63.34214844 150.81714355 62.86352539 149.70458984 C61.85717773 147.11352539 61.85717773 147.11352539 61.85717773 145.11352539 C13.84217773 145.60852539 13.84217773 145.60852539 -35.14282227 146.11352539 C-39.10282227 155.35352539 -43.06282227 164.59352539 -47.14282227 174.11352539 C-49.12282227 178.73352539 -51.10282227 183.35352539 -53.14282227 188.11352539 C-64.03282227 188.11352539 -74.92282227 188.11352539 -86.14282227 188.11352539 C-83.89317072 181.36457077 -83.89317072 181.36457077 -82.42211914 178.12548828 C-82.09378082 177.39844193 -81.7654425 176.67139557 -81.42715454 175.9223175 C-81.07551239 175.15139267 -80.72387024 174.38046783 -80.36157227 173.58618164 C-79.99212494 172.76953537 -79.62267761 171.9528891 -79.24203491 171.11149597 C-78.4533072 169.36842445 -77.66334573 167.62591076 -76.87225342 165.88391113 C-74.80204755 161.32417557 -72.74187861 156.75991289 -70.68188477 152.19555664 C-70.27882111 151.30283051 -69.87575745 150.41010437 -69.46047974 149.49032593 C-66.59515755 143.13652123 -63.77558419 136.76483869 -61.01782227 130.36352539 C-56.81940593 120.62264525 -52.51971703 110.92843157 -48.20532227 101.23852539 C-43.23494888 90.07419613 -38.28000109 78.90375344 -33.37011719 67.71264648 C-30.67331455 61.57302106 -27.9575286 55.44211648 -25.22875977 49.31665039 C-24.8849678 48.54480911 -24.54117584 47.77296783 -24.18696594 46.97773743 C-22.78210624 43.82390128 -21.37724197 40.67006727 -19.97189331 37.51644897 C-15.43283669 27.32670544 -10.94029356 17.1208741 -6.61694336 6.8371582 C-3.78788271 0.13682634 -3.78788271 0.13682634 0 0 Z " fill="#2D4561" transform="translate(94.142822265625,47.886474609375)"/>
<path d="M0 0 C2.04039287 0.01610836 4.07880636 0.00003015 6.11914062 -0.01904297 C31.46893311 -0.06153909 55.1347346 9.55791911 73.04101562 27.39111328 C72.46721146 31.0349718 71.10318473 32.67471648 68.47851562 35.21142578 C67.764375 35.91138672 67.05023437 36.61134766 66.31445312 37.33251953 C65.56421875 38.05310547 64.81398438 38.77369141 64.04101562 39.51611328 C62.55977663 40.95408584 61.08050818 42.3940919 59.60351562 43.83642578 C58.94480469 44.47080566 58.28609375 45.10518555 57.60742188 45.75878906 C55.95160153 47.32276251 55.95160153 47.32276251 55.04101562 49.39111328 C51.41364179 47.78752248 48.57809438 45.53433813 45.47851562 43.07861328 C39.97367825 38.86462915 34.53565517 35.81103377 28.04101562 33.39111328 C27.1 32.99923828 26.15898438 32.60736328 25.18945312 32.20361328 C10.35296214 26.90223685 -9.75311722 26.53173821 -24.23242188 32.98095703 C-25.1321875 33.44630859 -26.03195312 33.91166016 -26.95898438 34.39111328 C-27.77625 34.76365234 -28.59351563 35.13619141 -29.43554688 35.52001953 C-45.47009205 43.42708906 -55.18067106 58.97577326 -60.99414062 75.29736328 C-65.01991953 89.52802361 -64.72816936 107.41047828 -59.95898438 121.39111328 C-59.61867188 122.40044922 -59.27835938 123.40978516 -58.92773438 124.44970703 C-52.71225647 140.93332242 -40.8352262 153.1101006 -24.95898438 160.39111328 C-4.46033396 168.14796355 15.97116753 166.95107889 35.89257812 158.02001953 C39.46015384 156.17426386 42.5292905 154.08583676 45.58789062 151.49267578 C47.04101562 150.39111328 47.04101562 150.39111328 49.04101562 150.39111328 C49.04101562 137.85111328 49.04101562 125.31111328 49.04101562 112.39111328 C31.55101562 112.39111328 14.06101562 112.39111328 -3.95898438 112.39111328 C-3.95898438 103.48111328 -3.95898438 94.57111328 -3.95898438 85.39111328 C23.10101562 85.39111328 50.16101563 85.39111328 78.04101562 85.39111328 C78.22664062 97.91048828 78.41226563 110.42986328 78.60351562 123.32861328 C78.72641968 129.23562134 78.72641968 129.23562134 78.85180664 135.26196289 C78.89245605 140.10900879 78.89245605 140.10900879 78.90000916 142.38551331 C78.91373823 143.95951809 78.94520525 145.53343413 78.99119568 147.10682678 C79.35878809 160.35683626 79.35878809 160.35683626 76.09877014 165.3894043 C73.85925532 167.66254812 71.63556079 169.54205125 69.04101562 171.39111328 C68.44255829 171.88253311 67.84410095 172.37395294 67.22750854 172.88026428 C54.06618791 183.59110264 39.41598241 189.60904225 23.04101562 193.39111328 C22.26185791 193.572146 21.4827002 193.75317871 20.67993164 193.93969727 C15.35859973 194.84997044 9.92549549 194.57580301 4.54101562 194.57861328 C3.33703125 194.59085938 2.13304687 194.60310547 0.89257812 194.61572266 C-25.45785169 194.65822335 -49.07600939 185.68502364 -68.20898438 167.51611328 C-88.07576636 146.58210747 -95.89664999 119.1671111 -95.26757812 90.80517578 C-94.62639156 75.99669267 -90.70051361 62.5180155 -83.95898438 49.39111328 C-83.42402344 48.32376953 -82.8890625 47.25642578 -82.33789062 46.15673828 C-71.35318269 25.82054038 -52.12343035 11.14626451 -30.35839844 4.08691406 C-20.24076137 1.15292285 -10.51540788 -0.0982984 0 0 Z " fill="#2C4460" transform="translate(782.958984375,44.60888671875)"/>
<path d="M0 0 C14.1075 -0.061875 14.1075 -0.061875 28.5 -0.125 C31.45517578 -0.14320801 34.41035156 -0.16141602 37.45507812 -0.18017578 C39.81380024 -0.18602046 42.17252438 -0.19111608 44.53125 -0.1953125 C45.74264648 -0.20554443 46.95404297 -0.21577637 48.20214844 -0.22631836 C60.02618881 -0.22874729 71.40147918 1.94297293 80.4296875 10.15234375 C87.42047137 18.3778183 88.66376457 27.59311978 88 38 C86.24856664 47.45258889 81.90703599 54.49608279 74 60 C67.12241821 63.77428269 60.7528253 65.13037087 52.90283203 65.11352539 C51.7056958 65.11340454 50.50855957 65.11328369 49.27514648 65.11315918 C48.03192627 65.10804321 46.78870605 65.10292725 45.5078125 65.09765625 C44.354021 65.09664917 43.20022949 65.09564209 42.01147461 65.09460449 C37.71597291 65.08938637 33.42048542 65.07542512 29.125 65.0625 C19.51375 65.041875 9.9025 65.02125 0 65 C0 43.55 0 22.1 0 0 Z " fill="#F2F0E4" transform="translate(441,75)"/>
<path d="M0 0 C15.86080582 -0.08021762 15.86080582 -0.08021762 22.66601562 -0.09765625 C27.29407384 -0.10957241 31.92205228 -0.12360915 36.55004883 -0.15087891 C40.28479952 -0.17274549 44.01946455 -0.1845975 47.75427437 -0.18975449 C49.17309478 -0.19342561 50.59191096 -0.20059382 52.0106945 -0.21146011 C64.20120303 -0.30104033 76.1008903 0.34549792 85.859375 8.56640625 C92.32011354 15.45892682 93.66470841 23.56290011 93.40625 32.78125 C92.54145876 39.63305754 89.7103185 44.97281334 84.375 49.375 C74.27197631 55.79693308 64.51805171 56.56013604 52.83203125 56.390625 C51.30076341 56.38314704 49.76948587 56.37746148 48.23820496 56.37347412 C44.24482921 56.35833973 40.25205306 56.31916679 36.25891113 56.2746582 C31.44804013 56.22616781 26.63696651 56.2081132 21.8259201 56.18484497 C14.55019883 56.14630514 7.27578816 56.06956929 0 56 C0 37.52 0 19.04 0 0 Z " fill="#F3F1E5" transform="translate(258,152)"/>
<path d="M0 0 C7.88693366 -0.06313288 15.77293744 -0.12321158 23.65990448 -0.15525055 C27.33368382 -0.17100887 31.00725118 -0.19202169 34.6809082 -0.22631836 C38.22764842 -0.25921815 41.77418472 -0.27691653 45.3210659 -0.28463173 C47.31439828 -0.29276919 49.30765007 -0.31613815 51.30085754 -0.33988953 C62.15011245 -0.34187135 72.56053213 0.63811608 80.62109375 8.6015625 C86.08969357 14.55538581 87.54985587 20.08865222 87.375 28.12109375 C86.53803521 34.54654216 83.45955011 39.96664136 78.8125 44.4375 C70.17477341 50.77602627 60.0888482 50.41157072 49.8046875 50.29296875 C48.36166834 50.28736089 46.91864341 50.28309643 45.47561646 50.28010559 C41.71085333 50.26875022 37.94644746 50.23936567 34.18182373 50.20599365 C29.64708843 50.16963898 25.11223245 50.15608716 20.57739258 50.13863373 C13.71801463 50.10972065 6.85941775 50.05217022 0 50 C0 33.5 0 17 0 0 Z " fill="#F3F1E5" transform="translate(258,75)"/>
<path d="M0 0 C0.66 0 1.32 0 2 0 C8.68933255 14.45639091 14.8774904 29.11310703 21.02734375 43.80444336 C25.33183926 54.08075605 29.69525187 64.32415419 34.25756836 74.48950195 C34.6263208 75.3218335 34.99507324 76.15416504 35.375 77.01171875 C35.69210938 77.71772217 36.00921875 78.42372559 36.3359375 79.15112305 C37 81 37 81 37 84 C13.24 84 -10.52 84 -35 84 C-31.48758075 74.63354866 -28.03848655 65.51223916 -23.9375 56.4375 C-19.53820734 46.57262976 -15.28941875 36.65309313 -11.125 26.6875 C-10.85436737 26.04013885 -10.58373474 25.39277771 -10.30490112 24.72579956 C-8.53296848 20.48537679 -6.76595451 16.24291622 -5 12 C-4.03913264 9.69398119 -3.07820038 7.38798942 -2.1171875 5.08203125 C-1.41143501 3.38803055 -0.70569628 1.69402412 0 0 Z " fill="#F3F1E6" transform="translate(106,81)"/>
<path d="M0 0 C28.05 0 56.1 0 85 0 C85 8.58 85 17.16 85 26 C56.95 26 28.9 26 0 26 C0 17.42 0 8.84 0 0 Z " fill="#2E4660" transform="translate(581,130)"/>
<path d="M0 0 C30.69 0 61.38 0 93 0 C93.495 0.99 93.495 0.99 94 2 C63.64 2 33.28 2 2 2 C2.33 62.06 2.66 122.12 3 184 C6.00015912 185.00005304 7.97423756 185.11575585 11.10546875 185.09765625 C12.08837891 185.09443359 13.07128906 185.09121094 14.08398438 185.08789062 C15.10814453 185.07951172 16.13230469 185.07113281 17.1875 185.0625 C18.22326172 185.05798828 19.25902344 185.05347656 20.32617188 185.04882812 C22.88417266 185.0370401 25.44205733 185.02058515 28 185 C27.9278125 183.91074219 27.855625 182.82148438 27.78125 181.69921875 C26.57944449 161.15498556 26.9092788 140.56998468 27 120 C28.485 119.505 28.485 119.505 30 119 C30 141.77 30 164.54 30 188 C20.1 188 10.2 188 0 188 C0 125.96 0 63.92 0 0 Z " fill="#37495A" transform="translate(411,48)"/>
<path d="M0 0 C14.293125 -0.061875 14.293125 -0.061875 28.875 -0.125 C31.8847998 -0.14320801 34.89459961 -0.16141602 37.99560547 -0.18017578 C40.36946433 -0.18601456 42.74332518 -0.19111157 45.1171875 -0.1953125 C46.35927979 -0.20554443 47.60137207 -0.21577637 48.88110352 -0.22631836 C50.64707886 -0.22668091 50.64707886 -0.22668091 52.44873047 -0.22705078 C53.47465302 -0.231492 54.50057556 -0.23593323 55.55758667 -0.24050903 C58 0 58 0 60 2 C40.86 2 21.72 2 2 2 C2 22.46 2 42.92 2 64 C6.455 63.505 6.455 63.505 11 63 C12.90396975 62.90881897 14.80977765 62.84681646 16.71582031 62.82641602 C17.74008118 62.81292618 18.76434204 62.79943634 19.81964111 62.78553772 C20.8949408 62.77509933 21.97024048 62.76466095 23.078125 62.75390625 C25.39583757 62.72100005 27.71354581 62.68778791 30.03125 62.65429688 C33.65426985 62.60674228 37.27726826 62.56220638 40.90039062 62.52319336 C44.41813823 62.4835213 47.93555806 62.43200677 51.453125 62.37890625 C52.53652161 62.3704921 53.61991821 62.36207794 54.73614502 62.35340881 C55.74779724 62.33676682 56.75944946 62.32012482 57.80175781 62.30297852 C58.68728333 62.29267105 59.57280884 62.28236359 60.48516846 62.27174377 C63.27817429 61.96994147 65.41707699 61.07254795 68 60 C68.99 60 69.98 60 71 60 C71 59.34 71 58.68 71 58 C72.98 58.495 72.98 58.495 75 59 C73.46378265 59.82275672 71.92071368 60.63272577 70.375 61.4375 C69.51648438 61.88996094 68.65796875 62.34242188 67.7734375 62.80859375 C62.93052835 64.88899839 58.12420517 65.12473005 52.90283203 65.11352539 C51.7056958 65.11340454 50.50855957 65.11328369 49.27514648 65.11315918 C48.03192627 65.10804321 46.78870605 65.10292725 45.5078125 65.09765625 C44.354021 65.09664917 43.20022949 65.09564209 42.01147461 65.09460449 C37.71597291 65.08938637 33.42048542 65.07542512 29.125 65.0625 C19.51375 65.041875 9.9025 65.02125 0 65 C0 43.55 0 22.1 0 0 Z " fill="#DBE3E5" transform="translate(441,75)"/>
<path d="M0 0 C19.8 0 39.6 0 60 0 C60 0.33 60 0.66 60 1 C42.51 1.33 25.02 1.66 7 2 C8.65 2.33 10.3 2.66 12 3 C11.67 3.66 11.34 4.32 11 5 C8.69 5 6.38 5 4 5 C4 15.23 4 25.46 4 36 C3.34 36 2.68 36 2 36 C2.08378906 37.04800781 2.16757812 38.09601563 2.25390625 39.17578125 C2.35708794 40.55466381 2.45993506 41.93357143 2.5625 43.3125 C2.61857422 44.00279297 2.67464844 44.69308594 2.73242188 45.40429688 C2.96581505 48.62512274 3.03224218 50.90327345 2 54 C22.46 54.33 42.92 54.66 64 55 C64 55.33 64 55.66 64 56 C42.88 56 21.76 56 0 56 C0 37.52 0 19.04 0 0 Z " fill="#F4F6F2" transform="translate(258,152)"/>
<path d="M0 0 C0.66 0 1.32 0 2 0 C2 21.45 2 42.9 2 65 C22.13 65 42.26 65 63 65 C58.9249984 67.71666773 56.30188819 68.11846515 51.51879883 68.02172852 C49.83739555 67.99158409 49.83739555 67.99158409 48.12202454 67.96083069 C46.91257675 67.93379562 45.70312897 67.90676056 44.45703125 67.87890625 C42.59893074 67.84348976 42.59893074 67.84348976 40.70329285 67.80735779 C37.41361488 67.74371169 34.12407267 67.67550647 30.83453369 67.60510254 C27.47635263 67.53434851 24.11805683 67.46957389 20.75976562 67.40429688 C14.17305725 67.27504898 7.5864926 67.13979085 1 67 C1 67.66 1 68.32 1 69 C0.34 69 -0.32 69 -1 69 C-0.67 46.23 -0.34 23.46 0 0 Z M34 68 C37.74993479 67.94188227 41.49975352 67.90636407 45.25 67.875 C46.84521484 67.84986328 46.84521484 67.84986328 48.47265625 67.82421875 C49.49746094 67.81777344 50.52226562 67.81132812 51.578125 67.8046875 C52.52075195 67.79421387 53.46337891 67.78374023 54.43457031 67.77294922 C57 68 57 68 61 70 C51.76 70 42.52 70 33 70 C33.33 69.34 33.66 68.68 34 68 Z " fill="#293F55" transform="translate(439,75)"/>
<path d="M0 0 C8.02476255 -0.04192909 16.04912888 -0.08200074 24.07390594 -0.10350037 C27.81079287 -0.11406553 31.5475892 -0.1281862 35.28442383 -0.15087891 C38.88298631 -0.17259539 42.4814609 -0.18456608 46.08008385 -0.18975449 C47.45362418 -0.1934524 48.82715966 -0.20067345 50.20066261 -0.21146011 C52.12306662 -0.22595829 54.04555891 -0.22681678 55.96801758 -0.22705078 C57.06277908 -0.231492 58.15754059 -0.23593323 59.28547668 -0.24050903 C62 0 62 0 65 2 C44.87 2 24.74 2 4 2 C4 6.95 4 11.9 4 17 C3.34 17.99 2.68 18.98 2 20 C1.75849227 22.51584891 1.75849227 22.51584891 1.875 25.1875 C1.89304687 26.08855469 1.91109375 26.98960938 1.9296875 27.91796875 C1.95289063 28.60503906 1.97609375 29.29210937 2 30 C2.66 30.33 3.32 30.66 4 31 C3.79375 31.7425 3.5875 32.485 3.375 33.25 C2.72992502 35.93682622 2.72992502 35.93682622 4 37.8125 C5.16056269 40.35123088 4.95884119 41.40932888 4.5625 44.125 C3.65461008 47.78510724 3.65461008 47.78510724 5 50 C3.35 50 1.7 50 0 50 C0 33.5 0 17 0 0 Z " fill="#F0F5F3" transform="translate(258,75)"/>
<path d="M0 0 C27.72 0 55.44 0 84 0 C78.93748344 2.53125828 76.71617023 3.12860602 71.04345703 3.14526367 C70.32782593 3.14862228 69.61219482 3.1519809 68.87487793 3.15544128 C66.50250526 3.16496188 64.1302031 3.16689502 61.7578125 3.16796875 C60.11115489 3.17118083 58.46449758 3.17454487 56.81784058 3.17805481 C53.36276589 3.18404904 49.90771624 3.18589444 46.45263672 3.18530273 C42.02506059 3.18520116 37.59764498 3.19884749 33.17010689 3.21607494 C29.76776391 3.22719381 26.36545973 3.22922197 22.96310043 3.22869301 C21.330824 3.22987352 19.69854657 3.2342993 18.06628799 3.24202538 C15.78252176 3.25182195 13.49910387 3.24894853 11.21533203 3.24291992 C9.91564484 3.24434494 8.61595764 3.24576996 7.27688599 3.24723816 C4.22788915 3.01719404 2.5457231 2.61846682 0 1 C0 0.67 0 0.34 0 0 Z " fill="#293D53" transform="translate(581,130)"/>
<path d="M0 0 C33.33 0 66.66 0 101 0 C101 0.33 101 0.66 101 1 C100.0821875 1.06058594 99.164375 1.12117187 98.21875 1.18359375 C96.9915625 1.26738281 95.764375 1.35117188 94.5 1.4375 C93.2934375 1.51871094 92.086875 1.59992188 90.84375 1.68359375 C88.24488079 1.89752506 85.65094381 2.18085659 83.06640625 2.52734375 C78.84663561 3.07438896 74.68809256 3.14808014 70.4375 3.125 C69.36338867 3.13080078 69.36338867 3.13080078 68.26757812 3.13671875 C64.93856755 3.1306605 61.89360681 2.98216601 58.59765625 2.4296875 C55.60154313 2.07184554 53.52704928 2.08021419 50.59375 2.4296875 C43.96751138 3.21027849 37.34455991 3.14994446 30.68359375 3.13037109 C28.47649483 3.12494218 26.2695933 3.13038213 24.0625 3.13671875 C22.65624955 3.13605908 21.24999923 3.13478024 19.84375 3.1328125 C17.94399414 3.13112061 17.94399414 3.13112061 16.00585938 3.12939453 C13 3 13 3 11 2 C10.01 2.33 9.02 2.66 8 3 C5.66700175 3.03954234 3.33291811 3.04401732 1 3 C0.67 2.01 0.34 1.02 0 0 Z " fill="#F8FAF6" transform="translate(228,236)"/>
<path d="M0 0 C4.06364356 0.00010338 8.12711923 -0.01377802 12.19072247 -0.03077221 C15.35544123 -0.04187309 18.52011826 -0.04392014 21.68485451 -0.04339027 C23.18512384 -0.0445644 24.68539447 -0.04895406 26.18564415 -0.05672264 C28.2656522 -0.06652543 30.34527873 -0.06364849 32.42529297 -0.05761719 C33.60310837 -0.05904221 34.78092377 -0.06046722 35.99443054 -0.06193542 C39.11148114 0.18387086 41.31950023 0.85541217 44.12963867 2.18530273 C44.12963867 2.51530273 44.12963867 2.84530273 44.12963867 3.18530273 C11.12963867 3.18530273 -21.87036133 3.18530273 -55.87036133 3.18530273 C-55.87036133 2.52530273 -55.87036133 1.86530273 -55.87036133 1.18530273 C-37.24352707 0.18741611 -18.64781111 -0.00260556 0 0 Z " fill="#F8FCF9" transform="translate(282.870361328125,44.814697265625)"/>
<path d="M0 0 C0.66 0 1.32 0 2 0 C2 22.11 2 44.22 2 67 C-1.96 67 -5.92 67 -10 67 C-10 66.67 -10 66.34 -10 66 C-6.7 66 -3.4 66 0 66 C-0.0721875 64.91074219 -0.144375 63.82148438 -0.21875 62.69921875 C-1.02965883 48.86326725 -1.11247201 35.04303319 -1.125 21.1875 C-1.12749756 20.20228363 -1.12999512 19.21706726 -1.13256836 18.20199585 C-1.13843951 15.37811737 -1.13697592 12.55434835 -1.1328125 9.73046875 C-1.13479645 8.86474243 -1.1367804 7.99901611 -1.13882446 7.10705566 C-1.11523643 1.11523643 -1.11523643 1.11523643 0 0 Z " fill="#243A51" transform="translate(439,167)"/>
<path d="M0 0 C0 0.99 0 1.98 0 3 C-30.36 3 -60.72 3 -92 3 C-92 2.34 -92 1.68 -92 1 C-80.89062155 0.86920371 -69.78123874 0.73878562 -58.6718502 0.60884857 C-53.51316486 0.54849998 -48.35448111 0.48802177 -43.19580078 0.42724609 C-38.21617609 0.3685847 -33.23654751 0.31026543 -28.25691605 0.25218201 C-26.35835248 0.22997691 -24.45979035 0.20764914 -22.56122971 0.18519592 C-19.8993847 0.15373684 -17.23753491 0.12271634 -14.57568359 0.09179688 C-13.79309174 0.08244614 -13.01049988 0.0730954 -12.20419312 0.0634613 C-8.13588221 0.01668849 -4.06857719 -0.00947341 0 0 Z " fill="#F8FDF9" transform="translate(503,45)"/>
<path d="M0 0 C0.33 0 0.66 0 1 0 C1.06942079 9.09228651 1.12277071 18.18448221 1.15543652 27.27697563 C1.17111216 31.49871028 1.19238472 35.72026402 1.22631836 39.94189453 C1.25884463 44.01378286 1.2768387 48.08549685 1.28463173 52.15750504 C1.29018741 53.71330639 1.30103596 55.26909788 1.31719017 56.82482529 C1.33887574 58.99915149 1.34197077 61.17275154 1.34057617 63.34716797 C1.34723801 64.58626923 1.35389984 65.82537048 1.36076355 67.10202026 C1.24171158 68.05835358 1.12265961 69.01468689 1 70 C-2 72 -2 72 -4.5625 71.5625 C-8.36664422 70.94000367 -11.45557659 71.29124425 -15.25390625 71.7421875 C-19.83202971 72.1719971 -24.40657251 72.07859477 -29 72 C-29.33 71.01 -29.66 70.02 -30 69 C-20.1 69 -10.2 69 0 69 C0 46.23 0 23.46 0 0 Z " fill="#D4DBDD" transform="translate(441,167)"/>
<path d="M0 0 C0.95527588 -0.00451172 1.91055176 -0.00902344 2.89477539 -0.01367188 C7.9187057 -0.00298171 12.64945184 0.37281747 17.625 1.125 C21.10129319 1.37843571 24.58050759 1.53458313 28.0625 1.6875 C28.98482422 1.73068359 29.90714844 1.77386719 30.85742188 1.81835938 C33.11316163 1.92354931 35.36899499 2.02569107 37.625 2.125 C37.625 2.455 37.625 2.785 37.625 3.125 C13.865 3.125 -9.895 3.125 -34.375 3.125 C-34.045 2.465 -33.715 1.805 -33.375 1.125 C-22.2494806 0.48203913 -11.14580194 0.02166863 0 0 Z " fill="#F9FDFA" transform="translate(105.375,161.875)"/>
<path d="M0 0 C0.66 0.33 1.32 0.66 2 1 C3.45116706 6.28462347 3.1839745 11.68867275 3.1875 17.125 C3.19974609 18.12660156 3.21199219 19.12820312 3.22460938 20.16015625 C3.22654297 21.12050781 3.22847656 22.08085938 3.23046875 23.0703125 C3.23457764 23.94445801 3.23868652 24.81860352 3.24291992 25.71923828 C3 28 3 28 1 31 C1 29.68 1 28.36 1 27 C0.34 27 -0.32 27 -1 27 C-1.02898816 23.06251542 -1.04679464 19.12505821 -1.0625 15.1875 C-1.07087891 14.06794922 -1.07925781 12.94839844 -1.08789062 11.79492188 C-1.09111328 10.72177734 -1.09433594 9.64863281 -1.09765625 8.54296875 C-1.10289307 7.55321045 -1.10812988 6.56345215 -1.11352539 5.54370117 C-1 3 -1 3 0 0 Z " fill="#293F55" transform="translate(556,89)"/>
<path d="M0 0 C12.21 0 24.42 0 37 0 C36 2 36 2 32.8125 3.1875 C29 4 29 4 26.44140625 3.5546875 C21.65877825 2.78382124 16.95998085 2.89491548 12.125 2.9375 C10.66320312 2.94426758 10.66320312 2.94426758 9.171875 2.95117188 C6.78118566 2.96289094 4.3906256 2.97929781 2 3 C2 2.34 2 1.68 2 1 C1.34 0.67 0.68 0.34 0 0 Z " fill="#F8FAF5" transform="translate(532,236)"/>
<path d="M0 0 C0.625 1.875 0.625 1.875 1 4 C-2.58375098 7.58375098 -7.77267037 7.06019426 -12.625 7.125 C-15.88245915 7.09734755 -18.80645627 6.63870875 -22 6 C-24.09821215 6.39938767 -24.09821215 6.39938767 -26 7 C-28.87137415 7 -31.2303041 6.72886734 -34 6 C-34.33 5.34 -34.66 4.68 -35 4 C-23.78 4 -12.56 4 -1 4 C-0.67 2.68 -0.34 1.36 0 0 Z " fill="#F9FBF6" transform="translate(208,232)"/>
<path d="M0 0 C10.56 0 21.12 0 32 0 C32 0.66 32 1.32 32 2 C31.36497559 1.99476318 30.72995117 1.98952637 30.07568359 1.98413086 C27.17546595 1.96323744 24.2752642 1.95030066 21.375 1.9375 C20.37597656 1.92912109 19.37695312 1.92074219 18.34765625 1.91210938 C11.10434277 1.80127365 11.10434277 1.80127365 4 3 C2.68931667 5.44288628 2.68931667 5.44288628 2 8 C1.01 8.495 1.01 8.495 0 9 C-1.125 3.375 -1.125 3.375 0 0 Z " fill="#1F364E" transform="translate(90,49)"/>
<path d="M0 0 C0.66 0 1.32 0 2 0 C1.22973983 3.71959834 -0.21983721 7.03541248 -1.72265625 10.515625 C-1.98759384 11.13145447 -2.25253143 11.74728394 -2.52549744 12.3817749 C-3.3683284 14.33908732 -4.21534857 16.29455422 -5.0625 18.25 C-5.63634553 19.58060939 -6.20991632 20.91133729 -6.78320312 22.2421875 C-8.18562233 25.49617058 -9.59180314 28.7485124 -11 32 C-12.24853799 28.25438602 -11.66665167 25.86657968 -11 22 C-10.87625 21.0925 -10.7525 20.185 -10.625 19.25 C-9.90965786 16.6747683 -9.114353 15.60690828 -7 14 C-6.34 14 -5.68 14 -5 14 C-4.24758891 10.34543185 -3.59950296 6.68266103 -3 3 C-2.34 3 -1.68 3 -1 3 C-0.67 2.01 -0.34 1.02 0 0 Z " fill="#E6EBE6" transform="translate(85,56)"/>
<path d="M0 0 C10.89 0 21.78 0 33 0 C30.23776722 2.76223278 27.79293383 2.57856291 24 3 C24 2.34 24 1.68 24 1 C23.01 1.66 22.02 2.32 21 3 C20.01 3 19.02 3 18 3 C17.67 3.66 17.34 4.32 17 5 C17 4.34 17 3.68 17 3 C16.1646875 3.01740234 16.1646875 3.01740234 15.3125 3.03515625 C10.10221657 3.09676433 5.1562049 2.74999344 0 2 C0 1.34 0 0.68 0 0 Z " fill="#F7F8F1" transform="translate(8,236)"/>
<path d="M0 0 C0.33 0 0.66 0 1 0 C0.67 2.31 0.34 4.62 0 7 C-10.89 7 -21.78 7 -33 7 C-33 6.34 -33 5.68 -33 5 C-22.44 4.67 -11.88 4.34 -1 4 C-0.67 2.68 -0.34 1.36 0 0 Z " fill="#3F4D5C" transform="translate(41,229)"/>
<path d="M0 0 C2 1.375 2 1.375 4 3 C4 3.66 4 4.32 4 5 C-7.88 5 -19.76 5 -32 5 C-32 4.34 -32 3.68 -32 3 C-21.44 2.67 -10.88 2.34 0 2 C0 1.34 0 0.68 0 0 Z " fill="#465461" transform="translate(564,231)"/>
<path d="M0 0 C1.3921875 0.2784375 1.3921875 0.2784375 2.8125 0.5625 C7.12723509 1.19779842 11.23264109 0.72991809 15.546875 0.25390625 C18 0 18 0 21 0 C21 0.99 21 1.98 21 3 C17.72373625 3.9821994 14.77211881 4.11580914 11.359375 4.09765625 C10.28945313 4.09443359 9.21953125 4.09121094 8.1171875 4.08789062 C7.00601562 4.07951172 5.89484375 4.07113281 4.75 4.0625 C3.06003906 4.05573242 3.06003906 4.05573242 1.3359375 4.04882812 C-1.44276217 4.03705397 -4.22135409 4.0206084 -7 4 C-7 3.67 -7 3.34 -7 3 C-5.5459375 2.814375 -5.5459375 2.814375 -4.0625 2.625 C-2.5465625 2.315625 -2.5465625 2.315625 -1 2 C-0.67 1.34 -0.34 0.68 0 0 Z " fill="#F0F3F0" transform="translate(306,121)"/>
<path d="M0 0 C5.44693314 -0.09688221 10.63904667 -0.12862175 16 1 C16 2.32 16 3.64 16 5 C4.615 4.505 4.615 4.505 -7 4 C-7 3.67 -7 3.34 -7 3 C-3.535 2.505 -3.535 2.505 0 2 C0 1.34 0 0.68 0 0 Z " fill="#253B52" transform="translate(783,68)"/>
<path d="M0 0 C0.66 0 1.32 0 2 0 C2 0.99 2 1.98 2 3 C2.66 3 3.32 3 4 3 C7.28571429 11.42857143 7.28571429 11.42857143 8 16 C8.66 16 9.32 16 10 16 C10 16.99 10 17.98 10 19 C10.66 19.33 11.32 19.66 12 20 C12 21.32 12 22.64 12 24 C9 23 9 23 7.83325195 21.09814453 C7.47191162 20.28458496 7.11057129 19.47102539 6.73828125 18.6328125 C6.34189453 17.74722656 5.94550781 16.86164063 5.53710938 15.94921875 C5.13298828 15.01722656 4.72886719 14.08523437 4.3125 13.125 C3.89677734 12.20074219 3.48105469 11.27648437 3.05273438 10.32421875 C0 3.41671798 0 3.41671798 0 0 Z " fill="#EDF1EF" transform="translate(173,157)"/>
<path d="M0 0 C1.16257324 0.0942627 2.32514648 0.18852539 3.52294922 0.28564453 C4.77978516 0.38232422 6.03662109 0.47900391 7.33154297 0.57861328 C8.66359367 0.69166555 9.9956247 0.80494982 11.32763672 0.91845703 C12.66740337 1.0249007 14.00724689 1.13038153 15.34716797 1.23486328 C18.63320488 1.49490937 21.9181297 1.76485199 25.20263672 2.04345703 C21.45031406 4.54500547 18.48314463 4.34601423 14.14013672 4.29345703 C13.38095947 4.28958984 12.62178223 4.28572266 11.83959961 4.28173828 C6.12879958 4.19418849 0.72521324 3.56318325 -4.79736328 2.04345703 C-2.79736328 0.04345703 -2.79736328 0.04345703 0 0 Z " fill="#DDE3E3" transform="translate(771.79736328125,206.95654296875)"/>
<path d="M0 0 C0.66 0 1.32 0 2 0 C3.4606285 2.64738916 4 3.89448334 4 7 C2.68 7 1.36 7 0 7 C-0.433125 8.19625 -0.86625 9.3925 -1.3125 10.625 C-2.6529584 14.21232201 -4.21821184 17.60611779 -6 21 C-6.66 21 -7.32 21 -8 21 C-5.72564796 13.81783567 -2.96415819 6.9241798 0 0 Z " fill="#E6EDED" transform="translate(106,81)"/>
<path d="M0 0 C0.66 0.33 1.32 0.66 2 1 C1.79375 1.7425 1.5875 2.485 1.375 3.25 C0.72992502 5.93682622 0.72992502 5.93682622 2 7.8125 C3.16056269 10.35123088 2.95884119 11.40932888 2.5625 14.125 C1.65461008 17.78510724 1.65461008 17.78510724 3 20 C1.35 20 -0.3 20 -2 20 C-1.85953745 17.04132082 -1.71287776 14.08317736 -1.5625 11.125 C-1.52318359 10.28324219 -1.48386719 9.44148438 -1.44335938 8.57421875 C-1.40146484 7.76855469 -1.35957031 6.96289062 -1.31640625 6.1328125 C-1.27974854 5.38918457 -1.24309082 4.64555664 -1.20532227 3.87939453 C-1 2 -1 2 0 0 Z " fill="#F6F7F0" transform="translate(260,105)"/>
<path d="M0 0 C0.33 0 0.66 0 1 0 C1.33 1.98 1.66 3.96 2 6 C2.66 5.67 3.32 5.34 4 5 C4.10867302 6.58179615 4.18589827 8.16577153 4.25 9.75 C4.29640625 10.63171875 4.3428125 11.5134375 4.390625 12.421875 C4 15 4 15 0 19 C0 12.73 0 6.46 0 0 Z " fill="#F5F7F1" transform="translate(382,173)"/>
<path d="M0 0 C1.12890625 1.75 1.12890625 1.75 2 4 C0.16184566 9.08721633 -3.60028084 12.98304972 -8 16 C-8.66 15.67 -9.32 15.34 -10 15 C-9.61328125 14.5875 -9.2265625 14.175 -8.828125 13.75 C-4.94262217 9.4413236 -2.40726392 5.2774632 0 0 Z " fill="#2D4052" transform="translate(528,117)"/>
<path d="M0 0 C-0.33 0.66 -0.66 1.32 -1 2 C-0.01 2.66 0.98 3.32 2 4 C-2.62 4 -7.24 4 -12 4 C-11.67 3.01 -11.34 2.02 -11 1 C-7.26562152 0.12132271 -3.83225427 -0.08912219 0 0 Z " fill="#273E55" transform="translate(766,47)"/>
<path d="M0 0 C2.31 0 4.62 0 7 0 C7 0.66 7 1.32 7 2 C7.66 2 8.32 2 9 2 C9 2.66 9 3.32 9 4 C8.34 4 7.68 4 7 4 C7.515625 4.78375 8.03125 5.5675 8.5625 6.375 C9.036875 7.24125 9.51125 8.1075 10 9 C9.67 9.66 9.34 10.32 9 11 C7.49703315 9.35687553 5.99769719 7.71042916 4.5 6.0625 C3.6646875 5.14597656 2.829375 4.22945313 1.96875 3.28515625 C0 1 0 1 0 0 Z " fill="#334352" transform="translate(334,79)"/>
<path d="M0 0 C5.7916837 0.40643394 11.36096301 1.65550739 17 3 C17 3.99 17 4.98 17 6 C10.73 4.68 4.46 3.36 -2 2 C-1.34 1.34 -0.68 0.68 0 0 Z " fill="#DFE6E6" transform="translate(327,47)"/>
<path d="M0 0 C2.36919168 1.18459584 4.72212669 2.38316927 7.0625 3.625 C9.91228133 5.21197005 9.91228133 5.21197005 13 5 C13 5.99 13 6.98 13 8 C13.66 8 14.32 8 15 8 C15 8.66 15 9.32 15 10 C15.66 10.33 16.32 10.66 17 11 C12.50126516 10.46639094 9.84959851 8.75247024 6.25 6.0625 C5.28578125 5.35222656 4.3215625 4.64195312 3.328125 3.91015625 C1 2 1 2 0 0 Z " fill="#293C4F" transform="translate(722,217)"/>
<path d="M0 0 C0.66 0 1.32 0 2 0 C1.23757784 3.61055091 -0.12473374 6.85834625 -1.5625 10.25 C-2.01753906 11.32765625 -2.47257812 12.4053125 -2.94140625 13.515625 C-3.29074219 14.33546875 -3.64007813 15.1553125 -4 16 C-4.33 16 -4.66 16 -5 16 C-5.25 10.375 -5.25 10.375 -3 7 C-3 5.68 -3 4.36 -3 3 C-2.34 3 -1.68 3 -1 3 C-0.67 2.01 -0.34 1.02 0 0 Z " fill="#EBEFEE" transform="translate(85,56)"/>
<path d="M0 0 C0 0.33 0 0.66 0 1 C4.29 1.33 8.58 1.66 13 2 C13 2.33 13 2.66 13 3 C6.4 3 -0.2 3 -7 3 C-7 2.01 -7 1.02 -7 0 C-4.3333581 -1.33332095 -2.83319697 -0.67102033 0 0 Z " fill="#C1C7C5" transform="translate(779,42)"/>
<path d="M0 0 C5.94 0 11.88 0 18 0 C12.26221159 3.82519227 6.49260107 3.02514754 0 2 C0 1.34 0 0.68 0 0 Z " fill="#FBFDFA" transform="translate(8,236)"/>
<path d="M0 0 C2.8358562 2.46886304 4.19600752 5.0994988 5.75 8.5 C6.42289063 9.93859375 6.42289063 9.93859375 7.109375 11.40625 C8 14 8 14 7 17 C6.34 15.35 5.68 13.7 5 12 C4.34 12 3.68 12 3 12 C2.67 12.66 2.34 13.32 2 14 C2.19464844 13.44828125 2.38929688 12.8965625 2.58984375 12.328125 C3.10811104 9.38634114 2.49113726 7.57305727 1.5625 4.75 C1.27503906 3.85796875 0.98757812 2.9659375 0.69140625 2.046875 C0.46324219 1.37140625 0.23507813 0.6959375 0 0 Z " fill="#2A3D4F" transform="translate(178,173)"/>
<path d="M0 0 C0.99 0.33 1.98 0.66 3 1 C2.06725891 2.12894876 1.12859878 3.25300876 0.1875 4.375 C-0.33457031 5.00148437 -0.85664062 5.62796875 -1.39453125 6.2734375 C-3 8 -3 8 -6 10 C-6 8.35 -6 6.7 -6 5 C-4.68 4.67 -3.36 4.34 -2 4 C-2 3.01 -2 2.02 -2 1 C-1.34 0.67 -0.68 0.34 0 0 Z " fill="#3D5163" transform="translate(857,206)"/>
<path d="M0 0 C0.71484375 1.578125 0.71484375 1.578125 1 4 C-0.05709499 6.38494456 -1.1317889 8.51234067 -2.4375 10.75 C-2.77587891 11.35199219 -3.11425781 11.95398438 -3.46289062 12.57421875 C-4.29768265 14.05568065 -5.14741494 15.52870608 -6 17 C-7.13583456 13.28272326 -6.66670026 11.52948291 -5 8 C-4.34 8 -3.68 8 -3 8 C-3 6.68 -3 5.36 -3 4 C-2.34 4 -1.68 4 -1 4 C-0.67 2.68 -0.34 1.36 0 0 Z " fill="#E1E7E6" transform="translate(703,83)"/>
<path d="M0 0 C3.3 0.33 6.6 0.66 10 1 C10 1.33 10 1.66 10 2 C8.576875 2.0928125 8.576875 2.0928125 7.125 2.1875 C5.578125 2.5896875 5.578125 2.5896875 4 3 C2.68931667 5.44288628 2.68931667 5.44288628 2 8 C1.01 8.495 1.01 8.495 0 9 C-1.125 3.375 -1.125 3.375 0 0 Z " fill="#283D54" transform="translate(90,49)"/>
<path d="M0 0 C0.33 0 0.66 0 1 0 C1 4.62 1 9.24 1 14 C0.67 14 0.34 14 0 14 C0 12.35 0 10.7 0 9 C-0.66 9 -1.32 9 -2 9 C-2.33 9.66 -2.66 10.32 -3 11 C-3 8.36 -3 5.72 -3 3 C-2.34 3 -1.68 3 -1 3 C-0.67 2.01 -0.34 1.02 0 0 Z " fill="#233952" transform="translate(717,135)"/>
<path d="M0 0 C0.33 0 0.66 0 1 0 C1.28571429 7.42857143 1.28571429 7.42857143 -1 11 C-1.66 10.67 -2.32 10.34 -3 10 C-3.33 10.66 -3.66 11.32 -4 12 C-3.45660208 7.43545749 -2.20536179 4.0271824 0 0 Z " fill="#283C50" transform="translate(80,73)"/>
<path d="M0 0 C0.33 0 0.66 0 1 0 C1.63934602 5.11476819 -0.59466453 8.67254378 -3 13 C-3.66 13 -4.32 13 -5 13 C-4.39254603 8.14036821 -2.27241033 4.2594482 0 0 Z " fill="#2F4153" transform="translate(32,182)"/>
<path d="M0 0 C0.99 0 1.98 0 3 0 C3 0.66 3 1.32 3 2 C1.09118566 3.03544174 -0.82739204 4.05290085 -2.75 5.0625 C-3.81734375 5.63097656 -4.8846875 6.19945312 -5.984375 6.78515625 C-9.02593537 8.01044806 -10.04893565 8.25348607 -13 7 C-12.21625 6.71125 -11.4325 6.4225 -10.625 6.125 C-7.90328368 5.15087746 -7.90328368 5.15087746 -6 3 C-5.01 3.33 -4.02 3.66 -3 4 C-3 3.34 -3 2.68 -3 2 C-2.01 2 -1.02 2 0 2 C0 1.34 0 0.68 0 0 Z " fill="#334455" transform="translate(533,153)"/>
<path d="M0 0 C-0.99 0.495 -0.99 0.495 -2 1 C-2 1.66 -2 2.32 -2 3 C-6.62 3 -11.24 3 -16 3 C-13.65637178 0.65637178 -12.88875552 0.66553411 -9.6875 0.375 C-8.88828125 0.30152344 -8.0890625 0.22804687 -7.265625 0.15234375 C-4.83668345 -0.01098163 -2.43364261 -0.0785046 0 0 Z " fill="#E8E9DE" transform="translate(323,152)"/>
<path d="M0 0 C0 3.63305246 -1.22741623 4.89727521 -3.5546875 7.5703125 C-5.48602174 9.48076745 -7.59335011 10.76229434 -10 12 C-8.65263662 9.06559801 -7.11433035 6.74926573 -5 4.3125 C-4.484375 3.71050781 -3.96875 3.10851562 -3.4375 2.48828125 C-2 1 -2 1 0 0 Z " fill="#F1F4F1" transform="translate(370,121)"/>
<path d="M0 0 C0.66 0 1.32 0 2 0 C3.01202288 7.17757765 2.88826175 13.81191259 2 21 C1.67 21 1.34 21 1 21 C0.67 14.07 0.34 7.14 0 0 Z " fill="#F5F9F8" transform="translate(559,93)"/>
<path d="M0 0 C0.33 0.66 0.66 1.32 1 2 C3.57951874 2.69093896 3.57951874 2.69093896 6.5625 3.125 C7.57441406 3.29257813 8.58632813 3.46015625 9.62890625 3.6328125 C10.80259766 3.81457031 10.80259766 3.81457031 12 4 C12 4.66 12 5.32 12 6 C6.49191603 5.40984815 1.35121931 4.43336231 -4 3 C-2.68 2.01 -1.36 1.02 0 0 Z " fill="#425261" transform="translate(756,232)"/>
<path d="M0 0 C0.33 0.99 0.66 1.98 1 3 C0.01 3.33 -0.98 3.66 -2 4 C-2.70151152 5.3153341 -3.36525925 6.65117592 -4 8 C-5.5 9.75 -5.5 9.75 -7 11 C-7.66 11 -8.32 11 -9 11 C-8.46324097 7.14896699 -6.88399077 5.68202413 -3.9375 3.25 C-3.20402344 2.63640625 -2.47054687 2.0228125 -1.71484375 1.390625 C-1.14894531 0.93171875 -0.58304688 0.4728125 0 0 Z " fill="#EEF3F1" transform="translate(545,146)"/>
<path d="M0 0 C1 3 1 3 0.0390625 5.04296875 C-0.42757812 5.75066406 -0.89421875 6.45835937 -1.375 7.1875 C-1.83648438 7.90292969 -2.29796875 8.61835938 -2.7734375 9.35546875 C-3.17820312 9.89816406 -3.58296875 10.44085938 -4 11 C-4.33 11 -4.66 11 -5 11 C-5 8.36 -5 5.72 -5 3 C-4.34 2.67 -3.68 2.34 -3 2 C-3 2.66 -3 3.32 -3 4 C-2.34 4 -1.68 4 -1 4 C-0.67 2.68 -0.34 1.36 0 0 Z " fill="#2C3F52" transform="translate(554,129)"/>
<path d="M0 0 C0.66 0.33 1.32 0.66 2 1 C1.91291331 2.45945288 1.80473093 3.91765868 1.6875 5.375 C1.62949219 6.18710938 1.57148437 6.99921875 1.51171875 7.8359375 C1 10 1 10 -2 12 C-2.05422947 10.5629191 -2.09289723 9.12524538 -2.125 7.6875 C-2.14820313 6.88699219 -2.17140625 6.08648437 -2.1953125 5.26171875 C-2 3 -2 3 0 0 Z " fill="#E5E8DF" transform="translate(688,120)"/>
<path d="M0 0 C4 4 4 4 4.171875 7.234375 C3.96304687 8.97460938 3.96304687 8.97460938 3.75 10.75 C3.62109375 11.92046875 3.4921875 13.0909375 3.359375 14.296875 C3.24078125 15.18890625 3.1221875 16.0809375 3 17 C2.67 17 2.34 17 2 17 C1.34 11.39 0.68 5.78 0 0 Z " fill="#F2F6F1" transform="translate(374,83)"/>
<path d="M0 0 C0.33 0 0.66 0 1 0 C0.64989059 9.17286652 0.64989059 9.17286652 -2.0625 12.625 C-2.701875 13.07875 -3.34125 13.5325 -4 14 C-3.46148032 8.72250715 -2.22656164 4.74354436 0 0 Z " fill="#E8EBEA" transform="translate(46,222)"/>
<path d="M0 0 C2.55227651 3.07150755 3.88776704 5.98525624 5.1875 9.75 C5.53167969 10.73484375 5.87585938 11.7196875 6.23046875 12.734375 C6.61138672 13.85585937 6.61138672 13.85585937 7 15 C6.01 15 5.02 15 4 15 C3.80664062 14.38511719 3.61328125 13.77023438 3.4140625 13.13671875 C3.15367187 12.32847656 2.89328125 11.52023438 2.625 10.6875 C2.36976563 9.88699219 2.11453125 9.08648437 1.8515625 8.26171875 C1.01168189 5.77275472 1.01168189 5.77275472 -1 3 C-0.67 2.01 -0.34 1.02 0 0 Z " fill="#E4EAEA" transform="translate(162,209)"/>
<path d="M0 0 C0.66 0.66 1.32 1.32 2 2 C-4.46738512 4.99415978 -9.00727785 5.18933594 -16 4 C-16 3.67 -16 3.34 -16 3 C-12.04 3 -8.08 3 -4 3 C-3.67 2.34 -3.34 1.68 -3 1 C-2.01 0.67 -1.02 0.34 0 0 Z " fill="#EAEFEB" transform="translate(333,203)"/>
<path d="M0 0 C0.66 0.33 1.32 0.66 2 1 C1.67 1.99 1.34 2.98 1 4 C1.33 4.99 1.66 5.98 2 7 C-2.75 6.125 -2.75 6.125 -5 5 C-4 2 -4 2 -2.0625 0.75 C-1.381875 0.5025 -0.70125 0.255 0 0 Z " fill="#EFF4F2" transform="translate(357,133)"/>
<path d="M0 0 C1.125 1.6875 1.125 1.6875 2 4 C1.375 6.6875 1.375 6.6875 0 9 C-2.125 9.8125 -2.125 9.8125 -4 10 C-3.43454163 6.04179141 -2.19097652 3.3340947 0 0 Z " fill="#24394D" transform="translate(701,91)"/>
<path d="M0 0 C0.66 0 1.32 0 2 0 C2.33 0.99 2.66 1.98 3 3 C2.52949219 3.39832031 2.05898438 3.79664063 1.57421875 4.20703125 C-0.31760553 6.3617393 -0.66060789 7.89091882 -1.1875 10.6875 C-1.42533203 11.89986328 -1.42533203 11.89986328 -1.66796875 13.13671875 C-1.77753906 13.75160156 -1.88710937 14.36648437 -2 15 C-2.66 14.34 -3.32 13.68 -4 13 C-3.10242956 8.43735029 -1.86683192 4.26704438 0 0 Z " fill="#2C3F52" transform="translate(17,214)"/>
<path d="M0 0 C0.66 0 1.32 0 2 0 C1.55005243 1.79379098 1.08975857 3.58498928 0.625 5.375 C0.36976562 6.37273437 0.11453125 7.37046875 -0.1484375 8.3984375 C-1 11 -1 11 -3 13 C-3.31563182 7.73946963 -2.66590937 4.55426184 0 0 Z " fill="#F2F5F3" transform="translate(50,214)"/>
<path d="M0 0 C0.5775 0.639375 1.155 1.27875 1.75 1.9375 C3.98062401 3.98223868 5.07436391 4.58205199 8 5 C8 6.98 8 8.96 8 11 C2.19794344 5.35475578 2.19794344 5.35475578 0 2 C0 1.34 0 0.68 0 0 Z " fill="#283B4E" transform="translate(507,200)"/>
<path d="M0 0 C0.66 0.33 1.32 0.66 2 1 C0.16508812 5.74018901 -1.91941459 10.36413251 -4 15 C-4.66 15 -5.32 15 -6 15 C-4.40109514 9.80355921 -2.25861997 4.93387858 0 0 Z " fill="#354757" transform="translate(49,142)"/>
<path d="M0 0 C0.99 0 1.98 0 3 0 C3 0.99 3 1.98 3 3 C-1.8333472 3.08333357 -6.23692563 2.95261487 -11 2 C-11 1.67 -11 1.34 -11 1 C-7.25854164 0.11965686 -3.83821427 -0.08343944 0 0 Z " fill="#F8F9F3" transform="translate(324,121)"/>
<path d="M0 0 C0.33 0 0.66 0 1 0 C1 4.62 1 9.24 1 14 C0.01 14.495 0.01 14.495 -1 15 C-2.33808088 10.98575735 -2.19932094 7.18573976 -2 3 C-1.34 2.01 -0.68 1.02 0 0 Z " fill="#E6E8E1" transform="translate(377,91)"/>
<path d="M0 0 C2.64 0 5.28 0 8 0 C7.34 2.64 6.68 5.28 6 8 C5.34 7.67 4.68 7.34 4 7 C3.375 3.9375 3.375 3.9375 3 1 C2.01 1.33 1.02 1.66 0 2 C0 1.34 0 0.68 0 0 Z " fill="#ECEADC" transform="translate(788,158)"/>
<path d="M0 0 C0.99 0 1.98 0 3 0 C2.17812739 4.38332057 1.09845718 8.67940177 0 13 C-0.66 13 -1.32 13 -2 13 C-1.85769192 11.58297487 -1.71099254 10.1663904 -1.5625 8.75 C-1.48128906 7.96109375 -1.40007813 7.1721875 -1.31640625 6.359375 C-1.02365007 4.17635361 -0.57935581 2.1226818 0 0 Z " fill="#415464" transform="translate(692,110)"/>
<path d="M0 0 C1.32 0.33 2.64 0.66 4 1 C4.144375 1.9075 4.28875 2.815 4.4375 3.75 C4.86409473 6.21476956 5.35074221 8.58847107 6 11 C5.01 10.67 4.02 10.34 3 10 C2.05078125 7.71484375 2.05078125 7.71484375 1.3125 4.9375 C1.06113281 4.01839844 0.80976562 3.09929687 0.55078125 2.15234375 C0.36902344 1.44207031 0.18726562 0.73179688 0 0 Z " fill="#273A4F" transform="translate(111,87)"/>
<path d="M0 0 C2.66246807 1.33123403 2.94601652 2.6764378 4.125 5.375 C4.47820312 6.16648437 4.83140625 6.95796875 5.1953125 7.7734375 C6 10 6 10 6 13 C5.34 13 4.68 13 4 13 C3.01 10.36 2.02 7.72 1 5 C0.01 5 -0.98 5 -2 5 C-1.125 1.125 -1.125 1.125 0 0 Z " fill="#2F4153" transform="translate(135,76)"/>
<path d="M0 0 C3.3 0.33 6.6 0.66 10 1 C10 1.66 10 2.32 10 3 C3.375 4.25 3.375 4.25 0 2 C0 1.34 0 0.68 0 0 Z " fill="#263B52" transform="translate(817,78)"/>
<path d="M0 0 C0.99 0.33 1.98 0.66 3 1 C2.54917531 2.46067199 2.08906463 3.91848032 1.625 5.375 C1.36976562 6.18710938 1.11453125 6.99921875 0.8515625 7.8359375 C0 10 0 10 -2 12 C-2.21278058 7.53160785 -1.59138085 4.17737474 0 0 Z " fill="#273C4E" transform="translate(51,202)"/>
<path d="M0 0 C-1.44253657 3.36591866 -3.33264727 5.51047079 -6 8 C-6.66 7.01 -7.32 6.02 -8 5 C-3.375 0 -3.375 0 0 0 Z " fill="#E2E5E0" transform="translate(846,87)"/>
<path d="M0 0 C0.66 0 1.32 0 2 0 C2.66 3.63 3.32 7.26 4 11 C0.14285714 7.14285714 0.14285714 7.14285714 -1 4 C-0.625 1.75 -0.625 1.75 0 0 Z " fill="#EEF2EF" transform="translate(139,78)"/>
<path d="M0 0 C0.66 0 1.32 0 2 0 C1 3 1 3 -0.84765625 4.16796875 C-1.57855469 4.50441406 -2.30945313 4.84085937 -3.0625 5.1875 C-3.79597656 5.53167969 -4.52945312 5.87585938 -5.28515625 6.23046875 C-6.13400391 6.61138672 -6.13400391 6.61138672 -7 7 C-7.33 6.01 -7.66 5.02 -8 4 C-4.91190305 2.23537317 -3.76687864 2 0 2 C0 1.34 0 0.68 0 0 Z " fill="#E8ECEC" transform="translate(335,117)"/>
<path d="M0 0 C1.18771723 3.42943519 0.80226223 5.37784675 -0.4375 8.75 C-0.86869141 9.94882813 -0.86869141 9.94882813 -1.30859375 11.171875 C-1.65083984 12.07679687 -1.65083984 12.07679687 -2 13 C-2.33 13 -2.66 13 -3 13 C-3.27429625 7.60550707 -3.36055646 4.48074195 0 0 Z " fill="#F5F8F6" transform="translate(693,103)"/>
<path d="M0 0 C5.94 0.99 5.94 0.99 12 2 C12 2.99 12 3.98 12 5 C10.18504338 4.55149342 8.37306866 4.09090429 6.5625 3.625 C5.55316406 3.36976562 4.54382813 3.11453125 3.50390625 2.8515625 C1 2 1 2 0 0 Z " fill="#DAE1DF" transform="translate(814,47)"/>
<path d="M0 0 C2.97 0.33 5.94 0.66 9 1 C6 4 6 4 3.95703125 4.07421875 C0.97851562 3.53710938 0.97851562 3.53710938 -2 3 C-1.34 2.67 -0.68 2.34 0 2 C0 1.34 0 0.68 0 0 Z " fill="#384D62" transform="translate(803,46)"/>
<path d="M0 0 C3.00617269 3.00617269 2.59585316 5.82381598 3 10 C2.01 10 1.02 10 0 10 C-1.125 3.375 -1.125 3.375 0 0 Z " fill="#E7E9E5" transform="translate(381,165)"/>
<path d="M0 0 C3.63 0 7.26 0 11 0 C7.09987886 2.92509086 5.61691161 3.47535095 1 4 C0.67 2.68 0.34 1.36 0 0 Z " fill="#283B4D" transform="translate(754,74)"/>
<path d="M0 0 C7.48291572 6.15034169 7.48291572 6.15034169 10 10 C7.525 9.01 7.525 9.01 5 8 C5 7.34 5 6.68 5 6 C4.360625 5.7525 3.72125 5.505 3.0625 5.25 C1 4 1 4 0.37109375 1.921875 C0.24863281 1.28765625 0.12617187 0.6534375 0 0 Z " fill="#F1F6F7" transform="translate(710,207)"/>
<path d="M0 0 C0.66 1.32 1.32 2.64 2 4 C0.66666667 6 -0.66666667 8 -2 10 C-2.66 10 -3.32 10 -4 10 C-3.29445932 6.33118845 -1.72264494 3.29549466 0 0 Z " fill="#364A5F" transform="translate(555,123)"/>
<path d="M0 0 C1.26026798 2.52053595 0.91874445 3.8542098 0.5625 6.625 C0.40974609 7.85089844 0.40974609 7.85089844 0.25390625 9.1015625 C0.17011719 9.72804688 0.08632813 10.35453125 0 11 C-0.99 10.34 -1.98 9.68 -3 9 C-2.5020163 5.26512223 -2.12508244 3.18762365 0 0 Z " fill="#253A50" transform="translate(63,112)"/>
<path d="M0 0 C1.32 0 2.64 0 4 0 C3.67 1.32 3.34 2.64 3 4 C0.36 4 -2.28 4 -5 4 C-5 3.34 -5 2.68 -5 2 C-3.35 1.67 -1.7 1.34 0 1 C0 0.67 0 0.34 0 0 Z " fill="#F8F8EF" transform="translate(324,77)"/>
<path d="M0 0 C0.66 0.33 1.32 0.66 2 1 C1.8125 2.875 1.8125 2.875 1 5 C-1.5625 6.25 -1.5625 6.25 -4 7 C-4.66 6.34 -5.32 5.68 -6 5 C-5.38125 4.731875 -4.7625 4.46375 -4.125 4.1875 C-1.7004767 3.04443152 -1.7004767 3.04443152 0 0 Z " fill="#2A3D52" transform="translate(837,221)"/>
<path d="M0 0 C2.63249349 2.45699392 4.78137264 4.56568654 6 8 C5.67 8.99 5.34 9.98 5 11 C4.67 9.68 4.34 8.36 4 7 C3.34 7 2.68 7 2 7 C1.67 7.66 1.34 8.32 1 9 C1.020625 8.071875 1.04125 7.14375 1.0625 6.1875 C1.15769604 2.97713989 1.15769604 2.97713989 0 0 Z " fill="#293B4D" transform="translate(372,154)"/>
<path d="M0 0 C2.26440734 4.52881469 2.090125 6.18528124 1 11 C0.01 11.495 0.01 11.495 -1 12 C-0.67 8.04 -0.34 4.08 0 0 Z " fill="#E1E6E6" transform="translate(720,124)"/>
<path d="M0 0 C0 3.99191204 -1.25498212 5.18079244 -4 8 C-6.75 8.8125 -6.75 8.8125 -9 9 C-6 6 -3 3 0 0 Z " fill="#2D3F4F" transform="translate(341,114)"/>
<path d="M0 0 C0.99 1.32 1.98 2.64 3 4 C2.01 5.485 2.01 5.485 1 7 C0.34 7 -0.32 7 -1 7 C-1.33 7.99 -1.66 8.98 -2 10 C-2.66 9.67 -3.32 9.34 -4 9 C-2.68 6.03 -1.36 3.06 0 0 Z " fill="#E2E7E6" transform="translate(372,112)"/>
<path d="M0 0 C0.33 0.99 0.66 1.98 1 3 C-1.64 5.31 -4.28 7.62 -7 10 C-7 7 -7 7 -5.46875 5.17578125 C-4.8190625 4.56089844 -4.169375 3.94601563 -3.5 3.3125 C-2.8503125 2.68988281 -2.200625 2.06726563 -1.53125 1.42578125 C-0.77328125 0.72001953 -0.77328125 0.72001953 0 0 Z " fill="#F5F9F6" transform="translate(856,74)"/>
<path d="M0 0 C0.66 0 1.32 0 2 0 C4.09350689 3.4019487 4.17942163 6.05272412 4 10 C1.2027092 7.93243723 0.97307727 6.85559629 0.3125 3.3125 C0.209375 2.219375 0.10625 1.12625 0 0 Z " fill="#F3F6F3" transform="translate(127,52)"/>
<path d="M0 0 C2.46751239 3.70126859 2.30721156 5.62223532 2 10 C0.984375 12.22265625 0.984375 12.22265625 0 14 C-0.19456705 12.04235617 -0.38044247 10.08384679 -0.5625 8.125 C-0.66691406 7.03445312 -0.77132813 5.94390625 -0.87890625 4.8203125 C-1 2 -1 2 0 0 Z " fill="#414F60" transform="translate(351,170)"/>
<path d="M0 0 C0.66 0 1.32 0 2 0 C1.44271087 3.34373475 0.64826111 6.03312999 -1 9 C-1.66 9 -2.32 9 -3 9 C-2.01 6.03 -1.02 3.06 0 0 Z " fill="#F4F7F5" transform="translate(35,168)"/>
<path d="M0 0 C0.99 0.33 1.98 0.66 3 1 C0.69 3.31 -1.62 5.62 -4 8 C-4.33 7.01 -4.66 6.02 -5 5 C-3.35 3.35 -1.7 1.7 0 0 Z " fill="#F6FAF7" transform="translate(741,88)"/>
<path d="M0 0 C0.99 0.33 1.98 0.66 3 1 C0.03 3.475 0.03 3.475 -3 6 C-3.99 5.34 -4.98 4.68 -6 4 C-3.1875 1.9375 -3.1875 1.9375 0 0 Z " fill="#E7EBE8" transform="translate(366,220)"/>
<path d="M0 0 C2.97 0 5.94 0 9 0 C9.33 0.66 9.66 1.32 10 2 C6.33694766 2.74926071 3.57644848 3.2380014 0 2 C0 1.34 0 0.68 0 0 Z " fill="#FAF7E9" transform="translate(310,155)"/>
<path d="M0 0 C1.65 0.33 3.3 0.66 5 1 C5.33 1.99 5.66 2.98 6 4 C3.36 3.67 0.72 3.34 -2 3 C-1.34 2.01 -0.68 1.02 0 0 Z " fill="#293E52" transform="translate(826,53)"/>
<path d="M0 0 C0 0.99 0 1.98 0 3 C-3.375 3.125 -3.375 3.125 -7 3 C-7.66 2.34 -8.32 1.68 -9 1 C-5.94152152 0.45627049 -3.11227195 0 0 0 Z " fill="#E2E7E4" transform="translate(336,234)"/>
<path d="M0 0 C0.99 0.99 1.98 1.98 3 3 C2.75546876 6.34192692 2.39456443 7.60543557 0 10 C0 6.7 0 3.4 0 0 Z " fill="#E9E8DD" transform="translate(862,187)"/>
<path d="M0 0 C0.66 0.66 1.32 1.32 2 2 C1.6730244 4.61580479 1.17960932 6.64078137 0 9 C-0.66 9 -1.32 9 -2 9 C-1.41196203 5.97580475 -0.77321882 2.98241547 0 0 Z " fill="#E7EBE9" transform="translate(61,108)"/>
<path d="M0 0 C1.98 0.99 1.98 0.99 4 2 C3.34 3.98 2.68 5.96 2 8 C0 6 0 6 -0.125 2.875 C-0.08375 1.92625 -0.0425 0.9775 0 0 Z " fill="#273C51" transform="translate(92,103)"/>
<path d="M0 0 C0.66 0 1.32 0 2 0 C1.30058404 3.14737182 0.23921302 6.02588876 -1 9 C-1.66 9 -2.32 9 -3 9 C-2.01 6.03 -1.02 3.06 0 0 Z " fill="#E1E7E7" transform="translate(101,93)"/>
<path d="M0 0 C0.99 0 1.98 0 3 0 C1.55746343 3.36591866 -0.33264727 5.51047079 -3 8 C-2.45276317 4.62537285 -1.9451 2.91765 0 0 Z " fill="#2A3E4F" transform="translate(706,82)"/>
<path d="M0 0 C2.31 0 4.62 0 7 0 C7 0.66 7 1.32 7 2 C7.66 2 8.32 2 9 2 C9 2.66 9 3.32 9 4 C5.625 3.6875 5.625 3.6875 2 3 C1.34 2.01 0.68 1.02 0 0 Z " fill="#293E55" transform="translate(334,79)"/>
<path d="M0 0 C3.3 0.99 6.6 1.98 10 3 C10 3.33 10 3.66 10 4 C7.36 4.33 4.72 4.66 2 5 C1.34 3.35 0.68 1.7 0 0 Z " fill="#293B4E" transform="translate(529,230)"/>
<path d="M0 0 C0.99 0.66 1.98 1.32 3 2 C1.02 3.32 -0.96 4.64 -3 6 C-3.33 5.01 -3.66 4.02 -4 3 C-2.68 2.01 -1.36 1.02 0 0 Z " fill="#E6E9E3" transform="translate(845,220)"/>
<path d="M0 0 C2.09749995 2.35968744 2.96905704 3.54616994 3.1875 6.75 C3.125625 7.4925 3.06375 8.235 3 9 C0.11749016 6.61879622 -0.61038985 4.70129644 -1 1 C-0.67 0.67 -0.34 0.34 0 0 Z " fill="#293C4F" transform="translate(162,203)"/>
<path d="M0 0 C0.66 0 1.32 0 2 0 C2.268125 0.61875 2.53625 1.2375 2.8125 1.875 C3.95556848 4.2995233 3.95556848 4.2995233 7 6 C6.67 6.99 6.34 7.98 6 9 C2.91910327 6.22719294 1.31224548 3.93673644 0 0 Z " fill="#EBF0F0" transform="translate(544,202)"/>
<path d="M0 0 C0.33 0 0.66 0 1 0 C0.25 7.75 0.25 7.75 -2 10 C-1.85950482 8.52031676 -1.71245174 7.04125484 -1.5625 5.5625 C-1.48128906 4.73878906 -1.40007812 3.91507813 -1.31640625 3.06640625 C-1 1 -1 1 0 0 Z " fill="#F0F3F1" transform="translate(380,198)"/>
<path d="M0 0 C0.66 0.33 1.32 0.66 2 1 C0.37660195 2.70884005 -1.29319053 4.37446717 -3 6 C-3.66 6 -4.32 6 -5 6 C-4.75 4.125 -4.75 4.125 -4 2 C-2.0625 0.6875 -2.0625 0.6875 0 0 Z " fill="#273C50" transform="translate(822,201)"/>
<path d="M0 0 C0.99 0.33 1.98 0.66 3 1 C0.03 3.475 0.03 3.475 -3 6 C-3.66 5.67 -4.32 5.34 -5 5 C-3.35 3.35 -1.7 1.7 0 0 Z " fill="#334658" transform="translate(523,127)"/>
<path d="M0 0 C0.66 0.99 1.32 1.98 2 3 C1.01 4.98 0.02 6.96 -1 9 C-1.66 9 -2.32 9 -3 9 C-2.01 6.03 -1.02 3.06 0 0 Z " fill="#E5EAEB" transform="translate(91,117)"/>
<path d="M0 0 C0.66 0 1.32 0 2 0 C2.33 1.98 2.66 3.96 3 6 C2.01 6.66 1.02 7.32 0 8 C0 5.36 0 2.72 0 0 Z " fill="#F0F4F1" transform="translate(115,101)"/>
<path d="M0 0 C0.66 0.33 1.32 0.66 2 1 C0.25 4.875 0.25 4.875 -2 6 C-2 5.34 -2 4.68 -2 4 C-2.66 4 -3.32 4 -4 4 C-4 3.34 -4 2.68 -4 2 C-2.125 0.9375 -2.125 0.9375 0 0 Z " fill="#F5F8F4" transform="translate(711,72)"/>
<path d="M0 0 C0.66 0 1.32 0 2 0 C2.99 2.64 3.98 5.28 5 8 C4.34 8 3.68 8 3 8 C2.34 7.34 1.68 6.68 1 6 C0.67 6 0.34 6 0 6 C0 4.02 0 2.04 0 0 Z " fill="#35475B" transform="translate(127,59)"/>
<path d="M0 0 C0.99 0 1.98 0 3 0 C2.67 0.99 2.34 1.98 2 3 C-1.63 3 -5.26 3 -9 3 C-9 2.67 -9 2.34 -9 2 C-6.94921875 1.77213542 -4.8984375 1.54427083 -2.84765625 1.31640625 C-0.98859771 1.18113386 -0.98859771 1.18113386 0 0 Z " fill="#233C57" transform="translate(810,48)"/>
<path d="M0 0 C1.98 0.495 1.98 0.495 4 1 C4 1.99 4 2.98 4 4 C2.35 3.67 0.7 3.34 -1 3 C-0.67 2.01 -0.34 1.02 0 0 Z " fill="#263C51" transform="translate(811,206)"/>
<path d="M0 0 C2.45484649 2.13464912 3.68134222 3.70720291 4 7 C3.34 7.66 2.68 8.32 2 9 C0.50178941 5.62902617 0 3.79557881 0 0 Z " fill="#E5EBEA" transform="translate(158,201)"/>
<path d="M0 0 C1.0625 1.8125 1.0625 1.8125 2 4 C1.67 4.99 1.34 5.98 1 7 C0.01 6.67 -0.98 6.34 -2 6 C-2 3 -2 3 0 0 Z " fill="#E6EBE8" transform="translate(550,139)"/>
<path d="M0 0 C0.66 0.99 1.32 1.98 2 3 C0.625 6.6875 0.625 6.6875 -1 10 C-1.66 9.67 -2.32 9.34 -3 9 C-2.01 6.03 -1.02 3.06 0 0 Z " fill="#E2E8E8" transform="translate(87,126)"/>
<path d="M0 0 C0.99 0.99 1.98 1.98 3 3 C2.67 3.99 2.34 4.98 2 6 C1.01 5.67 0.02 5.34 -1 5 C-0.67 3.35 -0.34 1.7 0 0 Z " fill="#294055" transform="translate(146,101)"/>
<path d="M0 0 C0.99 0 1.98 0 3 0 C3.66 2.31 4.32 4.62 5 7 C4.01 6.67 3.02 6.34 2 6 C0.8125 2.9375 0.8125 2.9375 0 0 Z " fill="#EFF3F1" transform="translate(553,78)"/>
</svg>
