<?xml version="1.0" standalone="no"?>
 <!DOCTYPE svg PUBLIC "-//W3C//DTD SVG 1.1//EN" 
 "http://www.w3.org/Graphics/SVG/1.1/DTD/svg11.dtd"> 
<svg
  xmlns:svg="http://www.w3.org/2000/svg"
  xmlns="http://www.w3.org/2000/svg"
  xmlns:xlink="http://www.w3.org/1999/xlink"
  xmlns:inkscape="http://www.inkscape.org/namespaces/inkscape"
  version="1.1"
  width="152.4000mm" height="101.6000mm" viewBox="0.0000 0.0000 152.4000 101.6000">
<title>SVG Image created as Planos.svg date 2026-06-20T02:07:30 </title>
  <desc>Image generated by Eeschema-SVG </desc>
<g style="fill:#000000; fill-opacity:1.0000;stroke:#000000; stroke-opacity:1.0000;
stroke-linecap:round; stroke-linejoin:round;"
 transform="translate(0 0) scale(1 1)">
</g>
<g style="fill:#282C34; fill-opacity:1.0000; 
stroke:#282C34; stroke-width:0.0001; stroke-opacity:1; 
stroke-linecap:round; stroke-linejoin:round;">
<rect x="0.000000" y="0.000000" width="152.400000" height="101.600000" rx="0.000000" />
</g>
<g style="fill:none; 
stroke:#7F848E; stroke-width:0.1524; stroke-opacity:1; 
stroke-linecap:round; stroke-linejoin:round;">
<path d="M32.4000 57.6000
L140.4000 57.6000
L140.4000 89.6000
L32.4000 89.6000
L32.4000 57.6000
" />
<path d="M10.0000 10.0000
L142.4000 10.0000
L142.4000 91.6000
L10.0000 91.6000
L10.0000 10.0000
" />
<path d="M12.0000 12.0000
L140.4000 12.0000
L140.4000 89.6000
L12.0000 89.6000
L12.0000 12.0000
" />
<path d="M60.0000 12.0000
L60.0000 10.0000
" />
<path d="M110.0000 12.0000
L110.0000 10.0000
" />
<text x="35.0000" y="11.6500"
textLength="1.4353" font-size="1.7333" lengthAdjust="spacingAndGlyphs"
text-anchor="start" opacity="0" stroke-opacity="0">1</text>
<g class="stroked-text"><desc>1</desc>
<path d="M36.0906 11.5935
L35.3478 11.5935
" />
<path d="M35.7192 11.5935
L35.7192 10.2935
" />
<path d="M35.7192 10.2935
L35.5954 10.4792
" />
<path d="M35.5954 10.4792
L35.4716 10.6030
" />
<path d="M35.4716 10.6030
L35.3478 10.6649
" />
</g><text x="85.0000" y="11.6500"
textLength="1.4353" font-size="1.7333" lengthAdjust="spacingAndGlyphs"
text-anchor="start" opacity="0" stroke-opacity="0">2</text>
<g class="stroked-text"><desc>2</desc>
<path d="M85.3478 10.4173
L85.4097 10.3554
" />
<path d="M85.4097 10.3554
L85.5335 10.2935
" />
<path d="M85.5335 10.2935
L85.8430 10.2935
" />
<path d="M85.8430 10.2935
L85.9668 10.3554
" />
<path d="M85.9668 10.3554
L86.0287 10.4173
" />
<path d="M86.0287 10.4173
L86.0906 10.5411
" />
<path d="M86.0906 10.5411
L86.0906 10.6649
" />
<path d="M86.0906 10.6649
L86.0287 10.8506
" />
<path d="M86.0287 10.8506
L85.2859 11.5935
" />
<path d="M85.2859 11.5935
L86.0906 11.5935
" />
</g><text x="135.0000" y="11.6500"
textLength="1.4353" font-size="1.7333" lengthAdjust="spacingAndGlyphs"
text-anchor="start" opacity="0" stroke-opacity="0">3</text>
<g class="stroked-text"><desc>3</desc>
<path d="M135.2859 10.2935
L136.0906 10.2935
" />
<path d="M136.0906 10.2935
L135.6573 10.7887
" />
<path d="M135.6573 10.7887
L135.8430 10.7887
" />
<path d="M135.8430 10.7887
L135.9668 10.8506
" />
<path d="M135.9668 10.8506
L136.0287 10.9125
" />
<path d="M136.0287 10.9125
L136.0906 11.0363
" />
<path d="M136.0906 11.0363
L136.0906 11.3458
" />
<path d="M136.0906 11.3458
L136.0287 11.4696
" />
<path d="M136.0287 11.4696
L135.9668 11.5316
" />
<path d="M135.9668 11.5316
L135.8430 11.5935
" />
<path d="M135.8430 11.5935
L135.4716 11.5935
" />
<path d="M135.4716 11.5935
L135.3478 11.5316
" />
<path d="M135.3478 11.5316
L135.2859 11.4696
" />
</g><path d="M60.0000 89.6000
L60.0000 91.6000
" />
<path d="M110.0000 89.6000
L110.0000 91.6000
" />
<text x="35.0000" y="91.2500"
textLength="1.4353" font-size="1.7333" lengthAdjust="spacingAndGlyphs"
text-anchor="start" opacity="0" stroke-opacity="0">1</text>
<g class="stroked-text"><desc>1</desc>
<path d="M36.0906 91.1935
L35.3478 91.1935
" />
<path d="M35.7192 91.1935
L35.7192 89.8935
" />
<path d="M35.7192 89.8935
L35.5954 90.0792
" />
<path d="M35.5954 90.0792
L35.4716 90.2030
" />
<path d="M35.4716 90.2030
L35.3478 90.2649
" />
</g><text x="85.0000" y="91.2500"
textLength="1.4353" font-size="1.7333" lengthAdjust="spacingAndGlyphs"
text-anchor="start" opacity="0" stroke-opacity="0">2</text>
<g class="stroked-text"><desc>2</desc>
<path d="M85.3478 90.0173
L85.4097 89.9554
" />
<path d="M85.4097 89.9554
L85.5335 89.8935
" />
<path d="M85.5335 89.8935
L85.8430 89.8935
" />
<path d="M85.8430 89.8935
L85.9668 89.9554
" />
<path d="M85.9668 89.9554
L86.0287 90.0173
" />
<path d="M86.0287 90.0173
L86.0906 90.1411
" />
<path d="M86.0906 90.1411
L86.0906 90.2649
" />
<path d="M86.0906 90.2649
L86.0287 90.4506
" />
<path d="M86.0287 90.4506
L85.2859 91.1935
" />
<path d="M85.2859 91.1935
L86.0906 91.1935
" />
</g><text x="135.0000" y="91.2500"
textLength="1.4353" font-size="1.7333" lengthAdjust="spacingAndGlyphs"
text-anchor="start" opacity="0" stroke-opacity="0">3</text>
<g class="stroked-text"><desc>3</desc>
<path d="M135.2859 89.8935
L136.0906 89.8935
" />
<path d="M136.0906 89.8935
L135.6573 90.3887
" />
<path d="M135.6573 90.3887
L135.8430 90.3887
" />
<path d="M135.8430 90.3887
L135.9668 90.4506
" />
<path d="M135.9668 90.4506
L136.0287 90.5125
" />
<path d="M136.0287 90.5125
L136.0906 90.6363
" />
<path d="M136.0906 90.6363
L136.0906 90.9458
" />
<path d="M136.0906 90.9458
L136.0287 91.0696
" />
<path d="M136.0287 91.0696
L135.9668 91.1316
" />
<path d="M135.9668 91.1316
L135.8430 91.1935
" />
<path d="M135.8430 91.1935
L135.4716 91.1935
" />
<path d="M135.4716 91.1935
L135.3478 91.1316
" />
<path d="M135.3478 91.1316
L135.2859 91.0696
" />
</g><path d="M10.0000 60.0000
L12.0000 60.0000
" />
<text x="11.0000" y="35.6500"
textLength="1.3115" font-size="1.7333" lengthAdjust="spacingAndGlyphs"
text-anchor="middle" opacity="0" stroke-opacity="0">A</text>
<g class="stroked-text"><desc>A</desc>
<path d="M10.6905 35.2220
L11.3095 35.2220
" />
<path d="M10.5667 35.5935
L11.0000 34.2935
" />
<path d="M11.0000 34.2935
L11.4333 35.5935
" />
</g><text x="11.0000" y="85.6500"
textLength="1.4972" font-size="1.7333" lengthAdjust="spacingAndGlyphs"
text-anchor="middle" opacity="0" stroke-opacity="0">B</text>
<g class="stroked-text"><desc>B</desc>
<path d="M11.0928 84.9125
L11.2785 84.9744
" />
<path d="M11.2785 84.9744
L11.3404 85.0363
" />
<path d="M11.3404 85.0363
L11.4023 85.1601
" />
<path d="M11.4023 85.1601
L11.4023 85.3458
" />
<path d="M11.4023 85.3458
L11.3404 85.4696
" />
<path d="M11.3404 85.4696
L11.2785 85.5316
" />
<path d="M11.2785 85.5316
L11.1547 85.5935
" />
<path d="M11.1547 85.5935
L10.6595 85.5935
" />
<path d="M10.6595 85.5935
L10.6595 84.2935
" />
<path d="M10.6595 84.2935
L11.0928 84.2935
" />
<path d="M11.0928 84.2935
L11.2166 84.3554
" />
<path d="M11.2166 84.3554
L11.2785 84.4173
" />
<path d="M11.2785 84.4173
L11.3404 84.5411
" />
<path d="M11.3404 84.5411
L11.3404 84.6649
" />
<path d="M11.3404 84.6649
L11.2785 84.7887
" />
<path d="M11.2785 84.7887
L11.2166 84.8506
" />
<path d="M11.2166 84.8506
L11.0928 84.9125
" />
<path d="M11.0928 84.9125
L10.6595 84.9125
" />
</g><path d="M142.4000 60.0000
L140.4000 60.0000
" />
<text x="141.4000" y="35.6500"
textLength="1.3115" font-size="1.7333" lengthAdjust="spacingAndGlyphs"
text-anchor="middle" opacity="0" stroke-opacity="0">A</text>
<g class="stroked-text"><desc>A</desc>
<path d="M141.0905 35.2220
L141.7095 35.2220
" />
<path d="M140.9667 35.5935
L141.4000 34.2935
" />
<path d="M141.4000 34.2935
L141.8333 35.5935
" />
</g><text x="141.4000" y="85.6500"
textLength="1.4972" font-size="1.7333" lengthAdjust="spacingAndGlyphs"
text-anchor="middle" opacity="0" stroke-opacity="0">B</text>
<g class="stroked-text"><desc>B</desc>
<path d="M141.4928 84.9125
L141.6785 84.9744
" />
<path d="M141.6785 84.9744
L141.7404 85.0363
" />
<path d="M141.7404 85.0363
L141.8023 85.1601
" />
<path d="M141.8023 85.1601
L141.8023 85.3458
" />
<path d="M141.8023 85.3458
L141.7404 85.4696
" />
<path d="M141.7404 85.4696
L141.6785 85.5316
" />
<path d="M141.6785 85.5316
L141.5547 85.5935
" />
<path d="M141.5547 85.5935
L141.0595 85.5935
" />
<path d="M141.0595 85.5935
L141.0595 84.2935
" />
<path d="M141.0595 84.2935
L141.4928 84.2935
" />
<path d="M141.4928 84.2935
L141.6166 84.3554
" />
<path d="M141.6166 84.3554
L141.6785 84.4173
" />
<path d="M141.6785 84.4173
L141.7404 84.5411
" />
<path d="M141.7404 84.5411
L141.7404 84.6649
" />
<path d="M141.7404 84.6649
L141.6785 84.7887
" />
<path d="M141.6785 84.7887
L141.6166 84.8506
" />
<path d="M141.6166 84.8506
L141.4928 84.9125
" />
<path d="M141.4928 84.9125
L141.0595 84.9125
" />
</g><text x="55.4000" y="85.4500"
textLength="22.1573" font-size="2.0000" lengthAdjust="spacingAndGlyphs"
text-anchor="start" opacity="0" stroke-opacity="0">Date: 2025-12-18</text>
<g class="stroked-text"><desc>Date: 2025-12-18</desc>
<path d="M55.8573 85.3859
L55.8573 83.8859
" />
<path d="M55.8573 83.8859
L56.2144 83.8859
" />
<path d="M56.2144 83.8859
L56.4287 83.9573
" />
<path d="M56.4287 83.9573
L56.5716 84.1002
" />
<path d="M56.5716 84.1002
L56.6430 84.2430
" />
<path d="M56.6430 84.2430
L56.7144 84.5287
" />
<path d="M56.7144 84.5287
L56.7144 84.7430
" />
<path d="M56.7144 84.7430
L56.6430 85.0287
" />
<path d="M56.6430 85.0287
L56.5716 85.1716
" />
<path d="M56.5716 85.1716
L56.4287 85.3145
" />
<path d="M56.4287 85.3145
L56.2144 85.3859
" />
<path d="M56.2144 85.3859
L55.8573 85.3859
" />
<path d="M58.0002 85.3859
L58.0002 84.6002
" />
<path d="M58.0002 84.6002
L57.9287 84.4573
" />
<path d="M57.9287 84.4573
L57.7859 84.3859
" />
<path d="M57.7859 84.3859
L57.5002 84.3859
" />
<path d="M57.5002 84.3859
L57.3573 84.4573
" />
<path d="M58.0002 85.3145
L57.8573 85.3859
" />
<path d="M57.8573 85.3859
L57.5002 85.3859
" />
<path d="M57.5002 85.3859
L57.3573 85.3145
" />
<path d="M57.3573 85.3145
L57.2859 85.1716
" />
<path d="M57.2859 85.1716
L57.2859 85.0287
" />
<path d="M57.2859 85.0287
L57.3573 84.8859
" />
<path d="M57.3573 84.8859
L57.5002 84.8145
" />
<path d="M57.5002 84.8145
L57.8573 84.8145
" />
<path d="M57.8573 84.8145
L58.0002 84.7430
" />
<path d="M58.5001 84.3859
L59.0715 84.3859
" />
<path d="M58.7144 83.8859
L58.7144 85.1716
" />
<path d="M58.7144 85.1716
L58.7858 85.3145
" />
<path d="M58.7858 85.3145
L58.9287 85.3859
" />
<path d="M58.9287 85.3859
L59.0715 85.3859
" />
<path d="M60.1429 85.3145
L60.0001 85.3859
" />
<path d="M60.0001 85.3859
L59.7144 85.3859
" />
<path d="M59.7144 85.3859
L59.5715 85.3145
" />
<path d="M59.5715 85.3145
L59.5001 85.1716
" />
<path d="M59.5001 85.1716
L59.5001 84.6002
" />
<path d="M59.5001 84.6002
L59.5715 84.4573
" />
<path d="M59.5715 84.4573
L59.7144 84.3859
" />
<path d="M59.7144 84.3859
L60.0001 84.3859
" />
<path d="M60.0001 84.3859
L60.1429 84.4573
" />
<path d="M60.1429 84.4573
L60.2144 84.6002
" />
<path d="M60.2144 84.6002
L60.2144 84.7430
" />
<path d="M60.2144 84.7430
L59.5001 84.8859
" />
<path d="M60.8572 85.2430
L60.9286 85.3145
" />
<path d="M60.9286 85.3145
L60.8572 85.3859
" />
<path d="M60.8572 85.3859
L60.7858 85.3145
" />
<path d="M60.7858 85.3145
L60.8572 85.2430
" />
<path d="M60.8572 85.2430
L60.8572 85.3859
" />
<path d="M60.8572 84.4573
L60.9286 84.5287
" />
<path d="M60.9286 84.5287
L60.8572 84.6002
" />
<path d="M60.8572 84.6002
L60.7858 84.5287
" />
<path d="M60.7858 84.5287
L60.8572 84.4573
" />
<path d="M60.8572 84.4573
L60.8572 84.6002
" />
<path d="M62.6430 84.0287
L62.7144 83.9573
" />
<path d="M62.7144 83.9573
L62.8573 83.8859
" />
<path d="M62.8573 83.8859
L63.2144 83.8859
" />
<path d="M63.2144 83.8859
L63.3573 83.9573
" />
<path d="M63.3573 83.9573
L63.4287 84.0287
" />
<path d="M63.4287 84.0287
L63.5001 84.1716
" />
<path d="M63.5001 84.1716
L63.5001 84.3145
" />
<path d="M63.5001 84.3145
L63.4287 84.5287
" />
<path d="M63.4287 84.5287
L62.5715 85.3859
" />
<path d="M62.5715 85.3859
L63.5001 85.3859
" />
<path d="M64.4287 83.8859
L64.5716 83.8859
" />
<path d="M64.5716 83.8859
L64.7144 83.9573
" />
<path d="M64.7144 83.9573
L64.7859 84.0287
" />
<path d="M64.7859 84.0287
L64.8573 84.1716
" />
<path d="M64.8573 84.1716
L64.9287 84.4573
" />
<path d="M64.9287 84.4573
L64.9287 84.8145
" />
<path d="M64.9287 84.8145
L64.8573 85.1002
" />
<path d="M64.8573 85.1002
L64.7859 85.2430
" />
<path d="M64.7859 85.2430
L64.7144 85.3145
" />
<path d="M64.7144 85.3145
L64.5716 85.3859
" />
<path d="M64.5716 85.3859
L64.4287 85.3859
" />
<path d="M64.4287 85.3859
L64.2859 85.3145
" />
<path d="M64.2859 85.3145
L64.2144 85.2430
" />
<path d="M64.2144 85.2430
L64.1430 85.1002
" />
<path d="M64.1430 85.1002
L64.0716 84.8145
" />
<path d="M64.0716 84.8145
L64.0716 84.4573
" />
<path d="M64.0716 84.4573
L64.1430 84.1716
" />
<path d="M64.1430 84.1716
L64.2144 84.0287
" />
<path d="M64.2144 84.0287
L64.2859 83.9573
" />
<path d="M64.2859 83.9573
L64.4287 83.8859
" />
<path d="M65.5002 84.0287
L65.5716 83.9573
" />
<path d="M65.5716 83.9573
L65.7145 83.8859
" />
<path d="M65.7145 83.8859
L66.0716 83.8859
" />
<path d="M66.0716 83.8859
L66.2145 83.9573
" />
<path d="M66.2145 83.9573
L66.2859 84.0287
" />
<path d="M66.2859 84.0287
L66.3573 84.1716
" />
<path d="M66.3573 84.1716
L66.3573 84.3145
" />
<path d="M66.3573 84.3145
L66.2859 84.5287
" />
<path d="M66.2859 84.5287
L65.4287 85.3859
" />
<path d="M65.4287 85.3859
L66.3573 85.3859
" />
<path d="M67.7145 83.8859
L67.0002 83.8859
" />
<path d="M67.0002 83.8859
L66.9288 84.6002
" />
<path d="M66.9288 84.6002
L67.0002 84.5287
" />
<path d="M67.0002 84.5287
L67.1431 84.4573
" />
<path d="M67.1431 84.4573
L67.5002 84.4573
" />
<path d="M67.5002 84.4573
L67.6431 84.5287
" />
<path d="M67.6431 84.5287
L67.7145 84.6002
" />
<path d="M67.7145 84.6002
L67.7859 84.7430
" />
<path d="M67.7859 84.7430
L67.7859 85.1002
" />
<path d="M67.7859 85.1002
L67.7145 85.2430
" />
<path d="M67.7145 85.2430
L67.6431 85.3145
" />
<path d="M67.6431 85.3145
L67.5002 85.3859
" />
<path d="M67.5002 85.3859
L67.1431 85.3859
" />
<path d="M67.1431 85.3859
L67.0002 85.3145
" />
<path d="M67.0002 85.3145
L66.9288 85.2430
" />
<path d="M68.4288 84.8145
L69.5717 84.8145
" />
<path d="M71.0716 85.3859
L70.2145 85.3859
" />
<path d="M70.6430 85.3859
L70.6430 83.8859
" />
<path d="M70.6430 83.8859
L70.5002 84.1002
" />
<path d="M70.5002 84.1002
L70.3573 84.2430
" />
<path d="M70.3573 84.2430
L70.2145 84.3145
" />
<path d="M71.6431 84.0287
L71.7145 83.9573
" />
<path d="M71.7145 83.9573
L71.8574 83.8859
" />
<path d="M71.8574 83.8859
L72.2145 83.8859
" />
<path d="M72.2145 83.8859
L72.3574 83.9573
" />
<path d="M72.3574 83.9573
L72.4288 84.0287
" />
<path d="M72.4288 84.0287
L72.5002 84.1716
" />
<path d="M72.5002 84.1716
L72.5002 84.3145
" />
<path d="M72.5002 84.3145
L72.4288 84.5287
" />
<path d="M72.4288 84.5287
L71.5716 85.3859
" />
<path d="M71.5716 85.3859
L72.5002 85.3859
" />
<path d="M73.1431 84.8145
L74.2860 84.8145
" />
<path d="M75.7859 85.3859
L74.9288 85.3859
" />
<path d="M75.3573 85.3859
L75.3573 83.8859
" />
<path d="M75.3573 83.8859
L75.2145 84.1002
" />
<path d="M75.2145 84.1002
L75.0716 84.2430
" />
<path d="M75.0716 84.2430
L74.9288 84.3145
" />
<path d="M76.6431 84.5287
L76.5002 84.4573
" />
<path d="M76.5002 84.4573
L76.4288 84.3859
" />
<path d="M76.4288 84.3859
L76.3574 84.2430
" />
<path d="M76.3574 84.2430
L76.3574 84.1716
" />
<path d="M76.3574 84.1716
L76.4288 84.0287
" />
<path d="M76.4288 84.0287
L76.5002 83.9573
" />
<path d="M76.5002 83.9573
L76.6431 83.8859
" />
<path d="M76.6431 83.8859
L76.9288 83.8859
" />
<path d="M76.9288 83.8859
L77.0717 83.9573
" />
<path d="M77.0717 83.9573
L77.1431 84.0287
" />
<path d="M77.1431 84.0287
L77.2145 84.1716
" />
<path d="M77.2145 84.1716
L77.2145 84.2430
" />
<path d="M77.2145 84.2430
L77.1431 84.3859
" />
<path d="M77.1431 84.3859
L77.0717 84.4573
" />
<path d="M77.0717 84.4573
L76.9288 84.5287
" />
<path d="M76.9288 84.5287
L76.6431 84.5287
" />
<path d="M76.6431 84.5287
L76.5002 84.6002
" />
<path d="M76.5002 84.6002
L76.4288 84.6716
" />
<path d="M76.4288 84.6716
L76.3574 84.8145
" />
<path d="M76.3574 84.8145
L76.3574 85.1002
" />
<path d="M76.3574 85.1002
L76.4288 85.2430
" />
<path d="M76.4288 85.2430
L76.5002 85.3145
" />
<path d="M76.5002 85.3145
L76.6431 85.3859
" />
<path d="M76.6431 85.3859
L76.9288 85.3859
" />
<path d="M76.9288 85.3859
L77.0717 85.3145
" />
<path d="M77.0717 85.3145
L77.1431 85.2430
" />
<path d="M77.1431 85.2430
L77.2145 85.1002
" />
<path d="M77.2145 85.1002
L77.2145 84.8145
" />
<path d="M77.2145 84.8145
L77.1431 84.6716
" />
<path d="M77.1431 84.6716
L77.0717 84.6002
" />
<path d="M77.0717 84.6002
L76.9288 84.5287
" />
</g><path d="M32.4000 86.1000
L140.4000 86.1000
" />
<text x="33.4000" y="88.2500"
textLength="22.3002" font-size="2.0000" lengthAdjust="spacingAndGlyphs"
text-anchor="start" opacity="0" stroke-opacity="0">KiCad E.D.A. 10.0.3</text>
<g class="stroked-text"><desc>KiCad E.D.A. 10.0.3</desc>
<path d="M33.8573 88.1859
L33.8573 86.6859
" />
<path d="M34.7144 88.1859
L34.0716 87.3287
" />
<path d="M34.7144 86.6859
L33.8573 87.5430
" />
<path d="M35.3573 88.1859
L35.3573 87.1859
" />
<path d="M35.3573 86.6859
L35.2859 86.7573
" />
<path d="M35.2859 86.7573
L35.3573 86.8287
" />
<path d="M35.3573 86.8287
L35.4287 86.7573
" />
<path d="M35.4287 86.7573
L35.3573 86.6859
" />
<path d="M35.3573 86.6859
L35.3573 86.8287
" />
<path d="M36.9287 88.0430
L36.8573 88.1145
" />
<path d="M36.8573 88.1145
L36.6430 88.1859
" />
<path d="M36.6430 88.1859
L36.5002 88.1859
" />
<path d="M36.5002 88.1859
L36.2859 88.1145
" />
<path d="M36.2859 88.1145
L36.1430 87.9716
" />
<path d="M36.1430 87.9716
L36.0716 87.8287
" />
<path d="M36.0716 87.8287
L36.0002 87.5430
" />
<path d="M36.0002 87.5430
L36.0002 87.3287
" />
<path d="M36.0002 87.3287
L36.0716 87.0430
" />
<path d="M36.0716 87.0430
L36.1430 86.9002
" />
<path d="M36.1430 86.9002
L36.2859 86.7573
" />
<path d="M36.2859 86.7573
L36.5002 86.6859
" />
<path d="M36.5002 86.6859
L36.6430 86.6859
" />
<path d="M36.6430 86.6859
L36.8573 86.7573
" />
<path d="M36.8573 86.7573
L36.9287 86.8287
" />
<path d="M38.2145 88.1859
L38.2145 87.4002
" />
<path d="M38.2145 87.4002
L38.1430 87.2573
" />
<path d="M38.1430 87.2573
L38.0002 87.1859
" />
<path d="M38.0002 87.1859
L37.7145 87.1859
" />
<path d="M37.7145 87.1859
L37.5716 87.2573
" />
<path d="M38.2145 88.1145
L38.0716 88.1859
" />
<path d="M38.0716 88.1859
L37.7145 88.1859
" />
<path d="M37.7145 88.1859
L37.5716 88.1145
" />
<path d="M37.5716 88.1145
L37.5002 87.9716
" />
<path d="M37.5002 87.9716
L37.5002 87.8287
" />
<path d="M37.5002 87.8287
L37.5716 87.6859
" />
<path d="M37.5716 87.6859
L37.7145 87.6145
" />
<path d="M37.7145 87.6145
L38.0716 87.6145
" />
<path d="M38.0716 87.6145
L38.2145 87.5430
" />
<path d="M39.5716 88.1859
L39.5716 86.6859
" />
<path d="M39.5716 88.1145
L39.4287 88.1859
" />
<path d="M39.4287 88.1859
L39.1430 88.1859
" />
<path d="M39.1430 88.1859
L39.0001 88.1145
" />
<path d="M39.0001 88.1145
L38.9287 88.0430
" />
<path d="M38.9287 88.0430
L38.8573 87.9002
" />
<path d="M38.8573 87.9002
L38.8573 87.4716
" />
<path d="M38.8573 87.4716
L38.9287 87.3287
" />
<path d="M38.9287 87.3287
L39.0001 87.2573
" />
<path d="M39.0001 87.2573
L39.1430 87.1859
" />
<path d="M39.1430 87.1859
L39.4287 87.1859
" />
<path d="M39.4287 87.1859
L39.5716 87.2573
" />
<path d="M41.4287 87.4002
L41.9287 87.4002
" />
<path d="M42.1430 88.1859
L41.4287 88.1859
" />
<path d="M41.4287 88.1859
L41.4287 86.6859
" />
<path d="M41.4287 86.6859
L42.1430 86.6859
" />
<path d="M42.7858 88.0430
L42.8572 88.1145
" />
<path d="M42.8572 88.1145
L42.7858 88.1859
" />
<path d="M42.7858 88.1859
L42.7144 88.1145
" />
<path d="M42.7144 88.1145
L42.7858 88.0430
" />
<path d="M42.7858 88.0430
L42.7858 88.1859
" />
<path d="M43.5001 88.1859
L43.5001 86.6859
" />
<path d="M43.5001 86.6859
L43.8572 86.6859
" />
<path d="M43.8572 86.6859
L44.0715 86.7573
" />
<path d="M44.0715 86.7573
L44.2144 86.9002
" />
<path d="M44.2144 86.9002
L44.2858 87.0430
" />
<path d="M44.2858 87.0430
L44.3572 87.3287
" />
<path d="M44.3572 87.3287
L44.3572 87.5430
" />
<path d="M44.3572 87.5430
L44.2858 87.8287
" />
<path d="M44.2858 87.8287
L44.2144 87.9716
" />
<path d="M44.2144 87.9716
L44.0715 88.1145
" />
<path d="M44.0715 88.1145
L43.8572 88.1859
" />
<path d="M43.8572 88.1859
L43.5001 88.1859
" />
<path d="M45.0001 88.0430
L45.0715 88.1145
" />
<path d="M45.0715 88.1145
L45.0001 88.1859
" />
<path d="M45.0001 88.1859
L44.9287 88.1145
" />
<path d="M44.9287 88.1145
L45.0001 88.0430
" />
<path d="M45.0001 88.0430
L45.0001 88.1859
" />
<path d="M45.6430 87.7573
L46.3573 87.7573
" />
<path d="M45.5001 88.1859
L46.0001 86.6859
" />
<path d="M46.0001 86.6859
L46.5001 88.1859
" />
<path d="M47.0001 88.0430
L47.0715 88.1145
" />
<path d="M47.0715 88.1145
L47.0001 88.1859
" />
<path d="M47.0001 88.1859
L46.9287 88.1145
" />
<path d="M46.9287 88.1145
L47.0001 88.0430
" />
<path d="M47.0001 88.0430
L47.0001 88.1859
" />
<path d="M49.6430 88.1859
L48.7859 88.1859
" />
<path d="M49.2144 88.1859
L49.2144 86.6859
" />
<path d="M49.2144 86.6859
L49.0716 86.9002
" />
<path d="M49.0716 86.9002
L48.9287 87.0430
" />
<path d="M48.9287 87.0430
L48.7859 87.1145
" />
<path d="M50.5716 86.6859
L50.7145 86.6859
" />
<path d="M50.7145 86.6859
L50.8573 86.7573
" />
<path d="M50.8573 86.7573
L50.9288 86.8287
" />
<path d="M50.9288 86.8287
L51.0002 86.9716
" />
<path d="M51.0002 86.9716
L51.0716 87.2573
" />
<path d="M51.0716 87.2573
L51.0716 87.6145
" />
<path d="M51.0716 87.6145
L51.0002 87.9002
" />
<path d="M51.0002 87.9002
L50.9288 88.0430
" />
<path d="M50.9288 88.0430
L50.8573 88.1145
" />
<path d="M50.8573 88.1145
L50.7145 88.1859
" />
<path d="M50.7145 88.1859
L50.5716 88.1859
" />
<path d="M50.5716 88.1859
L50.4288 88.1145
" />
<path d="M50.4288 88.1145
L50.3573 88.0430
" />
<path d="M50.3573 88.0430
L50.2859 87.9002
" />
<path d="M50.2859 87.9002
L50.2145 87.6145
" />
<path d="M50.2145 87.6145
L50.2145 87.2573
" />
<path d="M50.2145 87.2573
L50.2859 86.9716
" />
<path d="M50.2859 86.9716
L50.3573 86.8287
" />
<path d="M50.3573 86.8287
L50.4288 86.7573
" />
<path d="M50.4288 86.7573
L50.5716 86.6859
" />
<path d="M51.7145 88.0430
L51.7859 88.1145
" />
<path d="M51.7859 88.1145
L51.7145 88.1859
" />
<path d="M51.7145 88.1859
L51.6431 88.1145
" />
<path d="M51.6431 88.1145
L51.7145 88.0430
" />
<path d="M51.7145 88.0430
L51.7145 88.1859
" />
<path d="M52.7145 86.6859
L52.8574 86.6859
" />
<path d="M52.8574 86.6859
L53.0002 86.7573
" />
<path d="M53.0002 86.7573
L53.0717 86.8287
" />
<path d="M53.0717 86.8287
L53.1431 86.9716
" />
<path d="M53.1431 86.9716
L53.2145 87.2573
" />
<path d="M53.2145 87.2573
L53.2145 87.6145
" />
<path d="M53.2145 87.6145
L53.1431 87.9002
" />
<path d="M53.1431 87.9002
L53.0717 88.0430
" />
<path d="M53.0717 88.0430
L53.0002 88.1145
" />
<path d="M53.0002 88.1145
L52.8574 88.1859
" />
<path d="M52.8574 88.1859
L52.7145 88.1859
" />
<path d="M52.7145 88.1859
L52.5717 88.1145
" />
<path d="M52.5717 88.1145
L52.5002 88.0430
" />
<path d="M52.5002 88.0430
L52.4288 87.9002
" />
<path d="M52.4288 87.9002
L52.3574 87.6145
" />
<path d="M52.3574 87.6145
L52.3574 87.2573
" />
<path d="M52.3574 87.2573
L52.4288 86.9716
" />
<path d="M52.4288 86.9716
L52.5002 86.8287
" />
<path d="M52.5002 86.8287
L52.5717 86.7573
" />
<path d="M52.5717 86.7573
L52.7145 86.6859
" />
<path d="M53.8574 88.0430
L53.9288 88.1145
" />
<path d="M53.9288 88.1145
L53.8574 88.1859
" />
<path d="M53.8574 88.1859
L53.7860 88.1145
" />
<path d="M53.7860 88.1145
L53.8574 88.0430
" />
<path d="M53.8574 88.0430
L53.8574 88.1859
" />
<path d="M54.4288 86.6859
L55.3574 86.6859
" />
<path d="M55.3574 86.6859
L54.8574 87.2573
" />
<path d="M54.8574 87.2573
L55.0717 87.2573
" />
<path d="M55.0717 87.2573
L55.2146 87.3287
" />
<path d="M55.2146 87.3287
L55.2860 87.4002
" />
<path d="M55.2860 87.4002
L55.3574 87.5430
" />
<path d="M55.3574 87.5430
L55.3574 87.9002
" />
<path d="M55.3574 87.9002
L55.2860 88.0430
" />
<path d="M55.2860 88.0430
L55.2146 88.1145
" />
<path d="M55.2146 88.1145
L55.0717 88.1859
" />
<path d="M55.0717 88.1859
L54.6431 88.1859
" />
<path d="M54.6431 88.1859
L54.5003 88.1145
" />
<path d="M54.5003 88.1145
L54.4288 88.0430
" />
</g><path d="M32.4000 83.1000
L140.4000 83.1000
" />
</g>
<g style="fill:none; 
stroke:#7F848E; stroke-width:0.3000; stroke-opacity:1; 
stroke-linecap:round; stroke-linejoin:round;">
<text x="118.4000" y="85.4500"
textLength="11.2430" font-size="2.0000" lengthAdjust="spacingAndGlyphs"
text-anchor="start" opacity="0" stroke-opacity="0">Rev: 0.6V</text>
<g class="stroked-text"><desc>Rev: 0.6V</desc>
<path d="M119.8115 85.3783
L119.3115 84.6640
" />
<path d="M118.9544 85.3783
L118.9544 83.8783
" />
<path d="M118.9544 83.8783
L119.5258 83.8783
" />
<path d="M119.5258 83.8783
L119.6687 83.9497
" />
<path d="M119.6687 83.9497
L119.7401 84.0211
" />
<path d="M119.7401 84.0211
L119.8115 84.1640
" />
<path d="M119.8115 84.1640
L119.8115 84.3783
" />
<path d="M119.8115 84.3783
L119.7401 84.5211
" />
<path d="M119.7401 84.5211
L119.6687 84.5926
" />
<path d="M119.6687 84.5926
L119.5258 84.6640
" />
<path d="M119.5258 84.6640
L118.9544 84.6640
" />
<path d="M121.0258 85.3069
L120.8830 85.3783
" />
<path d="M120.8830 85.3783
L120.5973 85.3783
" />
<path d="M120.5973 85.3783
L120.4544 85.3069
" />
<path d="M120.4544 85.3069
L120.3830 85.1640
" />
<path d="M120.3830 85.1640
L120.3830 84.5926
" />
<path d="M120.3830 84.5926
L120.4544 84.4497
" />
<path d="M120.4544 84.4497
L120.5973 84.3783
" />
<path d="M120.5973 84.3783
L120.8830 84.3783
" />
<path d="M120.8830 84.3783
L121.0258 84.4497
" />
<path d="M121.0258 84.4497
L121.0973 84.5926
" />
<path d="M121.0973 84.5926
L121.0973 84.7354
" />
<path d="M121.0973 84.7354
L120.3830 84.8783
" />
<path d="M121.5972 84.3783
L121.9544 85.3783
" />
<path d="M121.9544 85.3783
L122.3115 84.3783
" />
<path d="M122.8830 85.2354
L122.9544 85.3069
" />
<path d="M122.9544 85.3069
L122.8830 85.3783
" />
<path d="M122.8830 85.3783
L122.8116 85.3069
" />
<path d="M122.8116 85.3069
L122.8830 85.2354
" />
<path d="M122.8830 85.2354
L122.8830 85.3783
" />
<path d="M122.8830 84.4497
L122.9544 84.5211
" />
<path d="M122.9544 84.5211
L122.8830 84.5926
" />
<path d="M122.8830 84.5926
L122.8116 84.5211
" />
<path d="M122.8116 84.5211
L122.8830 84.4497
" />
<path d="M122.8830 84.4497
L122.8830 84.5926
" />
<path d="M125.0259 83.8783
L125.1688 83.8783
" />
<path d="M125.1688 83.8783
L125.3116 83.9497
" />
<path d="M125.3116 83.9497
L125.3831 84.0211
" />
<path d="M125.3831 84.0211
L125.4545 84.1640
" />
<path d="M125.4545 84.1640
L125.5259 84.4497
" />
<path d="M125.5259 84.4497
L125.5259 84.8069
" />
<path d="M125.5259 84.8069
L125.4545 85.0926
" />
<path d="M125.4545 85.0926
L125.3831 85.2354
" />
<path d="M125.3831 85.2354
L125.3116 85.3069
" />
<path d="M125.3116 85.3069
L125.1688 85.3783
" />
<path d="M125.1688 85.3783
L125.0259 85.3783
" />
<path d="M125.0259 85.3783
L124.8831 85.3069
" />
<path d="M124.8831 85.3069
L124.8116 85.2354
" />
<path d="M124.8116 85.2354
L124.7402 85.0926
" />
<path d="M124.7402 85.0926
L124.6688 84.8069
" />
<path d="M124.6688 84.8069
L124.6688 84.4497
" />
<path d="M124.6688 84.4497
L124.7402 84.1640
" />
<path d="M124.7402 84.1640
L124.8116 84.0211
" />
<path d="M124.8116 84.0211
L124.8831 83.9497
" />
<path d="M124.8831 83.9497
L125.0259 83.8783
" />
<path d="M126.1688 85.2354
L126.2402 85.3069
" />
<path d="M126.2402 85.3069
L126.1688 85.3783
" />
<path d="M126.1688 85.3783
L126.0974 85.3069
" />
<path d="M126.0974 85.3069
L126.1688 85.2354
" />
<path d="M126.1688 85.2354
L126.1688 85.3783
" />
<path d="M127.5260 83.8783
L127.2402 83.8783
" />
<path d="M127.2402 83.8783
L127.0974 83.9497
" />
<path d="M127.0974 83.9497
L127.0260 84.0211
" />
<path d="M127.0260 84.0211
L126.8831 84.2354
" />
<path d="M126.8831 84.2354
L126.8117 84.5211
" />
<path d="M126.8117 84.5211
L126.8117 85.0926
" />
<path d="M126.8117 85.0926
L126.8831 85.2354
" />
<path d="M126.8831 85.2354
L126.9545 85.3069
" />
<path d="M126.9545 85.3069
L127.0974 85.3783
" />
<path d="M127.0974 85.3783
L127.3831 85.3783
" />
<path d="M127.3831 85.3783
L127.5260 85.3069
" />
<path d="M127.5260 85.3069
L127.5974 85.2354
" />
<path d="M127.5974 85.2354
L127.6688 85.0926
" />
<path d="M127.6688 85.0926
L127.6688 84.7354
" />
<path d="M127.6688 84.7354
L127.5974 84.5926
" />
<path d="M127.5974 84.5926
L127.5260 84.5211
" />
<path d="M127.5260 84.5211
L127.3831 84.4497
" />
<path d="M127.3831 84.4497
L127.0974 84.4497
" />
<path d="M127.0974 84.4497
L126.9545 84.5211
" />
<path d="M126.9545 84.5211
L126.8831 84.5926
" />
<path d="M126.8831 84.5926
L126.8117 84.7354
" />
<path d="M128.0974 83.8783
L128.5974 85.3783
" />
<path d="M128.5974 85.3783
L129.0974 83.8783
" />
</g></g>
<g style="fill:none; 
stroke:#7F848E; stroke-width:0.1524; stroke-opacity:1; 
stroke-linecap:round; stroke-linejoin:round;">
<text x="33.4000" y="85.4500"
textLength="11.6573" font-size="2.0000" lengthAdjust="spacingAndGlyphs"
text-anchor="start" opacity="0" stroke-opacity="0">Size: User</text>
<g class="stroked-text"><desc>Size: User</desc>
<path d="M33.7859 85.3145
L34.0002 85.3859
" />
<path d="M34.0002 85.3859
L34.3573 85.3859
" />
<path d="M34.3573 85.3859
L34.5002 85.3145
" />
<path d="M34.5002 85.3145
L34.5716 85.2430
" />
<path d="M34.5716 85.2430
L34.6430 85.1002
" />
<path d="M34.6430 85.1002
L34.6430 84.9573
" />
<path d="M34.6430 84.9573
L34.5716 84.8145
" />
<path d="M34.5716 84.8145
L34.5002 84.7430
" />
<path d="M34.5002 84.7430
L34.3573 84.6716
" />
<path d="M34.3573 84.6716
L34.0716 84.6002
" />
<path d="M34.0716 84.6002
L33.9287 84.5287
" />
<path d="M33.9287 84.5287
L33.8573 84.4573
" />
<path d="M33.8573 84.4573
L33.7859 84.3145
" />
<path d="M33.7859 84.3145
L33.7859 84.1716
" />
<path d="M33.7859 84.1716
L33.8573 84.0287
" />
<path d="M33.8573 84.0287
L33.9287 83.9573
" />
<path d="M33.9287 83.9573
L34.0716 83.8859
" />
<path d="M34.0716 83.8859
L34.4287 83.8859
" />
<path d="M34.4287 83.8859
L34.6430 83.9573
" />
<path d="M35.2859 85.3859
L35.2859 84.3859
" />
<path d="M35.2859 83.8859
L35.2145 83.9573
" />
<path d="M35.2145 83.9573
L35.2859 84.0287
" />
<path d="M35.2859 84.0287
L35.3573 83.9573
" />
<path d="M35.3573 83.9573
L35.2859 83.8859
" />
<path d="M35.2859 83.8859
L35.2859 84.0287
" />
<path d="M35.8573 84.3859
L36.6431 84.3859
" />
<path d="M36.6431 84.3859
L35.8573 85.3859
" />
<path d="M35.8573 85.3859
L36.6431 85.3859
" />
<path d="M37.7859 85.3145
L37.6431 85.3859
" />
<path d="M37.6431 85.3859
L37.3574 85.3859
" />
<path d="M37.3574 85.3859
L37.2145 85.3145
" />
<path d="M37.2145 85.3145
L37.1431 85.1716
" />
<path d="M37.1431 85.1716
L37.1431 84.6002
" />
<path d="M37.1431 84.6002
L37.2145 84.4573
" />
<path d="M37.2145 84.4573
L37.3574 84.3859
" />
<path d="M37.3574 84.3859
L37.6431 84.3859
" />
<path d="M37.6431 84.3859
L37.7859 84.4573
" />
<path d="M37.7859 84.4573
L37.8574 84.6002
" />
<path d="M37.8574 84.6002
L37.8574 84.7430
" />
<path d="M37.8574 84.7430
L37.1431 84.8859
" />
<path d="M38.5002 85.2430
L38.5716 85.3145
" />
<path d="M38.5716 85.3145
L38.5002 85.3859
" />
<path d="M38.5002 85.3859
L38.4288 85.3145
" />
<path d="M38.4288 85.3145
L38.5002 85.2430
" />
<path d="M38.5002 85.2430
L38.5002 85.3859
" />
<path d="M38.5002 84.4573
L38.5716 84.5287
" />
<path d="M38.5716 84.5287
L38.5002 84.6002
" />
<path d="M38.5002 84.6002
L38.4288 84.5287
" />
<path d="M38.4288 84.5287
L38.5002 84.4573
" />
<path d="M38.5002 84.4573
L38.5002 84.6002
" />
<path d="M40.3574 83.8859
L40.3574 85.1002
" />
<path d="M40.3574 85.1002
L40.4288 85.2430
" />
<path d="M40.4288 85.2430
L40.5003 85.3145
" />
<path d="M40.5003 85.3145
L40.6431 85.3859
" />
<path d="M40.6431 85.3859
L40.9288 85.3859
" />
<path d="M40.9288 85.3859
L41.0717 85.3145
" />
<path d="M41.0717 85.3145
L41.1431 85.2430
" />
<path d="M41.1431 85.2430
L41.2145 85.1002
" />
<path d="M41.2145 85.1002
L41.2145 83.8859
" />
<path d="M41.8574 85.3145
L42.0002 85.3859
" />
<path d="M42.0002 85.3859
L42.2859 85.3859
" />
<path d="M42.2859 85.3859
L42.4288 85.3145
" />
<path d="M42.4288 85.3145
L42.5002 85.1716
" />
<path d="M42.5002 85.1716
L42.5002 85.1002
" />
<path d="M42.5002 85.1002
L42.4288 84.9573
" />
<path d="M42.4288 84.9573
L42.2859 84.8859
" />
<path d="M42.2859 84.8859
L42.0717 84.8859
" />
<path d="M42.0717 84.8859
L41.9288 84.8145
" />
<path d="M41.9288 84.8145
L41.8574 84.6716
" />
<path d="M41.8574 84.6716
L41.8574 84.6002
" />
<path d="M41.8574 84.6002
L41.9288 84.4573
" />
<path d="M41.9288 84.4573
L42.0717 84.3859
" />
<path d="M42.0717 84.3859
L42.2859 84.3859
" />
<path d="M42.2859 84.3859
L42.4288 84.4573
" />
<path d="M43.7145 85.3145
L43.5717 85.3859
" />
<path d="M43.5717 85.3859
L43.2860 85.3859
" />
<path d="M43.2860 85.3859
L43.1431 85.3145
" />
<path d="M43.1431 85.3145
L43.0717 85.1716
" />
<path d="M43.0717 85.1716
L43.0717 84.6002
" />
<path d="M43.0717 84.6002
L43.1431 84.4573
" />
<path d="M43.1431 84.4573
L43.2860 84.3859
" />
<path d="M43.2860 84.3859
L43.5717 84.3859
" />
<path d="M43.5717 84.3859
L43.7145 84.4573
" />
<path d="M43.7145 84.4573
L43.7860 84.6002
" />
<path d="M43.7860 84.6002
L43.7860 84.7430
" />
<path d="M43.7860 84.7430
L43.0717 84.8859
" />
<path d="M44.4288 85.3859
L44.4288 84.3859
" />
<path d="M44.4288 84.6716
L44.5002 84.5287
" />
<path d="M44.5002 84.5287
L44.5717 84.4573
" />
<path d="M44.5717 84.4573
L44.7145 84.3859
" />
<path d="M44.7145 84.3859
L44.8574 84.3859
" />
</g><text x="118.4000" y="88.2500"
textLength="8.5144" font-size="2.0000" lengthAdjust="spacingAndGlyphs"
text-anchor="start" opacity="0" stroke-opacity="0">Id: 1/1</text>
<g class="stroked-text"><desc>Id: 1/1</desc>
<path d="M118.8573 88.1859
L118.8573 86.6859
" />
<path d="M120.2145 88.1859
L120.2145 86.6859
" />
<path d="M120.2145 88.1145
L120.0716 88.1859
" />
<path d="M120.0716 88.1859
L119.7859 88.1859
" />
<path d="M119.7859 88.1859
L119.6430 88.1145
" />
<path d="M119.6430 88.1145
L119.5716 88.0430
" />
<path d="M119.5716 88.0430
L119.5002 87.9002
" />
<path d="M119.5002 87.9002
L119.5002 87.4716
" />
<path d="M119.5002 87.4716
L119.5716 87.3287
" />
<path d="M119.5716 87.3287
L119.6430 87.2573
" />
<path d="M119.6430 87.2573
L119.7859 87.1859
" />
<path d="M119.7859 87.1859
L120.0716 87.1859
" />
<path d="M120.0716 87.1859
L120.2145 87.2573
" />
<path d="M120.9287 88.0430
L121.0001 88.1145
" />
<path d="M121.0001 88.1145
L120.9287 88.1859
" />
<path d="M120.9287 88.1859
L120.8573 88.1145
" />
<path d="M120.8573 88.1145
L120.9287 88.0430
" />
<path d="M120.9287 88.0430
L120.9287 88.1859
" />
<path d="M120.9287 87.2573
L121.0001 87.3287
" />
<path d="M121.0001 87.3287
L120.9287 87.4002
" />
<path d="M120.9287 87.4002
L120.8573 87.3287
" />
<path d="M120.8573 87.3287
L120.9287 87.2573
" />
<path d="M120.9287 87.2573
L120.9287 87.4002
" />
<path d="M123.5716 88.1859
L122.7145 88.1859
" />
<path d="M123.1430 88.1859
L123.1430 86.6859
" />
<path d="M123.1430 86.6859
L123.0002 86.9002
" />
<path d="M123.0002 86.9002
L122.8573 87.0430
" />
<path d="M122.8573 87.0430
L122.7145 87.1145
" />
<path d="M125.2859 86.6145
L124.0002 88.5430
" />
<path d="M126.5716 88.1859
L125.7145 88.1859
" />
<path d="M126.1430 88.1859
L126.1430 86.6859
" />
<path d="M126.1430 86.6859
L126.0002 86.9002
" />
<path d="M126.0002 86.9002
L125.8573 87.0430
" />
<path d="M125.8573 87.0430
L125.7145 87.1145
" />
</g><path d="M32.4000 79.1000
L140.4000 79.1000
" />
</g>
<g style="fill:none; 
stroke:#7F848E; stroke-width:0.4000; stroke-opacity:1; 
stroke-linecap:round; stroke-linejoin:round;">
<text x="33.4000" y="81.9000"
textLength="55.4665" font-size="2.6666" lengthAdjust="spacingAndGlyphs"
text-anchor="start" opacity="0" stroke-opacity="0">Title: FUENTE DE ALIMENTACION 36V</text>
<g class="stroked-text"><desc>Title: FUENTE DE ALIMENTACION 36V</desc>
<path d="M34.0916 79.8044
L35.2345 79.8044
" />
<path d="M34.4131 81.8044
L34.6631 79.8044
" />
<path d="M35.6511 81.8044
L35.8178 80.4711
" />
<path d="M35.9011 79.8044
L35.7940 79.8996
" />
<path d="M35.7940 79.8996
L35.8773 79.9949
" />
<path d="M35.8773 79.9949
L35.9845 79.8996
" />
<path d="M35.9845 79.8996
L35.9011 79.8044
" />
<path d="M35.9011 79.8044
L35.8773 79.9949
" />
<path d="M36.4845 80.4711
L37.2464 80.4711
" />
<path d="M36.8535 79.8044
L36.6393 81.5187
" />
<path d="M36.6393 81.5187
L36.7107 81.7092
" />
<path d="M36.7107 81.7092
L36.8893 81.8044
" />
<path d="M36.8893 81.8044
L37.0797 81.8044
" />
<path d="M38.0322 81.8044
L37.8536 81.7092
" />
<path d="M37.8536 81.7092
L37.7822 81.5187
" />
<path d="M37.7822 81.5187
L37.9964 79.8044
" />
<path d="M39.5678 81.7092
L39.3655 81.8044
" />
<path d="M39.3655 81.8044
L38.9845 81.8044
" />
<path d="M38.9845 81.8044
L38.8059 81.7092
" />
<path d="M38.8059 81.7092
L38.7345 81.5187
" />
<path d="M38.7345 81.5187
L38.8298 80.7568
" />
<path d="M38.8298 80.7568
L38.9488 80.5663
" />
<path d="M38.9488 80.5663
L39.1512 80.4711
" />
<path d="M39.1512 80.4711
L39.5321 80.4711
" />
<path d="M39.5321 80.4711
L39.7107 80.5663
" />
<path d="M39.7107 80.5663
L39.7821 80.7568
" />
<path d="M39.7821 80.7568
L39.7583 80.9472
" />
<path d="M39.7583 80.9472
L38.7821 81.1377
" />
<path d="M40.5321 81.6139
L40.6155 81.7092
" />
<path d="M40.6155 81.7092
L40.5083 81.8044
" />
<path d="M40.5083 81.8044
L40.4250 81.7092
" />
<path d="M40.4250 81.7092
L40.5321 81.6139
" />
<path d="M40.5321 81.6139
L40.5083 81.8044
" />
<path d="M40.6631 80.5663
L40.7464 80.6615
" />
<path d="M40.7464 80.6615
L40.6393 80.7568
" />
<path d="M40.6393 80.7568
L40.5560 80.6615
" />
<path d="M40.5560 80.6615
L40.6631 80.5663
" />
<path d="M40.6631 80.5663
L40.6393 80.7568
" />
<path d="M43.7822 80.7568
L43.1155 80.7568
" />
<path d="M42.9845 81.8044
L43.2345 79.8044
" />
<path d="M43.2345 79.8044
L44.1869 79.8044
" />
<path d="M44.9488 79.8044
L44.7465 81.4234
" />
<path d="M44.7465 81.4234
L44.8179 81.6139
" />
<path d="M44.8179 81.6139
L44.9012 81.7092
" />
<path d="M44.9012 81.7092
L45.0798 81.8044
" />
<path d="M45.0798 81.8044
L45.4607 81.8044
" />
<path d="M45.4607 81.8044
L45.6631 81.7092
" />
<path d="M45.6631 81.7092
L45.7703 81.6139
" />
<path d="M45.7703 81.6139
L45.8893 81.4234
" />
<path d="M45.8893 81.4234
L46.0917 79.8044
" />
<path d="M46.9250 80.7568
L47.5917 80.7568
" />
<path d="M47.7464 81.8044
L46.7940 81.8044
" />
<path d="M46.7940 81.8044
L47.0440 79.8044
" />
<path d="M47.0440 79.8044
L47.9964 79.8044
" />
<path d="M48.6035 81.8044
L48.8535 79.8044
" />
<path d="M48.8535 79.8044
L49.7464 81.8044
" />
<path d="M49.7464 81.8044
L49.9964 79.8044
" />
<path d="M50.6630 79.8044
L51.8059 79.8044
" />
<path d="M50.9845 81.8044
L51.2345 79.8044
" />
<path d="M52.3535 80.7568
L53.0202 80.7568
" />
<path d="M53.1749 81.8044
L52.2225 81.8044
" />
<path d="M52.2225 81.8044
L52.4725 79.8044
" />
<path d="M52.4725 79.8044
L53.4249 79.8044
" />
<path d="M55.5558 81.8044
L55.8058 79.8044
" />
<path d="M55.8058 79.8044
L56.2820 79.8044
" />
<path d="M56.2820 79.8044
L56.5558 79.8996
" />
<path d="M56.5558 79.8996
L56.7225 80.0901
" />
<path d="M56.7225 80.0901
L56.7939 80.2806
" />
<path d="M56.7939 80.2806
L56.8416 80.6615
" />
<path d="M56.8416 80.6615
L56.8058 80.9472
" />
<path d="M56.8058 80.9472
L56.6630 81.3282
" />
<path d="M56.6630 81.3282
L56.5439 81.5187
" />
<path d="M56.5439 81.5187
L56.3296 81.7092
" />
<path d="M56.3296 81.7092
L56.0320 81.8044
" />
<path d="M56.0320 81.8044
L55.5558 81.8044
" />
<path d="M57.6868 80.7568
L58.3535 80.7568
" />
<path d="M58.5082 81.8044
L57.5558 81.8044
" />
<path d="M57.5558 81.8044
L57.8058 79.8044
" />
<path d="M57.8058 79.8044
L58.7582 79.8044
" />
<path d="M60.8653 81.2330
L61.8177 81.2330
" />
<path d="M60.6034 81.8044
L61.5201 79.8044
" />
<path d="M61.5201 79.8044
L61.9368 81.8044
" />
<path d="M63.5558 81.8044
L62.6034 81.8044
" />
<path d="M62.6034 81.8044
L62.8534 79.8044
" />
<path d="M64.2224 81.8044
L64.4724 79.8044
" />
<path d="M65.1748 81.8044
L65.4248 79.8044
" />
<path d="M65.4248 79.8044
L65.9129 81.2330
" />
<path d="M65.9129 81.2330
L66.7582 79.8044
" />
<path d="M66.7582 79.8044
L66.5082 81.8044
" />
<path d="M67.5915 80.7568
L68.2582 80.7568
" />
<path d="M68.4129 81.8044
L67.4605 81.8044
" />
<path d="M67.4605 81.8044
L67.7105 79.8044
" />
<path d="M67.7105 79.8044
L68.6629 79.8044
" />
<path d="M69.2700 81.8044
L69.5200 79.8044
" />
<path d="M69.5200 79.8044
L70.4129 81.8044
" />
<path d="M70.4129 81.8044
L70.6629 79.8044
" />
<path d="M71.3295 79.8044
L72.4724 79.8044
" />
<path d="M71.6510 81.8044
L71.9010 79.8044
" />
<path d="M72.8652 81.2330
L73.8176 81.2330
" />
<path d="M72.6033 81.8044
L73.5200 79.8044
" />
<path d="M73.5200 79.8044
L73.9367 81.8044
" />
<path d="M75.7700 81.6139
L75.6629 81.7092
" />
<path d="M75.6629 81.7092
L75.3652 81.8044
" />
<path d="M75.3652 81.8044
L75.1748 81.8044
" />
<path d="M75.1748 81.8044
L74.9010 81.7092
" />
<path d="M74.9010 81.7092
L74.7343 81.5187
" />
<path d="M74.7343 81.5187
L74.6629 81.3282
" />
<path d="M74.6629 81.3282
L74.6152 80.9472
" />
<path d="M74.6152 80.9472
L74.6510 80.6615
" />
<path d="M74.6510 80.6615
L74.7938 80.2806
" />
<path d="M74.7938 80.2806
L74.9129 80.0901
" />
<path d="M74.9129 80.0901
L75.1271 79.8996
" />
<path d="M75.1271 79.8996
L75.4248 79.8044
" />
<path d="M75.4248 79.8044
L75.6152 79.8044
" />
<path d="M75.6152 79.8044
L75.8891 79.8996
" />
<path d="M75.8891 79.8996
L75.9724 79.9949
" />
<path d="M76.6033 81.8044
L76.8533 79.8044
" />
<path d="M78.1867 79.8044
L78.5676 79.8044
" />
<path d="M78.5676 79.8044
L78.7462 79.8996
" />
<path d="M78.7462 79.8996
L78.9129 80.0901
" />
<path d="M78.9129 80.0901
L78.9605 80.4711
" />
<path d="M78.9605 80.4711
L78.8772 81.1377
" />
<path d="M78.8772 81.1377
L78.7343 81.5187
" />
<path d="M78.7343 81.5187
L78.5200 81.7092
" />
<path d="M78.5200 81.7092
L78.3176 81.8044
" />
<path d="M78.3176 81.8044
L77.9367 81.8044
" />
<path d="M77.9367 81.8044
L77.7581 81.7092
" />
<path d="M77.7581 81.7092
L77.5915 81.5187
" />
<path d="M77.5915 81.5187
L77.5438 81.1377
" />
<path d="M77.5438 81.1377
L77.6272 80.4711
" />
<path d="M77.6272 80.4711
L77.7700 80.0901
" />
<path d="M77.7700 80.0901
L77.9843 79.8996
" />
<path d="M77.9843 79.8996
L78.1867 79.8044
" />
<path d="M79.6509 81.8044
L79.9009 79.8044
" />
<path d="M79.9009 79.8044
L80.7938 81.8044
" />
<path d="M80.7938 81.8044
L81.0438 79.8044
" />
<path d="M83.3295 79.8044
L84.5676 79.8044
" />
<path d="M84.5676 79.8044
L83.8057 80.5663
" />
<path d="M83.8057 80.5663
L84.0914 80.5663
" />
<path d="M84.0914 80.5663
L84.2699 80.6615
" />
<path d="M84.2699 80.6615
L84.3533 80.7568
" />
<path d="M84.3533 80.7568
L84.4247 80.9472
" />
<path d="M84.4247 80.9472
L84.3652 81.4234
" />
<path d="M84.3652 81.4234
L84.2461 81.6139
" />
<path d="M84.2461 81.6139
L84.1390 81.7092
" />
<path d="M84.1390 81.7092
L83.9366 81.8044
" />
<path d="M83.9366 81.8044
L83.3652 81.8044
" />
<path d="M83.3652 81.8044
L83.1866 81.7092
" />
<path d="M83.1866 81.7092
L83.1033 81.6139
" />
<path d="M86.2819 79.8044
L85.9009 79.8044
" />
<path d="M85.9009 79.8044
L85.6985 79.8996
" />
<path d="M85.6985 79.8996
L85.5914 79.9949
" />
<path d="M85.5914 79.9949
L85.3652 80.2806
" />
<path d="M85.3652 80.2806
L85.2224 80.6615
" />
<path d="M85.2224 80.6615
L85.1271 81.4234
" />
<path d="M85.1271 81.4234
L85.1985 81.6139
" />
<path d="M85.1985 81.6139
L85.2819 81.7092
" />
<path d="M85.2819 81.7092
L85.4605 81.8044
" />
<path d="M85.4605 81.8044
L85.8414 81.8044
" />
<path d="M85.8414 81.8044
L86.0438 81.7092
" />
<path d="M86.0438 81.7092
L86.1509 81.6139
" />
<path d="M86.1509 81.6139
L86.2700 81.4234
" />
<path d="M86.2700 81.4234
L86.3295 80.9472
" />
<path d="M86.3295 80.9472
L86.2581 80.7568
" />
<path d="M86.2581 80.7568
L86.1747 80.6615
" />
<path d="M86.1747 80.6615
L85.9962 80.5663
" />
<path d="M85.9962 80.5663
L85.6152 80.5663
" />
<path d="M85.6152 80.5663
L85.4128 80.6615
" />
<path d="M85.4128 80.6615
L85.3057 80.7568
" />
<path d="M85.3057 80.7568
L85.1866 80.9472
" />
<path d="M87.0438 79.8044
L87.4605 81.8044
" />
<path d="M87.4605 81.8044
L88.3772 79.8044
" />
</g></g>
<g style="fill:none; 
stroke:#7F848E; stroke-width:0.1524; stroke-opacity:1; 
stroke-linecap:round; stroke-linejoin:round;">
<text x="33.4000" y="78.0500"
textLength="25.2999" font-size="2.0000" lengthAdjust="spacingAndGlyphs"
text-anchor="start" opacity="0" stroke-opacity="0">File: Planos.kicad_sch</text>
<g class="stroked-text"><desc>File: Planos.kicad_sch</desc>
<path d="M34.3573 77.2002
L33.8573 77.2002
" />
<path d="M33.8573 77.9859
L33.8573 76.4859
" />
<path d="M33.8573 76.4859
L34.5716 76.4859
" />
<path d="M35.1430 77.9859
L35.1430 76.9859
" />
<path d="M35.1430 76.4859
L35.0716 76.5573
" />
<path d="M35.0716 76.5573
L35.1430 76.6287
" />
<path d="M35.1430 76.6287
L35.2144 76.5573
" />
<path d="M35.2144 76.5573
L35.1430 76.4859
" />
<path d="M35.1430 76.4859
L35.1430 76.6287
" />
<path d="M36.0716 77.9859
L35.9287 77.9145
" />
<path d="M35.9287 77.9145
L35.8573 77.7716
" />
<path d="M35.8573 77.7716
L35.8573 76.4859
" />
<path d="M37.2144 77.9145
L37.0716 77.9859
" />
<path d="M37.0716 77.9859
L36.7859 77.9859
" />
<path d="M36.7859 77.9859
L36.6430 77.9145
" />
<path d="M36.6430 77.9145
L36.5716 77.7716
" />
<path d="M36.5716 77.7716
L36.5716 77.2002
" />
<path d="M36.5716 77.2002
L36.6430 77.0573
" />
<path d="M36.6430 77.0573
L36.7859 76.9859
" />
<path d="M36.7859 76.9859
L37.0716 76.9859
" />
<path d="M37.0716 76.9859
L37.2144 77.0573
" />
<path d="M37.2144 77.0573
L37.2859 77.2002
" />
<path d="M37.2859 77.2002
L37.2859 77.3430
" />
<path d="M37.2859 77.3430
L36.5716 77.4859
" />
<path d="M37.9287 77.8430
L38.0001 77.9145
" />
<path d="M38.0001 77.9145
L37.9287 77.9859
" />
<path d="M37.9287 77.9859
L37.8573 77.9145
" />
<path d="M37.8573 77.9145
L37.9287 77.8430
" />
<path d="M37.9287 77.8430
L37.9287 77.9859
" />
<path d="M37.9287 77.0573
L38.0001 77.1287
" />
<path d="M38.0001 77.1287
L37.9287 77.2002
" />
<path d="M37.9287 77.2002
L37.8573 77.1287
" />
<path d="M37.8573 77.1287
L37.9287 77.0573
" />
<path d="M37.9287 77.0573
L37.9287 77.2002
" />
<path d="M39.7859 77.9859
L39.7859 76.4859
" />
<path d="M39.7859 76.4859
L40.3573 76.4859
" />
<path d="M40.3573 76.4859
L40.5002 76.5573
" />
<path d="M40.5002 76.5573
L40.5716 76.6287
" />
<path d="M40.5716 76.6287
L40.6430 76.7716
" />
<path d="M40.6430 76.7716
L40.6430 76.9859
" />
<path d="M40.6430 76.9859
L40.5716 77.1287
" />
<path d="M40.5716 77.1287
L40.5002 77.2002
" />
<path d="M40.5002 77.2002
L40.3573 77.2716
" />
<path d="M40.3573 77.2716
L39.7859 77.2716
" />
<path d="M41.5002 77.9859
L41.3573 77.9145
" />
<path d="M41.3573 77.9145
L41.2859 77.7716
" />
<path d="M41.2859 77.7716
L41.2859 76.4859
" />
<path d="M42.7145 77.9859
L42.7145 77.2002
" />
<path d="M42.7145 77.2002
L42.6430 77.0573
" />
<path d="M42.6430 77.0573
L42.5002 76.9859
" />
<path d="M42.5002 76.9859
L42.2145 76.9859
" />
<path d="M42.2145 76.9859
L42.0716 77.0573
" />
<path d="M42.7145 77.9145
L42.5716 77.9859
" />
<path d="M42.5716 77.9859
L42.2145 77.9859
" />
<path d="M42.2145 77.9859
L42.0716 77.9145
" />
<path d="M42.0716 77.9145
L42.0002 77.7716
" />
<path d="M42.0002 77.7716
L42.0002 77.6287
" />
<path d="M42.0002 77.6287
L42.0716 77.4859
" />
<path d="M42.0716 77.4859
L42.2145 77.4145
" />
<path d="M42.2145 77.4145
L42.5716 77.4145
" />
<path d="M42.5716 77.4145
L42.7145 77.3430
" />
<path d="M43.4287 76.9859
L43.4287 77.9859
" />
<path d="M43.4287 77.1287
L43.5001 77.0573
" />
<path d="M43.5001 77.0573
L43.6430 76.9859
" />
<path d="M43.6430 76.9859
L43.8573 76.9859
" />
<path d="M43.8573 76.9859
L44.0001 77.0573
" />
<path d="M44.0001 77.0573
L44.0716 77.2002
" />
<path d="M44.0716 77.2002
L44.0716 77.9859
" />
<path d="M45.0001 77.9859
L44.8572 77.9145
" />
<path d="M44.8572 77.9145
L44.7858 77.8430
" />
<path d="M44.7858 77.8430
L44.7144 77.7002
" />
<path d="M44.7144 77.7002
L44.7144 77.2716
" />
<path d="M44.7144 77.2716
L44.7858 77.1287
" />
<path d="M44.7858 77.1287
L44.8572 77.0573
" />
<path d="M44.8572 77.0573
L45.0001 76.9859
" />
<path d="M45.0001 76.9859
L45.2144 76.9859
" />
<path d="M45.2144 76.9859
L45.3572 77.0573
" />
<path d="M45.3572 77.0573
L45.4287 77.1287
" />
<path d="M45.4287 77.1287
L45.5001 77.2716
" />
<path d="M45.5001 77.2716
L45.5001 77.7002
" />
<path d="M45.5001 77.7002
L45.4287 77.8430
" />
<path d="M45.4287 77.8430
L45.3572 77.9145
" />
<path d="M45.3572 77.9145
L45.2144 77.9859
" />
<path d="M45.2144 77.9859
L45.0001 77.9859
" />
<path d="M46.0715 77.9145
L46.2143 77.9859
" />
<path d="M46.2143 77.9859
L46.5000 77.9859
" />
<path d="M46.5000 77.9859
L46.6429 77.9145
" />
<path d="M46.6429 77.9145
L46.7143 77.7716
" />
<path d="M46.7143 77.7716
L46.7143 77.7002
" />
<path d="M46.7143 77.7002
L46.6429 77.5573
" />
<path d="M46.6429 77.5573
L46.5000 77.4859
" />
<path d="M46.5000 77.4859
L46.2858 77.4859
" />
<path d="M46.2858 77.4859
L46.1429 77.4145
" />
<path d="M46.1429 77.4145
L46.0715 77.2716
" />
<path d="M46.0715 77.2716
L46.0715 77.2002
" />
<path d="M46.0715 77.2002
L46.1429 77.0573
" />
<path d="M46.1429 77.0573
L46.2858 76.9859
" />
<path d="M46.2858 76.9859
L46.5000 76.9859
" />
<path d="M46.5000 76.9859
L46.6429 77.0573
" />
<path d="M47.3572 77.8430
L47.4286 77.9145
" />
<path d="M47.4286 77.9145
L47.3572 77.9859
" />
<path d="M47.3572 77.9859
L47.2858 77.9145
" />
<path d="M47.2858 77.9145
L47.3572 77.8430
" />
<path d="M47.3572 77.8430
L47.3572 77.9859
" />
<path d="M48.0715 77.9859
L48.0715 76.4859
" />
<path d="M48.2144 77.4145
L48.6429 77.9859
" />
<path d="M48.6429 76.9859
L48.0715 77.5573
" />
<path d="M49.2858 77.9859
L49.2858 76.9859
" />
<path d="M49.2858 76.4859
L49.2144 76.5573
" />
<path d="M49.2144 76.5573
L49.2858 76.6287
" />
<path d="M49.2858 76.6287
L49.3572 76.5573
" />
<path d="M49.3572 76.5573
L49.2858 76.4859
" />
<path d="M49.2858 76.4859
L49.2858 76.6287
" />
<path d="M50.6430 77.9145
L50.5001 77.9859
" />
<path d="M50.5001 77.9859
L50.2144 77.9859
" />
<path d="M50.2144 77.9859
L50.0715 77.9145
" />
<path d="M50.0715 77.9145
L50.0001 77.8430
" />
<path d="M50.0001 77.8430
L49.9287 77.7002
" />
<path d="M49.9287 77.7002
L49.9287 77.2716
" />
<path d="M49.9287 77.2716
L50.0001 77.1287
" />
<path d="M50.0001 77.1287
L50.0715 77.0573
" />
<path d="M50.0715 77.0573
L50.2144 76.9859
" />
<path d="M50.2144 76.9859
L50.5001 76.9859
" />
<path d="M50.5001 76.9859
L50.6430 77.0573
" />
<path d="M51.9287 77.9859
L51.9287 77.2002
" />
<path d="M51.9287 77.2002
L51.8572 77.0573
" />
<path d="M51.8572 77.0573
L51.7144 76.9859
" />
<path d="M51.7144 76.9859
L51.4287 76.9859
" />
<path d="M51.4287 76.9859
L51.2858 77.0573
" />
<path d="M51.9287 77.9145
L51.7858 77.9859
" />
<path d="M51.7858 77.9859
L51.4287 77.9859
" />
<path d="M51.4287 77.9859
L51.2858 77.9145
" />
<path d="M51.2858 77.9145
L51.2144 77.7716
" />
<path d="M51.2144 77.7716
L51.2144 77.6287
" />
<path d="M51.2144 77.6287
L51.2858 77.4859
" />
<path d="M51.2858 77.4859
L51.4287 77.4145
" />
<path d="M51.4287 77.4145
L51.7858 77.4145
" />
<path d="M51.7858 77.4145
L51.9287 77.3430
" />
<path d="M53.2858 77.9859
L53.2858 76.4859
" />
<path d="M53.2858 77.9145
L53.1429 77.9859
" />
<path d="M53.1429 77.9859
L52.8572 77.9859
" />
<path d="M52.8572 77.9859
L52.7143 77.9145
" />
<path d="M52.7143 77.9145
L52.6429 77.8430
" />
<path d="M52.6429 77.8430
L52.5715 77.7002
" />
<path d="M52.5715 77.7002
L52.5715 77.2716
" />
<path d="M52.5715 77.2716
L52.6429 77.1287
" />
<path d="M52.6429 77.1287
L52.7143 77.0573
" />
<path d="M52.7143 77.0573
L52.8572 76.9859
" />
<path d="M52.8572 76.9859
L53.1429 76.9859
" />
<path d="M53.1429 76.9859
L53.2858 77.0573
" />
<path d="M53.6429 78.1287
L54.7857 78.1287
" />
<path d="M55.0715 77.9145
L55.2143 77.9859
" />
<path d="M55.2143 77.9859
L55.5000 77.9859
" />
<path d="M55.5000 77.9859
L55.6429 77.9145
" />
<path d="M55.6429 77.9145
L55.7143 77.7716
" />
<path d="M55.7143 77.7716
L55.7143 77.7002
" />
<path d="M55.7143 77.7002
L55.6429 77.5573
" />
<path d="M55.6429 77.5573
L55.5000 77.4859
" />
<path d="M55.5000 77.4859
L55.2858 77.4859
" />
<path d="M55.2858 77.4859
L55.1429 77.4145
" />
<path d="M55.1429 77.4145
L55.0715 77.2716
" />
<path d="M55.0715 77.2716
L55.0715 77.2002
" />
<path d="M55.0715 77.2002
L55.1429 77.0573
" />
<path d="M55.1429 77.0573
L55.2858 76.9859
" />
<path d="M55.2858 76.9859
L55.5000 76.9859
" />
<path d="M55.5000 76.9859
L55.6429 77.0573
" />
<path d="M57.0001 77.9145
L56.8572 77.9859
" />
<path d="M56.8572 77.9859
L56.5715 77.9859
" />
<path d="M56.5715 77.9859
L56.4286 77.9145
" />
<path d="M56.4286 77.9145
L56.3572 77.8430
" />
<path d="M56.3572 77.8430
L56.2858 77.7002
" />
<path d="M56.2858 77.7002
L56.2858 77.2716
" />
<path d="M56.2858 77.2716
L56.3572 77.1287
" />
<path d="M56.3572 77.1287
L56.4286 77.0573
" />
<path d="M56.4286 77.0573
L56.5715 76.9859
" />
<path d="M56.5715 76.9859
L56.8572 76.9859
" />
<path d="M56.8572 76.9859
L57.0001 77.0573
" />
<path d="M57.6429 77.9859
L57.6429 76.4859
" />
<path d="M58.2858 77.9859
L58.2858 77.2002
" />
<path d="M58.2858 77.2002
L58.2143 77.0573
" />
<path d="M58.2143 77.0573
L58.0715 76.9859
" />
<path d="M58.0715 76.9859
L57.8572 76.9859
" />
<path d="M57.8572 76.9859
L57.7143 77.0573
" />
<path d="M57.7143 77.0573
L57.6429 77.1287
" />
</g><path d="M32.4000 73.1000
L140.4000 73.1000
" />
<text x="33.4000" y="75.3500"
textLength="9.8000" font-size="2.0000" lengthAdjust="spacingAndGlyphs"
text-anchor="start" opacity="0" stroke-opacity="0">Sheet: /</text>
<g class="stroked-text"><desc>Sheet: /</desc>
<path d="M33.7859 75.2145
L34.0002 75.2859
" />
<path d="M34.0002 75.2859
L34.3573 75.2859
" />
<path d="M34.3573 75.2859
L34.5002 75.2145
" />
<path d="M34.5002 75.2145
L34.5716 75.1430
" />
<path d="M34.5716 75.1430
L34.6430 75.0002
" />
<path d="M34.6430 75.0002
L34.6430 74.8573
" />
<path d="M34.6430 74.8573
L34.5716 74.7145
" />
<path d="M34.5716 74.7145
L34.5002 74.6430
" />
<path d="M34.5002 74.6430
L34.3573 74.5716
" />
<path d="M34.3573 74.5716
L34.0716 74.5002
" />
<path d="M34.0716 74.5002
L33.9287 74.4287
" />
<path d="M33.9287 74.4287
L33.8573 74.3573
" />
<path d="M33.8573 74.3573
L33.7859 74.2145
" />
<path d="M33.7859 74.2145
L33.7859 74.0716
" />
<path d="M33.7859 74.0716
L33.8573 73.9287
" />
<path d="M33.8573 73.9287
L33.9287 73.8573
" />
<path d="M33.9287 73.8573
L34.0716 73.7859
" />
<path d="M34.0716 73.7859
L34.4287 73.7859
" />
<path d="M34.4287 73.7859
L34.6430 73.8573
" />
<path d="M35.2859 75.2859
L35.2859 73.7859
" />
<path d="M35.9288 75.2859
L35.9288 74.5002
" />
<path d="M35.9288 74.5002
L35.8573 74.3573
" />
<path d="M35.8573 74.3573
L35.7145 74.2859
" />
<path d="M35.7145 74.2859
L35.5002 74.2859
" />
<path d="M35.5002 74.2859
L35.3573 74.3573
" />
<path d="M35.3573 74.3573
L35.2859 74.4287
" />
<path d="M37.2144 75.2145
L37.0716 75.2859
" />
<path d="M37.0716 75.2859
L36.7859 75.2859
" />
<path d="M36.7859 75.2859
L36.6430 75.2145
" />
<path d="M36.6430 75.2145
L36.5716 75.0716
" />
<path d="M36.5716 75.0716
L36.5716 74.5002
" />
<path d="M36.5716 74.5002
L36.6430 74.3573
" />
<path d="M36.6430 74.3573
L36.7859 74.2859
" />
<path d="M36.7859 74.2859
L37.0716 74.2859
" />
<path d="M37.0716 74.2859
L37.2144 74.3573
" />
<path d="M37.2144 74.3573
L37.2859 74.5002
" />
<path d="M37.2859 74.5002
L37.2859 74.6430
" />
<path d="M37.2859 74.6430
L36.5716 74.7859
" />
<path d="M38.5001 75.2145
L38.3573 75.2859
" />
<path d="M38.3573 75.2859
L38.0716 75.2859
" />
<path d="M38.0716 75.2859
L37.9287 75.2145
" />
<path d="M37.9287 75.2145
L37.8573 75.0716
" />
<path d="M37.8573 75.0716
L37.8573 74.5002
" />
<path d="M37.8573 74.5002
L37.9287 74.3573
" />
<path d="M37.9287 74.3573
L38.0716 74.2859
" />
<path d="M38.0716 74.2859
L38.3573 74.2859
" />
<path d="M38.3573 74.2859
L38.5001 74.3573
" />
<path d="M38.5001 74.3573
L38.5716 74.5002
" />
<path d="M38.5716 74.5002
L38.5716 74.6430
" />
<path d="M38.5716 74.6430
L37.8573 74.7859
" />
<path d="M39.0001 74.2859
L39.5715 74.2859
" />
<path d="M39.2144 73.7859
L39.2144 75.0716
" />
<path d="M39.2144 75.0716
L39.2858 75.2145
" />
<path d="M39.2858 75.2145
L39.4287 75.2859
" />
<path d="M39.4287 75.2859
L39.5715 75.2859
" />
<path d="M40.0715 75.1430
L40.1429 75.2145
" />
<path d="M40.1429 75.2145
L40.0715 75.2859
" />
<path d="M40.0715 75.2859
L40.0001 75.2145
" />
<path d="M40.0001 75.2145
L40.0715 75.1430
" />
<path d="M40.0715 75.1430
L40.0715 75.2859
" />
<path d="M40.0715 74.3573
L40.1429 74.4287
" />
<path d="M40.1429 74.4287
L40.0715 74.5002
" />
<path d="M40.0715 74.5002
L40.0001 74.4287
" />
<path d="M40.0001 74.4287
L40.0715 74.3573
" />
<path d="M40.0715 74.3573
L40.0715 74.5002
" />
<path d="M43.0001 73.7145
L41.7144 75.6430
" />
</g></g>
<g style="fill:none; 
stroke:#7F848E; stroke-width:0.3000; stroke-opacity:1; 
stroke-linecap:round; stroke-linejoin:round;">
<text x="33.4000" y="72.3500"
textLength="16.4571" font-size="2.0000" lengthAdjust="spacingAndGlyphs"
text-anchor="start" opacity="0" stroke-opacity="0">CAÑÓN GAUSS</text>
<g class="stroked-text"><desc>CAÑÓN GAUSS</desc>
<path d="M34.8115 72.1354
L34.7401 72.2069
" />
<path d="M34.7401 72.2069
L34.5258 72.2783
" />
<path d="M34.5258 72.2783
L34.3830 72.2783
" />
<path d="M34.3830 72.2783
L34.1687 72.2069
" />
<path d="M34.1687 72.2069
L34.0258 72.0640
" />
<path d="M34.0258 72.0640
L33.9544 71.9211
" />
<path d="M33.9544 71.9211
L33.8830 71.6354
" />
<path d="M33.8830 71.6354
L33.8830 71.4211
" />
<path d="M33.8830 71.4211
L33.9544 71.1354
" />
<path d="M33.9544 71.1354
L34.0258 70.9926
" />
<path d="M34.0258 70.9926
L34.1687 70.8497
" />
<path d="M34.1687 70.8497
L34.3830 70.7783
" />
<path d="M34.3830 70.7783
L34.5258 70.7783
" />
<path d="M34.5258 70.7783
L34.7401 70.8497
" />
<path d="M34.7401 70.8497
L34.8115 70.9211
" />
<path d="M35.3830 71.8497
L36.0973 71.8497
" />
<path d="M35.2401 72.2783
L35.7401 70.7783
" />
<path d="M35.7401 70.7783
L36.2401 72.2783
" />
<path d="M36.7401 72.2783
L36.7401 70.7783
" />
<path d="M36.7401 70.7783
L37.5972 72.2783
" />
<path d="M37.5972 72.2783
L37.5972 70.7783
" />
<path d="M36.8115 70.4211
L36.8830 70.3497
" />
<path d="M36.8830 70.3497
L37.0258 70.2783
" />
<path d="M37.0258 70.2783
L37.3115 70.4211
" />
<path d="M37.3115 70.4211
L37.4544 70.3497
" />
<path d="M37.4544 70.3497
L37.5258 70.2783
" />
<path d="M38.5972 70.7783
L38.8829 70.7783
" />
<path d="M38.8829 70.7783
L39.0258 70.8497
" />
<path d="M39.0258 70.8497
L39.1686 70.9926
" />
<path d="M39.1686 70.9926
L39.2401 71.2783
" />
<path d="M39.2401 71.2783
L39.2401 71.7783
" />
<path d="M39.2401 71.7783
L39.1686 72.0640
" />
<path d="M39.1686 72.0640
L39.0258 72.2069
" />
<path d="M39.0258 72.2069
L38.8829 72.2783
" />
<path d="M38.8829 72.2783
L38.5972 72.2783
" />
<path d="M38.5972 72.2783
L38.4544 72.2069
" />
<path d="M38.4544 72.2069
L38.3115 72.0640
" />
<path d="M38.3115 72.0640
L38.2401 71.7783
" />
<path d="M38.2401 71.7783
L38.2401 71.2783
" />
<path d="M38.2401 71.2783
L38.3115 70.9926
" />
<path d="M38.3115 70.9926
L38.4544 70.8497
" />
<path d="M38.4544 70.8497
L38.5972 70.7783
" />
<path d="M38.8829 70.2069
L38.6686 70.4211
" />
<path d="M39.8829 72.2783
L39.8829 70.7783
" />
<path d="M39.8829 70.7783
L40.7400 72.2783
" />
<path d="M40.7400 72.2783
L40.7400 70.7783
" />
<path d="M43.3829 70.8497
L43.2401 70.7783
" />
<path d="M43.2401 70.7783
L43.0258 70.7783
" />
<path d="M43.0258 70.7783
L42.8115 70.8497
" />
<path d="M42.8115 70.8497
L42.6686 70.9926
" />
<path d="M42.6686 70.9926
L42.5972 71.1354
" />
<path d="M42.5972 71.1354
L42.5258 71.4211
" />
<path d="M42.5258 71.4211
L42.5258 71.6354
" />
<path d="M42.5258 71.6354
L42.5972 71.9211
" />
<path d="M42.5972 71.9211
L42.6686 72.0640
" />
<path d="M42.6686 72.0640
L42.8115 72.2069
" />
<path d="M42.8115 72.2069
L43.0258 72.2783
" />
<path d="M43.0258 72.2783
L43.1686 72.2783
" />
<path d="M43.1686 72.2783
L43.3829 72.2069
" />
<path d="M43.3829 72.2069
L43.4543 72.1354
" />
<path d="M43.4543 72.1354
L43.4543 71.6354
" />
<path d="M43.4543 71.6354
L43.1686 71.6354
" />
<path d="M44.0258 71.8497
L44.7401 71.8497
" />
<path d="M43.8829 72.2783
L44.3829 70.7783
" />
<path d="M44.3829 70.7783
L44.8829 72.2783
" />
<path d="M45.3829 70.7783
L45.3829 71.9926
" />
<path d="M45.3829 71.9926
L45.4543 72.1354
" />
<path d="M45.4543 72.1354
L45.5258 72.2069
" />
<path d="M45.5258 72.2069
L45.6686 72.2783
" />
<path d="M45.6686 72.2783
L45.9543 72.2783
" />
<path d="M45.9543 72.2783
L46.0972 72.2069
" />
<path d="M46.0972 72.2069
L46.1686 72.1354
" />
<path d="M46.1686 72.1354
L46.2400 71.9926
" />
<path d="M46.2400 71.9926
L46.2400 70.7783
" />
<path d="M46.8829 72.2069
L47.0972 72.2783
" />
<path d="M47.0972 72.2783
L47.4543 72.2783
" />
<path d="M47.4543 72.2783
L47.5972 72.2069
" />
<path d="M47.5972 72.2069
L47.6686 72.1354
" />
<path d="M47.6686 72.1354
L47.7400 71.9926
" />
<path d="M47.7400 71.9926
L47.7400 71.8497
" />
<path d="M47.7400 71.8497
L47.6686 71.7069
" />
<path d="M47.6686 71.7069
L47.5972 71.6354
" />
<path d="M47.5972 71.6354
L47.4543 71.5640
" />
<path d="M47.4543 71.5640
L47.1686 71.4926
" />
<path d="M47.1686 71.4926
L47.0257 71.4211
" />
<path d="M47.0257 71.4211
L46.9543 71.3497
" />
<path d="M46.9543 71.3497
L46.8829 71.2069
" />
<path d="M46.8829 71.2069
L46.8829 71.0640
" />
<path d="M46.8829 71.0640
L46.9543 70.9211
" />
<path d="M46.9543 70.9211
L47.0257 70.8497
" />
<path d="M47.0257 70.8497
L47.1686 70.7783
" />
<path d="M47.1686 70.7783
L47.5257 70.7783
" />
<path d="M47.5257 70.7783
L47.7400 70.8497
" />
<path d="M48.3115 72.2069
L48.5258 72.2783
" />
<path d="M48.5258 72.2783
L48.8829 72.2783
" />
<path d="M48.8829 72.2783
L49.0258 72.2069
" />
<path d="M49.0258 72.2069
L49.0972 72.1354
" />
<path d="M49.0972 72.1354
L49.1686 71.9926
" />
<path d="M49.1686 71.9926
L49.1686 71.8497
" />
<path d="M49.1686 71.8497
L49.0972 71.7069
" />
<path d="M49.0972 71.7069
L49.0258 71.6354
" />
<path d="M49.0258 71.6354
L48.8829 71.5640
" />
<path d="M48.8829 71.5640
L48.5972 71.4926
" />
<path d="M48.5972 71.4926
L48.4543 71.4211
" />
<path d="M48.4543 71.4211
L48.3829 71.3497
" />
<path d="M48.3829 71.3497
L48.3115 71.2069
" />
<path d="M48.3115 71.2069
L48.3115 71.0640
" />
<path d="M48.3115 71.0640
L48.3829 70.9211
" />
<path d="M48.3829 70.9211
L48.4543 70.8497
" />
<path d="M48.4543 70.8497
L48.5972 70.7783
" />
<path d="M48.5972 70.7783
L48.9543 70.7783
" />
<path d="M48.9543 70.7783
L49.1686 70.8497
" />
</g></g>
<g style="fill:none; 
stroke:#7F848E; stroke-width:0.1524; stroke-opacity:1; 
stroke-linecap:round; stroke-linejoin:round;">
<text x="33.4000" y="69.3500"
textLength="16.2286" font-size="2.0000" lengthAdjust="spacingAndGlyphs"
text-anchor="start" opacity="0" stroke-opacity="0">YAGO ROBERTI</text>
<g class="stroked-text"><desc>YAGO ROBERTI</desc>
<path d="M34.1430 68.5716
L34.1430 69.2859
" />
<path d="M33.6430 67.7859
L34.1430 68.5716
" />
<path d="M34.1430 68.5716
L34.6430 67.7859
" />
<path d="M35.0716 68.8573
L35.7859 68.8573
" />
<path d="M34.9287 69.2859
L35.4287 67.7859
" />
<path d="M35.4287 67.7859
L35.9287 69.2859
" />
<path d="M37.2144 67.8573
L37.0716 67.7859
" />
<path d="M37.0716 67.7859
L36.8573 67.7859
" />
<path d="M36.8573 67.7859
L36.6430 67.8573
" />
<path d="M36.6430 67.8573
L36.5001 68.0002
" />
<path d="M36.5001 68.0002
L36.4287 68.1430
" />
<path d="M36.4287 68.1430
L36.3573 68.4287
" />
<path d="M36.3573 68.4287
L36.3573 68.6430
" />
<path d="M36.3573 68.6430
L36.4287 68.9287
" />
<path d="M36.4287 68.9287
L36.5001 69.0716
" />
<path d="M36.5001 69.0716
L36.6430 69.2145
" />
<path d="M36.6430 69.2145
L36.8573 69.2859
" />
<path d="M36.8573 69.2859
L37.0001 69.2859
" />
<path d="M37.0001 69.2859
L37.2144 69.2145
" />
<path d="M37.2144 69.2145
L37.2858 69.1430
" />
<path d="M37.2858 69.1430
L37.2858 68.6430
" />
<path d="M37.2858 68.6430
L37.0001 68.6430
" />
<path d="M38.2144 67.7859
L38.5001 67.7859
" />
<path d="M38.5001 67.7859
L38.6430 67.8573
" />
<path d="M38.6430 67.8573
L38.7858 68.0002
" />
<path d="M38.7858 68.0002
L38.8573 68.2859
" />
<path d="M38.8573 68.2859
L38.8573 68.7859
" />
<path d="M38.8573 68.7859
L38.7858 69.0716
" />
<path d="M38.7858 69.0716
L38.6430 69.2145
" />
<path d="M38.6430 69.2145
L38.5001 69.2859
" />
<path d="M38.5001 69.2859
L38.2144 69.2859
" />
<path d="M38.2144 69.2859
L38.0716 69.2145
" />
<path d="M38.0716 69.2145
L37.9287 69.0716
" />
<path d="M37.9287 69.0716
L37.8573 68.7859
" />
<path d="M37.8573 68.7859
L37.8573 68.2859
" />
<path d="M37.8573 68.2859
L37.9287 68.0002
" />
<path d="M37.9287 68.0002
L38.0716 67.8573
" />
<path d="M38.0716 67.8573
L38.2144 67.7859
" />
<path d="M41.5001 69.2859
L41.0001 68.5716
" />
<path d="M40.6430 69.2859
L40.6430 67.7859
" />
<path d="M40.6430 67.7859
L41.2144 67.7859
" />
<path d="M41.2144 67.7859
L41.3573 67.8573
" />
<path d="M41.3573 67.8573
L41.4287 67.9287
" />
<path d="M41.4287 67.9287
L41.5001 68.0716
" />
<path d="M41.5001 68.0716
L41.5001 68.2859
" />
<path d="M41.5001 68.2859
L41.4287 68.4287
" />
<path d="M41.4287 68.4287
L41.3573 68.5002
" />
<path d="M41.3573 68.5002
L41.2144 68.5716
" />
<path d="M41.2144 68.5716
L40.6430 68.5716
" />
<path d="M42.4287 67.7859
L42.7144 67.7859
" />
<path d="M42.7144 67.7859
L42.8573 67.8573
" />
<path d="M42.8573 67.8573
L43.0001 68.0002
" />
<path d="M43.0001 68.0002
L43.0716 68.2859
" />
<path d="M43.0716 68.2859
L43.0716 68.7859
" />
<path d="M43.0716 68.7859
L43.0001 69.0716
" />
<path d="M43.0001 69.0716
L42.8573 69.2145
" />
<path d="M42.8573 69.2145
L42.7144 69.2859
" />
<path d="M42.7144 69.2859
L42.4287 69.2859
" />
<path d="M42.4287 69.2859
L42.2859 69.2145
" />
<path d="M42.2859 69.2145
L42.1430 69.0716
" />
<path d="M42.1430 69.0716
L42.0716 68.7859
" />
<path d="M42.0716 68.7859
L42.0716 68.2859
" />
<path d="M42.0716 68.2859
L42.1430 68.0002
" />
<path d="M42.1430 68.0002
L42.2859 67.8573
" />
<path d="M42.2859 67.8573
L42.4287 67.7859
" />
<path d="M44.2144 68.5002
L44.4287 68.5716
" />
<path d="M44.4287 68.5716
L44.5001 68.6430
" />
<path d="M44.5001 68.6430
L44.5715 68.7859
" />
<path d="M44.5715 68.7859
L44.5715 69.0002
" />
<path d="M44.5715 69.0002
L44.5001 69.1430
" />
<path d="M44.5001 69.1430
L44.4287 69.2145
" />
<path d="M44.4287 69.2145
L44.2858 69.2859
" />
<path d="M44.2858 69.2859
L43.7144 69.2859
" />
<path d="M43.7144 69.2859
L43.7144 67.7859
" />
<path d="M43.7144 67.7859
L44.2144 67.7859
" />
<path d="M44.2144 67.7859
L44.3573 67.8573
" />
<path d="M44.3573 67.8573
L44.4287 67.9287
" />
<path d="M44.4287 67.9287
L44.5001 68.0716
" />
<path d="M44.5001 68.0716
L44.5001 68.2145
" />
<path d="M44.5001 68.2145
L44.4287 68.3573
" />
<path d="M44.4287 68.3573
L44.3573 68.4287
" />
<path d="M44.3573 68.4287
L44.2144 68.5002
" />
<path d="M44.2144 68.5002
L43.7144 68.5002
" />
<path d="M45.2144 68.5002
L45.7144 68.5002
" />
<path d="M45.9287 69.2859
L45.2144 69.2859
" />
<path d="M45.2144 69.2859
L45.2144 67.7859
" />
<path d="M45.2144 67.7859
L45.9287 67.7859
" />
<path d="M47.4286 69.2859
L46.9286 68.5716
" />
<path d="M46.5715 69.2859
L46.5715 67.7859
" />
<path d="M46.5715 67.7859
L47.1429 67.7859
" />
<path d="M47.1429 67.7859
L47.2858 67.8573
" />
<path d="M47.2858 67.8573
L47.3572 67.9287
" />
<path d="M47.3572 67.9287
L47.4286 68.0716
" />
<path d="M47.4286 68.0716
L47.4286 68.2859
" />
<path d="M47.4286 68.2859
L47.3572 68.4287
" />
<path d="M47.3572 68.4287
L47.2858 68.5002
" />
<path d="M47.2858 68.5002
L47.1429 68.5716
" />
<path d="M47.1429 68.5716
L46.5715 68.5716
" />
<path d="M47.8572 67.7859
L48.7144 67.7859
" />
<path d="M48.2858 69.2859
L48.2858 67.7859
" />
<path d="M49.2144 69.2859
L49.2144 67.7859
" />
</g><text x="33.4000" y="66.3500"
textLength="21.1571" font-size="2.0000" lengthAdjust="spacingAndGlyphs"
text-anchor="start" opacity="0" stroke-opacity="0">BENJAMIN BAUDON</text>
<g class="stroked-text"><desc>BENJAMIN BAUDON</desc>
<path d="M34.3573 65.5002
L34.5716 65.5716
" />
<path d="M34.5716 65.5716
L34.6430 65.6430
" />
<path d="M34.6430 65.6430
L34.7144 65.7859
" />
<path d="M34.7144 65.7859
L34.7144 66.0002
" />
<path d="M34.7144 66.0002
L34.6430 66.1430
" />
<path d="M34.6430 66.1430
L34.5716 66.2145
" />
<path d="M34.5716 66.2145
L34.4287 66.2859
" />
<path d="M34.4287 66.2859
L33.8573 66.2859
" />
<path d="M33.8573 66.2859
L33.8573 64.7859
" />
<path d="M33.8573 64.7859
L34.3573 64.7859
" />
<path d="M34.3573 64.7859
L34.5002 64.8573
" />
<path d="M34.5002 64.8573
L34.5716 64.9287
" />
<path d="M34.5716 64.9287
L34.6430 65.0716
" />
<path d="M34.6430 65.0716
L34.6430 65.2145
" />
<path d="M34.6430 65.2145
L34.5716 65.3573
" />
<path d="M34.5716 65.3573
L34.5002 65.4287
" />
<path d="M34.5002 65.4287
L34.3573 65.5002
" />
<path d="M34.3573 65.5002
L33.8573 65.5002
" />
<path d="M35.3573 65.5002
L35.8573 65.5002
" />
<path d="M36.0716 66.2859
L35.3573 66.2859
" />
<path d="M35.3573 66.2859
L35.3573 64.7859
" />
<path d="M35.3573 64.7859
L36.0716 64.7859
" />
<path d="M36.7144 66.2859
L36.7144 64.7859
" />
<path d="M36.7144 64.7859
L37.5715 66.2859
" />
<path d="M37.5715 66.2859
L37.5715 64.7859
" />
<path d="M38.7144 64.7859
L38.7144 65.8573
" />
<path d="M38.7144 65.8573
L38.6429 66.0716
" />
<path d="M38.6429 66.0716
L38.5001 66.2145
" />
<path d="M38.5001 66.2145
L38.2858 66.2859
" />
<path d="M38.2858 66.2859
L38.1429 66.2859
" />
<path d="M39.3573 65.8573
L40.0716 65.8573
" />
<path d="M39.2144 66.2859
L39.7144 64.7859
" />
<path d="M39.7144 64.7859
L40.2144 66.2859
" />
<path d="M40.7144 66.2859
L40.7144 64.7859
" />
<path d="M40.7144 64.7859
L41.2144 65.8573
" />
<path d="M41.2144 65.8573
L41.7144 64.7859
" />
<path d="M41.7144 64.7859
L41.7144 66.2859
" />
<path d="M42.4287 66.2859
L42.4287 64.7859
" />
<path d="M43.1430 66.2859
L43.1430 64.7859
" />
<path d="M43.1430 64.7859
L44.0001 66.2859
" />
<path d="M44.0001 66.2859
L44.0001 64.7859
" />
<path d="M46.3573 65.5002
L46.5716 65.5716
" />
<path d="M46.5716 65.5716
L46.6430 65.6430
" />
<path d="M46.6430 65.6430
L46.7144 65.7859
" />
<path d="M46.7144 65.7859
L46.7144 66.0002
" />
<path d="M46.7144 66.0002
L46.6430 66.1430
" />
<path d="M46.6430 66.1430
L46.5716 66.2145
" />
<path d="M46.5716 66.2145
L46.4287 66.2859
" />
<path d="M46.4287 66.2859
L45.8573 66.2859
" />
<path d="M45.8573 66.2859
L45.8573 64.7859
" />
<path d="M45.8573 64.7859
L46.3573 64.7859
" />
<path d="M46.3573 64.7859
L46.5002 64.8573
" />
<path d="M46.5002 64.8573
L46.5716 64.9287
" />
<path d="M46.5716 64.9287
L46.6430 65.0716
" />
<path d="M46.6430 65.0716
L46.6430 65.2145
" />
<path d="M46.6430 65.2145
L46.5716 65.3573
" />
<path d="M46.5716 65.3573
L46.5002 65.4287
" />
<path d="M46.5002 65.4287
L46.3573 65.5002
" />
<path d="M46.3573 65.5002
L45.8573 65.5002
" />
<path d="M47.2859 65.8573
L48.0002 65.8573
" />
<path d="M47.1430 66.2859
L47.6430 64.7859
" />
<path d="M47.6430 64.7859
L48.1430 66.2859
" />
<path d="M48.6430 64.7859
L48.6430 66.0002
" />
<path d="M48.6430 66.0002
L48.7144 66.1430
" />
<path d="M48.7144 66.1430
L48.7859 66.2145
" />
<path d="M48.7859 66.2145
L48.9287 66.2859
" />
<path d="M48.9287 66.2859
L49.2144 66.2859
" />
<path d="M49.2144 66.2859
L49.3573 66.2145
" />
<path d="M49.3573 66.2145
L49.4287 66.1430
" />
<path d="M49.4287 66.1430
L49.5001 66.0002
" />
<path d="M49.5001 66.0002
L49.5001 64.7859
" />
<path d="M50.2144 66.2859
L50.2144 64.7859
" />
<path d="M50.2144 64.7859
L50.5715 64.7859
" />
<path d="M50.5715 64.7859
L50.7858 64.8573
" />
<path d="M50.7858 64.8573
L50.9287 65.0002
" />
<path d="M50.9287 65.0002
L51.0001 65.1430
" />
<path d="M51.0001 65.1430
L51.0715 65.4287
" />
<path d="M51.0715 65.4287
L51.0715 65.6430
" />
<path d="M51.0715 65.6430
L51.0001 65.9287
" />
<path d="M51.0001 65.9287
L50.9287 66.0716
" />
<path d="M50.9287 66.0716
L50.7858 66.2145
" />
<path d="M50.7858 66.2145
L50.5715 66.2859
" />
<path d="M50.5715 66.2859
L50.2144 66.2859
" />
<path d="M52.0001 64.7859
L52.2858 64.7859
" />
<path d="M52.2858 64.7859
L52.4287 64.8573
" />
<path d="M52.4287 64.8573
L52.5715 65.0002
" />
<path d="M52.5715 65.0002
L52.6430 65.2859
" />
<path d="M52.6430 65.2859
L52.6430 65.7859
" />
<path d="M52.6430 65.7859
L52.5715 66.0716
" />
<path d="M52.5715 66.0716
L52.4287 66.2145
" />
<path d="M52.4287 66.2145
L52.2858 66.2859
" />
<path d="M52.2858 66.2859
L52.0001 66.2859
" />
<path d="M52.0001 66.2859
L51.8573 66.2145
" />
<path d="M51.8573 66.2145
L51.7144 66.0716
" />
<path d="M51.7144 66.0716
L51.6430 65.7859
" />
<path d="M51.6430 65.7859
L51.6430 65.2859
" />
<path d="M51.6430 65.2859
L51.7144 65.0002
" />
<path d="M51.7144 65.0002
L51.8573 64.8573
" />
<path d="M51.8573 64.8573
L52.0001 64.7859
" />
<path d="M53.2858 66.2859
L53.2858 64.7859
" />
<path d="M53.2858 64.7859
L54.1429 66.2859
" />
<path d="M54.1429 66.2859
L54.1429 64.7859
" />
</g><text x="33.4000" y="63.3500"
textLength="20.6570" font-size="2.0000" lengthAdjust="spacingAndGlyphs"
text-anchor="start" opacity="0" stroke-opacity="0">EZEQUIEL AGUERO</text>
<g class="stroked-text"><desc>EZEQUIEL AGUERO</desc>
<path d="M33.8573 62.5002
L34.3573 62.5002
" />
<path d="M34.5716 63.2859
L33.8573 63.2859
" />
<path d="M33.8573 63.2859
L33.8573 61.7859
" />
<path d="M33.8573 61.7859
L34.5716 61.7859
" />
<path d="M35.0715 61.7859
L36.0715 61.7859
" />
<path d="M36.0715 61.7859
L35.0715 63.2859
" />
<path d="M35.0715 63.2859
L36.0715 63.2859
" />
<path d="M36.6430 62.5002
L37.1430 62.5002
" />
<path d="M37.3573 63.2859
L36.6430 63.2859
" />
<path d="M36.6430 63.2859
L36.6430 61.7859
" />
<path d="M36.6430 61.7859
L37.3573 61.7859
" />
<path d="M39.0001 63.4287
L38.8572 63.3573
" />
<path d="M38.8572 63.3573
L38.7144 63.2145
" />
<path d="M38.7144 63.2145
L38.5001 63.0002
" />
<path d="M38.5001 63.0002
L38.3572 62.9287
" />
<path d="M38.3572 62.9287
L38.2144 62.9287
" />
<path d="M38.2858 63.2859
L38.1430 63.2145
" />
<path d="M38.1430 63.2145
L38.0001 63.0716
" />
<path d="M38.0001 63.0716
L37.9287 62.7859
" />
<path d="M37.9287 62.7859
L37.9287 62.2859
" />
<path d="M37.9287 62.2859
L38.0001 62.0002
" />
<path d="M38.0001 62.0002
L38.1430 61.8573
" />
<path d="M38.1430 61.8573
L38.2858 61.7859
" />
<path d="M38.2858 61.7859
L38.5715 61.7859
" />
<path d="M38.5715 61.7859
L38.7144 61.8573
" />
<path d="M38.7144 61.8573
L38.8572 62.0002
" />
<path d="M38.8572 62.0002
L38.9287 62.2859
" />
<path d="M38.9287 62.2859
L38.9287 62.7859
" />
<path d="M38.9287 62.7859
L38.8572 63.0716
" />
<path d="M38.8572 63.0716
L38.7144 63.2145
" />
<path d="M38.7144 63.2145
L38.5715 63.2859
" />
<path d="M38.5715 63.2859
L38.2858 63.2859
" />
<path d="M39.5715 61.7859
L39.5715 63.0002
" />
<path d="M39.5715 63.0002
L39.6429 63.1430
" />
<path d="M39.6429 63.1430
L39.7144 63.2145
" />
<path d="M39.7144 63.2145
L39.8572 63.2859
" />
<path d="M39.8572 63.2859
L40.1429 63.2859
" />
<path d="M40.1429 63.2859
L40.2858 63.2145
" />
<path d="M40.2858 63.2145
L40.3572 63.1430
" />
<path d="M40.3572 63.1430
L40.4286 63.0002
" />
<path d="M40.4286 63.0002
L40.4286 61.7859
" />
<path d="M41.1429 63.2859
L41.1429 61.7859
" />
<path d="M41.8572 62.5002
L42.3572 62.5002
" />
<path d="M42.5715 63.2859
L41.8572 63.2859
" />
<path d="M41.8572 63.2859
L41.8572 61.7859
" />
<path d="M41.8572 61.7859
L42.5715 61.7859
" />
<path d="M43.9286 63.2859
L43.2143 63.2859
" />
<path d="M43.2143 63.2859
L43.2143 61.7859
" />
<path d="M45.5001 62.8573
L46.2144 62.8573
" />
<path d="M45.3572 63.2859
L45.8572 61.7859
" />
<path d="M45.8572 61.7859
L46.3572 63.2859
" />
<path d="M47.6429 61.8573
L47.5001 61.7859
" />
<path d="M47.5001 61.7859
L47.2858 61.7859
" />
<path d="M47.2858 61.7859
L47.0715 61.8573
" />
<path d="M47.0715 61.8573
L46.9286 62.0002
" />
<path d="M46.9286 62.0002
L46.8572 62.1430
" />
<path d="M46.8572 62.1430
L46.7858 62.4287
" />
<path d="M46.7858 62.4287
L46.7858 62.6430
" />
<path d="M46.7858 62.6430
L46.8572 62.9287
" />
<path d="M46.8572 62.9287
L46.9286 63.0716
" />
<path d="M46.9286 63.0716
L47.0715 63.2145
" />
<path d="M47.0715 63.2145
L47.2858 63.2859
" />
<path d="M47.2858 63.2859
L47.4286 63.2859
" />
<path d="M47.4286 63.2859
L47.6429 63.2145
" />
<path d="M47.6429 63.2145
L47.7143 63.1430
" />
<path d="M47.7143 63.1430
L47.7143 62.6430
" />
<path d="M47.7143 62.6430
L47.4286 62.6430
" />
<path d="M48.3572 61.7859
L48.3572 63.0002
" />
<path d="M48.3572 63.0002
L48.4286 63.1430
" />
<path d="M48.4286 63.1430
L48.5001 63.2145
" />
<path d="M48.5001 63.2145
L48.6429 63.2859
" />
<path d="M48.6429 63.2859
L48.9286 63.2859
" />
<path d="M48.9286 63.2859
L49.0715 63.2145
" />
<path d="M49.0715 63.2145
L49.1429 63.1430
" />
<path d="M49.1429 63.1430
L49.2143 63.0002
" />
<path d="M49.2143 63.0002
L49.2143 61.7859
" />
<path d="M49.9286 62.5002
L50.4286 62.5002
" />
<path d="M50.6429 63.2859
L49.9286 63.2859
" />
<path d="M49.9286 63.2859
L49.9286 61.7859
" />
<path d="M49.9286 61.7859
L50.6429 61.7859
" />
<path d="M52.1428 63.2859
L51.6428 62.5716
" />
<path d="M51.2857 63.2859
L51.2857 61.7859
" />
<path d="M51.2857 61.7859
L51.8571 61.7859
" />
<path d="M51.8571 61.7859
L52.0000 61.8573
" />
<path d="M52.0000 61.8573
L52.0714 61.9287
" />
<path d="M52.0714 61.9287
L52.1428 62.0716
" />
<path d="M52.1428 62.0716
L52.1428 62.2859
" />
<path d="M52.1428 62.2859
L52.0714 62.4287
" />
<path d="M52.0714 62.4287
L52.0000 62.5002
" />
<path d="M52.0000 62.5002
L51.8571 62.5716
" />
<path d="M51.8571 62.5716
L51.2857 62.5716
" />
<path d="M53.0714 61.7859
L53.3571 61.7859
" />
<path d="M53.3571 61.7859
L53.5000 61.8573
" />
<path d="M53.5000 61.8573
L53.6428 62.0002
" />
<path d="M53.6428 62.0002
L53.7143 62.2859
" />
<path d="M53.7143 62.2859
L53.7143 62.7859
" />
<path d="M53.7143 62.7859
L53.6428 63.0716
" />
<path d="M53.6428 63.0716
L53.5000 63.2145
" />
<path d="M53.5000 63.2145
L53.3571 63.2859
" />
<path d="M53.3571 63.2859
L53.0714 63.2859
" />
<path d="M53.0714 63.2859
L52.9286 63.2145
" />
<path d="M52.9286 63.2145
L52.7857 63.0716
" />
<path d="M52.7857 63.0716
L52.7143 62.7859
" />
<path d="M52.7143 62.7859
L52.7143 62.2859
" />
<path d="M52.7143 62.2859
L52.7857 62.0002
" />
<path d="M52.7857 62.0002
L52.9286 61.8573
" />
<path d="M52.9286 61.8573
L53.0714 61.7859
" />
</g><text x="33.4000" y="60.3500"
textLength="0.4572" font-size="2.0000" lengthAdjust="spacingAndGlyphs"
text-anchor="start" opacity="0" stroke-opacity="0"></text>
<g class="stroked-text"><desc></desc>
</g><path d="M52.4000 83.1000
L52.4000 86.1000
" />
<path d="M116.4000 83.1000
L116.4000 89.6000
" />
<path style="fill:none; 
stroke:#E06C75; stroke-width:0.1524; stroke-opacity:1; 
stroke-linecap:round; stroke-linejoin:round;fill:none"
d="M 71.7550,46.3550
73.0250,46.3550
" /> 
<path style="fill:none; 
stroke:#E06C75; stroke-width:0.1524; stroke-opacity:1; 
stroke-linecap:round; stroke-linejoin:round;fill:none"
d="M 72.2630,46.9900
72.5170,46.9900
" /> 
<path style="fill:none; 
stroke:#E06C75; stroke-width:0.1524; stroke-opacity:1; 
stroke-linecap:round; stroke-linejoin:round;fill:none"
d="M 72.3900,45.7200
72.3900,44.4500
" /> 
<path style="fill:none; 
stroke:#E06C75; stroke-width:0.1524; stroke-opacity:1; 
stroke-linecap:round; stroke-linejoin:round;fill:none"
d="M 73.6600,45.7200
71.1200,45.7200
" /> 
</g>
<g style="fill:none; 
stroke:#E06C75; stroke-width:0.1524; stroke-opacity:1; 
stroke-linecap:round; stroke-linejoin:round;">
<path d="M72.3900 44.4500
L72.3900 44.4500
" />
</g>
<g style="fill:none; 
stroke:#56B6C2; stroke-width:0.1524; stroke-opacity:1; 
stroke-linecap:round; stroke-linejoin:round;">
<text x="72.3900" y="50.1650"
textLength="5.1621" font-size="1.6933" lengthAdjust="spacingAndGlyphs"
text-anchor="middle" opacity="0" stroke-opacity="0">Earth</text>
<g class="stroked-text"><desc>Earth</desc>
<path d="M70.2129 49.4443
L70.6363 49.4443
" />
<path d="M70.8177 50.1095
L70.2129 50.1095
" />
<path d="M70.2129 50.1095
L70.2129 48.8395
" />
<path d="M70.2129 48.8395
L70.8177 48.8395
" />
<path d="M71.9062 50.1095
L71.9062 49.4443
" />
<path d="M71.9062 49.4443
L71.8457 49.3233
" />
<path d="M71.8457 49.3233
L71.7248 49.2629
" />
<path d="M71.7248 49.2629
L71.4829 49.2629
" />
<path d="M71.4829 49.2629
L71.3619 49.3233
" />
<path d="M71.9062 50.0491
L71.7853 50.1095
" />
<path d="M71.7853 50.1095
L71.4829 50.1095
" />
<path d="M71.4829 50.1095
L71.3619 50.0491
" />
<path d="M71.3619 50.0491
L71.3015 49.9281
" />
<path d="M71.3015 49.9281
L71.3015 49.8071
" />
<path d="M71.3015 49.8071
L71.3619 49.6862
" />
<path d="M71.3619 49.6862
L71.4829 49.6257
" />
<path d="M71.4829 49.6257
L71.7853 49.6257
" />
<path d="M71.7853 49.6257
L71.9062 49.5652
" />
<path d="M72.5109 50.1095
L72.5109 49.2629
" />
<path d="M72.5109 49.5048
L72.5714 49.3838
" />
<path d="M72.5714 49.3838
L72.6319 49.3233
" />
<path d="M72.6319 49.3233
L72.7528 49.2629
" />
<path d="M72.7528 49.2629
L72.8738 49.2629
" />
<path d="M73.1157 49.2629
L73.5995 49.2629
" />
<path d="M73.2971 48.8395
L73.2971 49.9281
" />
<path d="M73.2971 49.9281
L73.3576 50.0491
" />
<path d="M73.3576 50.0491
L73.4786 50.1095
" />
<path d="M73.4786 50.1095
L73.5995 50.1095
" />
<path d="M74.0228 50.1095
L74.0228 48.8395
" />
<path d="M74.5671 50.1095
L74.5671 49.4443
" />
<path d="M74.5671 49.4443
L74.5066 49.3233
" />
<path d="M74.5066 49.3233
L74.3857 49.2629
" />
<path d="M74.3857 49.2629
L74.2043 49.2629
" />
<path d="M74.2043 49.2629
L74.0833 49.3233
" />
<path d="M74.0833 49.3233
L74.0228 49.3838
" />
</g></g>
<g style="fill:#545862; fill-opacity:1.0000; stroke:none;">
<rect x="60.960000" y="33.020000" width="2.540000" height="5.080000" rx="0.000000" />
</g>
<g style="fill:none; 
stroke:#E06C75; stroke-width:0.2540; stroke-opacity:1; 
stroke-linecap:round; stroke-linejoin:round;">
<rect x="60.960000" y="33.020000" width="2.540000" height="5.080000" rx="0.000000" />
<path style="fill:none; 
stroke:#E06C75; stroke-width:0.1524; stroke-opacity:1; 
stroke-linecap:round; stroke-linejoin:round;fill:none"
d="M 62.7634,37.1602
61.8998,36.3220
" /> 
<path style="fill:none; 
stroke:#E06C75; stroke-width:0.1524; stroke-opacity:1; 
stroke-linecap:round; stroke-linejoin:round;fill:none"
d="M 62.7634,34.6202
61.8998,33.7820
" /> 
<path style="fill:none; 
stroke:#E06C75; stroke-width:0.1524; stroke-opacity:1; 
stroke-linecap:round; stroke-linejoin:round;fill:none"
d="M 62.5856,37.3380
61.7220,36.4998
" /> 
<path style="fill:none; 
stroke:#E06C75; stroke-width:0.1524; stroke-opacity:1; 
stroke-linecap:round; stroke-linejoin:round;fill:none"
d="M 62.5856,34.7980
61.7220,33.9598
" /> 
</g>
<g style="fill:none; 
stroke:#E06C75; stroke-width:0.1524; stroke-opacity:1; 
stroke-linecap:round; stroke-linejoin:round;">
<circle cx="62.2300" cy="36.8300" r="0.6350" /> 
<circle cx="62.2300" cy="34.2900" r="0.6350" /> 
<path d="M63.5000 36.8300
L67.3100 36.8300
" />
<text x="65.4050" y="36.5760"
textLength="1.4127" font-size="1.6933" lengthAdjust="spacingAndGlyphs"
text-anchor="middle" opacity="0" stroke-opacity="0">1</text>
<g class="stroked-text"><desc>1</desc>
<path d="M65.7679 36.4125
L65.0422 36.4125
" />
<path d="M65.4050 36.4125
L65.4050 35.1425
" />
<path d="M65.4050 35.1425
L65.2841 35.3240
" />
<path d="M65.2841 35.3240
L65.1631 35.4449
" />
<path d="M65.1631 35.4449
L65.0422 35.5054
" />
</g><path d="M63.5000 34.2900
L67.3100 34.2900
" />
<text x="65.4050" y="34.0360"
textLength="1.4127" font-size="1.6933" lengthAdjust="spacingAndGlyphs"
text-anchor="middle" opacity="0" stroke-opacity="0">2</text>
<g class="stroked-text"><desc>2</desc>
<path d="M65.0422 32.7235
L65.1026 32.6630
" />
<path d="M65.1026 32.6630
L65.2236 32.6025
" />
<path d="M65.2236 32.6025
L65.5260 32.6025
" />
<path d="M65.5260 32.6025
L65.6469 32.6630
" />
<path d="M65.6469 32.6630
L65.7074 32.7235
" />
<path d="M65.7074 32.7235
L65.7679 32.8444
" />
<path d="M65.7679 32.8444
L65.7679 32.9654
" />
<path d="M65.7679 32.9654
L65.7074 33.1468
" />
<path d="M65.7074 33.1468
L64.9817 33.8725
" />
<path d="M64.9817 33.8725
L65.7679 33.8725
" />
</g></g>
<g style="fill:none; 
stroke:#56B6C2; stroke-width:0.1524; stroke-opacity:1; 
stroke-linecap:round; stroke-linejoin:round;">
<text x="62.2299" y="28.5749"
textLength="2.3803" font-size="1.6933" lengthAdjust="spacingAndGlyphs"
text-anchor="middle" opacity="0" stroke-opacity="0">J5</text>
<g class="stroked-text"><desc>J5</desc>
<path d="M61.8066 27.2494
L61.8066 28.1566
" />
<path d="M61.8066 28.1566
L61.7461 28.3380
" />
<path d="M61.7461 28.3380
L61.6252 28.4590
" />
<path d="M61.6252 28.4590
L61.4437 28.5194
" />
<path d="M61.4437 28.5194
L61.3228 28.5194
" />
<path d="M63.0161 27.2494
L62.4113 27.2494
" />
<path d="M62.4113 27.2494
L62.3509 27.8542
" />
<path d="M62.3509 27.8542
L62.4113 27.7937
" />
<path d="M62.4113 27.7937
L62.5323 27.7332
" />
<path d="M62.5323 27.7332
L62.8347 27.7332
" />
<path d="M62.8347 27.7332
L62.9556 27.7937
" />
<path d="M62.9556 27.7937
L63.0161 27.8542
" />
<path d="M63.0161 27.8542
L63.0766 27.9751
" />
<path d="M63.0766 27.9751
L63.0766 28.2775
" />
<path d="M63.0766 28.2775
L63.0161 28.3985
" />
<path d="M63.0161 28.3985
L62.9556 28.4590
" />
<path d="M62.9556 28.4590
L62.8347 28.5194
" />
<path d="M62.8347 28.5194
L62.5323 28.5194
" />
<path d="M62.5323 28.5194
L62.4113 28.4590
" />
<path d="M62.4113 28.4590
L62.3509 28.3985
" />
</g><text x="62.2299" y="31.1149"
textLength="12.9033" font-size="1.6933" lengthAdjust="spacingAndGlyphs"
text-anchor="middle" opacity="0" stroke-opacity="0">BOARD INPUT</text>
<g class="stroked-text"><desc>BOARD INPUT</desc>
<path d="M56.6056 30.3942
L56.7870 30.4547
" />
<path d="M56.7870 30.4547
L56.8475 30.5151
" />
<path d="M56.8475 30.5151
L56.9079 30.6361
" />
<path d="M56.9079 30.6361
L56.9079 30.8175
" />
<path d="M56.9079 30.8175
L56.8475 30.9385
" />
<path d="M56.8475 30.9385
L56.7870 30.9990
" />
<path d="M56.7870 30.9990
L56.6660 31.0594
" />
<path d="M56.6660 31.0594
L56.1822 31.0594
" />
<path d="M56.1822 31.0594
L56.1822 29.7894
" />
<path d="M56.1822 29.7894
L56.6056 29.7894
" />
<path d="M56.6056 29.7894
L56.7265 29.8499
" />
<path d="M56.7265 29.8499
L56.7870 29.9104
" />
<path d="M56.7870 29.9104
L56.8475 30.0313
" />
<path d="M56.8475 30.0313
L56.8475 30.1523
" />
<path d="M56.8475 30.1523
L56.7870 30.2732
" />
<path d="M56.7870 30.2732
L56.7265 30.3337
" />
<path d="M56.7265 30.3337
L56.6056 30.3942
" />
<path d="M56.6056 30.3942
L56.1822 30.3942
" />
<path d="M57.6941 29.7894
L57.9360 29.7894
" />
<path d="M57.9360 29.7894
L58.0570 29.8499
" />
<path d="M58.0570 29.8499
L58.1779 29.9709
" />
<path d="M58.1779 29.9709
L58.2384 30.2128
" />
<path d="M58.2384 30.2128
L58.2384 30.6361
" />
<path d="M58.2384 30.6361
L58.1779 30.8780
" />
<path d="M58.1779 30.8780
L58.0570 30.9990
" />
<path d="M58.0570 30.9990
L57.9360 31.0594
" />
<path d="M57.9360 31.0594
L57.6941 31.0594
" />
<path d="M57.6941 31.0594
L57.5732 30.9990
" />
<path d="M57.5732 30.9990
L57.4522 30.8780
" />
<path d="M57.4522 30.8780
L57.3918 30.6361
" />
<path d="M57.3918 30.6361
L57.3918 30.2128
" />
<path d="M57.3918 30.2128
L57.4522 29.9709
" />
<path d="M57.4522 29.9709
L57.5732 29.8499
" />
<path d="M57.5732 29.8499
L57.6941 29.7894
" />
<path d="M58.7223 30.6966
L59.3270 30.6966
" />
<path d="M58.6013 31.0594
L59.0246 29.7894
" />
<path d="M59.0246 29.7894
L59.4480 31.0594
" />
<path d="M60.5970 31.0594
L60.1737 30.4547
" />
<path d="M59.8713 31.0594
L59.8713 29.7894
" />
<path d="M59.8713 29.7894
L60.3551 29.7894
" />
<path d="M60.3551 29.7894
L60.4761 29.8499
" />
<path d="M60.4761 29.8499
L60.5366 29.9104
" />
<path d="M60.5366 29.9104
L60.5970 30.0313
" />
<path d="M60.5970 30.0313
L60.5970 30.2128
" />
<path d="M60.5970 30.2128
L60.5366 30.3337
" />
<path d="M60.5366 30.3337
L60.4761 30.3942
" />
<path d="M60.4761 30.3942
L60.3551 30.4547
" />
<path d="M60.3551 30.4547
L59.8713 30.4547
" />
<path d="M61.1413 31.0594
L61.1413 29.7894
" />
<path d="M61.1413 29.7894
L61.4437 29.7894
" />
<path d="M61.4437 29.7894
L61.6251 29.8499
" />
<path d="M61.6251 29.8499
L61.7461 29.9709
" />
<path d="M61.7461 29.9709
L61.8066 30.0918
" />
<path d="M61.8066 30.0918
L61.8670 30.3337
" />
<path d="M61.8670 30.3337
L61.8670 30.5151
" />
<path d="M61.8670 30.5151
L61.8066 30.7570
" />
<path d="M61.8066 30.7570
L61.7461 30.8780
" />
<path d="M61.7461 30.8780
L61.6251 30.9990
" />
<path d="M61.6251 30.9990
L61.4437 31.0594
" />
<path d="M61.4437 31.0594
L61.1413 31.0594
" />
<path d="M63.3789 31.0594
L63.3789 29.7894
" />
<path d="M63.9837 31.0594
L63.9837 29.7894
" />
<path d="M63.9837 29.7894
L64.7094 31.0594
" />
<path d="M64.7094 31.0594
L64.7094 29.7894
" />
<path d="M65.3142 31.0594
L65.3142 29.7894
" />
<path d="M65.3142 29.7894
L65.7980 29.7894
" />
<path d="M65.7980 29.7894
L65.9190 29.8499
" />
<path d="M65.9190 29.8499
L65.9795 29.9104
" />
<path d="M65.9795 29.9104
L66.0399 30.0313
" />
<path d="M66.0399 30.0313
L66.0399 30.2128
" />
<path d="M66.0399 30.2128
L65.9795 30.3337
" />
<path d="M65.9795 30.3337
L65.9190 30.3942
" />
<path d="M65.9190 30.3942
L65.7980 30.4547
" />
<path d="M65.7980 30.4547
L65.3142 30.4547
" />
<path d="M66.5842 29.7894
L66.5842 30.8175
" />
<path d="M66.5842 30.8175
L66.6447 30.9385
" />
<path d="M66.6447 30.9385
L66.7052 30.9990
" />
<path d="M66.7052 30.9990
L66.8261 31.0594
" />
<path d="M66.8261 31.0594
L67.0680 31.0594
" />
<path d="M67.0680 31.0594
L67.1890 30.9990
" />
<path d="M67.1890 30.9990
L67.2495 30.9385
" />
<path d="M67.2495 30.9385
L67.3099 30.8175
" />
<path d="M67.3099 30.8175
L67.3099 29.7894
" />
<path d="M67.7333 29.7894
L68.4590 29.7894
" />
<path d="M68.0962 31.0594
L68.0962 29.7894
" />
</g></g>
<g style="fill:none; 
stroke:#E06C75; stroke-width:0.1524; stroke-opacity:1; 
stroke-linecap:round; stroke-linejoin:round;">
<text x="83.9788" y="28.6658"
textLength="6.6741" font-size="1.6933" lengthAdjust="spacingAndGlyphs"
text-anchor="start" opacity="0" stroke-opacity="0">POWER</text>
<g class="stroked-text"><desc>POWER</desc>
<path d="M84.3813 28.6103
L84.3813 27.3403
" />
<path d="M84.3813 27.3403
L84.8651 27.3403
" />
<path d="M84.8651 27.3403
L84.9861 27.4008
" />
<path d="M84.9861 27.4008
L85.0466 27.4613
" />
<path d="M85.0466 27.4613
L85.1070 27.5822
" />
<path d="M85.1070 27.5822
L85.1070 27.7637
" />
<path d="M85.1070 27.7637
L85.0466 27.8846
" />
<path d="M85.0466 27.8846
L84.9861 27.9451
" />
<path d="M84.9861 27.9451
L84.8651 28.0056
" />
<path d="M84.8651 28.0056
L84.3813 28.0056
" />
<path d="M85.8932 27.3403
L86.1351 27.3403
" />
<path d="M86.1351 27.3403
L86.2561 27.4008
" />
<path d="M86.2561 27.4008
L86.3770 27.5218
" />
<path d="M86.3770 27.5218
L86.4375 27.7637
" />
<path d="M86.4375 27.7637
L86.4375 28.1870
" />
<path d="M86.4375 28.1870
L86.3770 28.4289
" />
<path d="M86.3770 28.4289
L86.2561 28.5499
" />
<path d="M86.2561 28.5499
L86.1351 28.6103
" />
<path d="M86.1351 28.6103
L85.8932 28.6103
" />
<path d="M85.8932 28.6103
L85.7723 28.5499
" />
<path d="M85.7723 28.5499
L85.6513 28.4289
" />
<path d="M85.6513 28.4289
L85.5909 28.1870
" />
<path d="M85.5909 28.1870
L85.5909 27.7637
" />
<path d="M85.5909 27.7637
L85.6513 27.5218
" />
<path d="M85.6513 27.5218
L85.7723 27.4008
" />
<path d="M85.7723 27.4008
L85.8932 27.3403
" />
<path d="M86.8609 27.3403
L87.1633 28.6103
" />
<path d="M87.1633 28.6103
L87.4052 27.7032
" />
<path d="M87.4052 27.7032
L87.6471 28.6103
" />
<path d="M87.6471 28.6103
L87.9495 27.3403
" />
<path d="M88.4332 27.9451
L88.8566 27.9451
" />
<path d="M89.0380 28.6103
L88.4332 28.6103
" />
<path d="M88.4332 28.6103
L88.4332 27.3403
" />
<path d="M88.4332 27.3403
L89.0380 27.3403
" />
<path d="M90.3079 28.6103
L89.8846 28.0056
" />
<path d="M89.5822 28.6103
L89.5822 27.3403
" />
<path d="M89.5822 27.3403
L90.0660 27.3403
" />
<path d="M90.0660 27.3403
L90.1870 27.4008
" />
<path d="M90.1870 27.4008
L90.2475 27.4613
" />
<path d="M90.2475 27.4613
L90.3079 27.5822
" />
<path d="M90.3079 27.5822
L90.3079 27.7637
" />
<path d="M90.3079 27.7637
L90.2475 27.8846
" />
<path d="M90.2475 27.8846
L90.1870 27.9451
" />
<path d="M90.1870 27.9451
L90.0660 28.0056
" />
<path d="M90.0660 28.0056
L89.5822 28.0056
" />
</g><path style="fill:none; 
stroke:#E06C75; stroke-width:0.1524; stroke-opacity:1; 
stroke-linecap:round; stroke-linejoin:round;fill:none"
d="M 82.5500,27.9400
83.6613,29.2104
91.4663,29.2104
91.4663,27.9400
91.4663,26.6696
83.6613,26.6696
Z" /> 
</g>
<g style="fill:none; 
stroke:#E5C07B; stroke-width:0.1524; stroke-opacity:1; 
stroke-linecap:round; stroke-linejoin:round;">
<text x="72.3900" y="27.5907"
textLength="3.7108" font-size="1.6933" lengthAdjust="spacingAndGlyphs"
text-anchor="start" opacity="0" stroke-opacity="0">36V</text>
<g class="stroked-text"><desc>36V</desc>
<path d="M72.6716 26.1572
L73.4578 26.1572
" />
<path d="M73.4578 26.1572
L73.0344 26.6410
" />
<path d="M73.0344 26.6410
L73.2159 26.6410
" />
<path d="M73.2159 26.6410
L73.3368 26.7015
" />
<path d="M73.3368 26.7015
L73.3973 26.7620
" />
<path d="M73.3973 26.7620
L73.4578 26.8829
" />
<path d="M73.4578 26.8829
L73.4578 27.1853
" />
<path d="M73.4578 27.1853
L73.3973 27.3063
" />
<path d="M73.3973 27.3063
L73.3368 27.3668
" />
<path d="M73.3368 27.3668
L73.2159 27.4272
" />
<path d="M73.2159 27.4272
L72.8530 27.4272
" />
<path d="M72.8530 27.4272
L72.7321 27.3668
" />
<path d="M72.7321 27.3668
L72.6716 27.3063
" />
<path d="M74.5463 26.1572
L74.3044 26.1572
" />
<path d="M74.3044 26.1572
L74.1835 26.2177
" />
<path d="M74.1835 26.2177
L74.1230 26.2782
" />
<path d="M74.1230 26.2782
L74.0020 26.4596
" />
<path d="M74.0020 26.4596
L73.9416 26.7015
" />
<path d="M73.9416 26.7015
L73.9416 27.1853
" />
<path d="M73.9416 27.1853
L74.0020 27.3063
" />
<path d="M74.0020 27.3063
L74.0625 27.3668
" />
<path d="M74.0625 27.3668
L74.1835 27.4272
" />
<path d="M74.1835 27.4272
L74.4254 27.4272
" />
<path d="M74.4254 27.4272
L74.5463 27.3668
" />
<path d="M74.5463 27.3668
L74.6068 27.3063
" />
<path d="M74.6068 27.3063
L74.6673 27.1853
" />
<path d="M74.6673 27.1853
L74.6673 26.8829
" />
<path d="M74.6673 26.8829
L74.6068 26.7620
" />
<path d="M74.6068 26.7620
L74.5463 26.7015
" />
<path d="M74.5463 26.7015
L74.4254 26.6410
" />
<path d="M74.4254 26.6410
L74.1835 26.6410
" />
<path d="M74.1835 26.6410
L74.0625 26.7015
" />
<path d="M74.0625 26.7015
L74.0020 26.7620
" />
<path d="M74.0020 26.7620
L73.9416 26.8829
" />
<path d="M75.0301 26.1572
L75.4534 27.4272
" />
<path d="M75.4534 27.4272
L75.8768 26.1572
" />
</g></g>
<g style="fill:none; 
stroke:#98C379; stroke-width:0.1524; stroke-opacity:1; 
stroke-linecap:round; stroke-linejoin:round;">
<path d="M72.3900 36.8300
L72.3900 44.4500
" />
<path d="M67.3100 34.2900
L72.3900 34.2900
" />
<path d="M67.3100 36.8300
L72.3900 36.8300
" />
<path d="M72.3900 27.9400
L82.5500 27.9400
" />
<path d="M72.3900 27.9400
L72.3900 34.2900
" />
</g> 
</svg>
